<svg xmlns="http://www.w3.org/2000/svg" xmlns:xlink="http://www.w3.org/1999/xlink" width="103" height="103" viewBox="0 0 103 103">
  <defs>
    <filter id="Elipse_4909" x="0" y="0" width="103" height="103" filterUnits="userSpaceOnUse">
      <feOffset dy="3" input="SourceAlpha"/>
      <feGaussianBlur stdDeviation="3" result="blur"/>
      <feFlood flood-opacity="0.161"/>
      <feComposite operator="in" in2="blur"/>
      <feComposite in="SourceGraphic"/>
    </filter>
    <linearGradient id="linear-gradient" y1="0.5" x2="1" y2="0.5" gradientUnits="objectBoundingBox">
      <stop offset="0" stop-color="#445ea0"/>
      <stop offset="0.322" stop-color="#415a9b"/>
      <stop offset="0.693" stop-color="#364d8d"/>
      <stop offset="1" stop-color="#2a3d7c"/>
    </linearGradient>
    <linearGradient id="linear-gradient-2" x1="0.307" y1="0.444" x2="0.745" y2="1.248" gradientUnits="objectBoundingBox">
      <stop offset="0" stop-color="#ffd00d"/>
      <stop offset="0.238" stop-color="#ffcb0e"/>
      <stop offset="0.535" stop-color="#fb1"/>
      <stop offset="0.863" stop-color="#ffa215"/>
      <stop offset="1" stop-color="#ff9517"/>
    </linearGradient>
    <linearGradient id="linear-gradient-3" x1="-0.02" y1="0.294" x2="0.546" y2="0.619" gradientUnits="objectBoundingBox">
      <stop offset="0" stop-color="#ff4974"/>
      <stop offset="0.326" stop-color="#fe4672"/>
      <stop offset="0.532" stop-color="#fb3e6c"/>
      <stop offset="0.705" stop-color="#f52f60"/>
      <stop offset="0.859" stop-color="#ee1a51"/>
      <stop offset="1" stop-color="#e4003d"/>
    </linearGradient>
    <linearGradient id="linear-gradient-4" x1="0.53" y1="0.417" x2="1.1" y2="0.729" gradientUnits="objectBoundingBox">
      <stop offset="0" stop-color="#00e7b2"/>
      <stop offset="0.246" stop-color="#05e5b1"/>
      <stop offset="0.53" stop-color="#13ddac"/>
      <stop offset="0.832" stop-color="#2ad1a5"/>
      <stop offset="1" stop-color="#3ac9a0"/>
    </linearGradient>
    <linearGradient id="linear-gradient-5" x1="0.199" y1="0.112" x2="1.075" y2="1.241" gradientUnits="objectBoundingBox">
      <stop offset="0" stop-color="#fffcf8"/>
      <stop offset="0.188" stop-color="#faf8f6"/>
      <stop offset="0.404" stop-color="#eceef2"/>
      <stop offset="0.635" stop-color="#d5dcea"/>
      <stop offset="0.875" stop-color="#b5c4df"/>
      <stop offset="1" stop-color="#a1b5d8"/>
    </linearGradient>
    <linearGradient id="linear-gradient-6" x1="0.5" y1="0.643" x2="0.5" y2="1.322" gradientUnits="objectBoundingBox">
      <stop offset="0" stop-color="#a1b5d8" stop-opacity="0"/>
      <stop offset="0.263" stop-color="#8ea0ba" stop-opacity="0.263"/>
      <stop offset="0.531" stop-color="#808fa3" stop-opacity="0.529"/>
      <stop offset="0.782" stop-color="#778595" stop-opacity="0.78"/>
      <stop offset="1" stop-color="#748290"/>
    </linearGradient>
    <linearGradient id="linear-gradient-7" x1="0.129" y1="0.109" x2="0.727" y2="0.74" xlink:href="#linear-gradient-5"/>
  </defs>
  <g id="img-16" transform="translate(632.096 7249.219)">
    <g id="Grupo_1100461" data-name="Grupo 1100461" transform="translate(-803.045 -9145.273)">
      <g transform="matrix(1, 0, 0, 1, 170.95, 1896.05)" filter="url(#Elipse_4909)">
        <circle id="Elipse_4909-2" data-name="Elipse 4909" cx="42.5" cy="42.5" r="42.5" transform="translate(9 6)" fill="#99f2ce"/>
      </g>
    </g>
    <g id="grafico-circular" transform="translate(-614.326 -7234.22)">
      <path id="Trazado_664264" data-name="Trazado 664264" d="M66.836,33.419A33.418,33.418,0,1,1,33.419,0,33.418,33.418,0,0,1,66.836,33.419Zm0,0" transform="translate(0 0)" fill="url(#linear-gradient)"/>
      <path id="Trazado_664265" data-name="Trazado 664265" d="M215.953,73.426l20.878-26.094a33.42,33.42,0,0,1,12.54,26.094Zm0,0" transform="translate(-182.534 -40.007)" fill="url(#linear-gradient-2)"/>
      <path id="Trazado_664266" data-name="Trazado 664266" d="M209.392,33.418l-1.2-33.4q.6-.022,1.2-.022a33.423,33.423,0,0,1,20.817,7.276Zm0,0" transform="translate(-175.974 0.001)" fill="url(#linear-gradient-3)"/>
      <path id="Trazado_664267" data-name="Trazado 664267" d="M33.419,33.521,13.851,60.612A33.419,33.419,0,0,1,32.3.121Zm0,0" transform="translate(0 -0.102)" fill="url(#linear-gradient-4)"/>
      <path id="Trazado_664268" data-name="Trazado 664268" d="M258.794,309.545H233.866a1.689,1.689,0,0,1-1.69-1.69v-32.1a1.69,1.69,0,0,1,1.69-1.69h39.923a1.69,1.69,0,0,1,1.69,1.69V292.86a4.129,4.129,0,0,1-1.21,2.92l-12.555,12.555a4.13,4.13,0,0,1-2.92,1.21Zm0,0" transform="translate(-196.247 -231.652)" fill="url(#linear-gradient-5)"/>
      <path id="Trazado_664269" data-name="Trazado 664269" d="M232.176,453.762v5.984a1.689,1.689,0,0,0,1.69,1.69h24.928a4.13,4.13,0,0,0,2.92-1.21l6.464-6.464Zm0,0" transform="translate(-196.247 -383.543)" fill="url(#linear-gradient-6)"/>
      <g id="Grupo_1013061" data-name="Grupo 1013061" transform="translate(43.062 48.313)">
        <path id="Trazado_664270" data-name="Trazado 664270" d="M278.273,312.2h29.035v2.33H278.273Zm0,0" transform="translate(-278.273 -312.199)" fill="#ff4974"/>
        <path id="Trazado_664271" data-name="Trazado 664271" d="M278.273,359.492h29.035v2.33H278.273Zm0,0" transform="translate(-278.273 -352.173)" fill="#ff4974"/>
        <path id="Trazado_664272" data-name="Trazado 664272" d="M278.273,406.785H295.2v2.33H278.273Zm0,0" transform="translate(-278.273 -392.148)" fill="#ff4974"/>
        <path id="Trazado_664273" data-name="Trazado 664273" d="M278.273,454.078H295.2v2.33H278.273Zm0,0" transform="translate(-278.273 -432.122)" fill="#ff4974"/>
      </g>
      <path id="Trazado_664274" data-name="Trazado 664274" d="M415.234,407.993v13.191a4.128,4.128,0,0,0,1.21-.838L429,407.792a4.13,4.13,0,0,0,.838-1.21H416.646A1.411,1.411,0,0,0,415.234,407.993Zm0,0" transform="translate(-350.977 -343.664)" fill="url(#linear-gradient-7)"/>
    </g>
  </g>
</svg>
