<svg xmlns="http://www.w3.org/2000/svg" xmlns:xlink="http://www.w3.org/1999/xlink" width="234" height="38.434" viewBox="0 0 234 38.434">
  <defs>
    <clipPath id="clip-path">
      <rect id="Rect치ngulo_401325" data-name="Rect치ngulo 401325" width="10.4" height="10.4" fill="#ff9751"/>
    </clipPath>
    <clipPath id="clip-path-2">
      <rect id="Rect치ngulo_401570" data-name="Rect치ngulo 401570" width="16.993" height="25.5" transform="translate(0 0)" fill="#02dd84"/>
    </clipPath>
  </defs>
  <g id="img-7" transform="translate(728.038 9671.645)">
    <g id="Trazado_875360" data-name="Trazado 875360" transform="translate(-720.106 -9671.645)" fill="none">
      <path d="M15,0H220.868V23.434a15,15,0,0,1-15,15H0V15A15,15,0,0,1,15,0Z" stroke="none"/>
      <path d="M 14.99998474121094 0.9999923706054688 C 11.26046752929688 0.9999923706054688 7.744735717773438 2.456241607666016 5.100494384765625 5.100490570068359 C 2.45623779296875 7.744770050048828 0.9999847412109375 11.26046371459961 0.9999847412109375 14.99999046325684 L 0.9999847412109375 37.43360137939453 L 205.8684997558594 37.43360137939453 C 209.6080169677734 37.43360137939453 213.1237182617188 35.97735214233398 215.7679901123047 33.33310317993164 C 218.4122467041016 30.68882369995117 219.8684997558594 27.17313003540039 219.8684997558594 23.43360137939453 L 219.8684997558594 0.9999923706054688 L 14.99998474121094 0.9999923706054688 M 14.99998474121094 -7.62939453125e-06 L 220.8684997558594 -7.62939453125e-06 L 220.8684997558594 23.43360137939453 C 220.8684997558594 31.71785354614258 214.1527404785156 38.43360137939453 205.8684997558594 38.43360137939453 L -1.52587890625e-05 38.43360137939453 L -1.52587890625e-05 14.99999046325684 C -1.52587890625e-05 6.715742111206055 6.715713500976562 -7.62939453125e-06 14.99998474121094 -7.62939453125e-06 Z" stroke="none" fill="#01927f"/>
    </g>
    <path id="Trazado_875361" data-name="Trazado 875361" d="M9.443,12.916H4.434v3.545h6.006V19H1.133V4.781h9.316V7.32H4.434v3.057h5.01Zm6.445-7.109V8.434h1.67v2.285h-1.67v4.844a1.185,1.185,0,0,0,.229.815.8.8,0,0,0,.62.249,3.318,3.318,0,0,0,.405-.02,3.509,3.509,0,0,0,.386-.078l.225,2.441a7.968,7.968,0,0,1-.9.181,7.236,7.236,0,0,1-.947.054,3.3,3.3,0,0,1-2.476-.869,3.836,3.836,0,0,1-.845-2.754V10.719H11.113V8.434h1.475V5.807ZM25.264,18.99a3.986,3.986,0,0,1-.317-.752,5.765,5.765,0,0,1-.2-.879,4.038,4.038,0,0,1-1.06,1.343,2.558,2.558,0,0,1-1.646.5,3.659,3.659,0,0,1-2.583-.854,3.019,3.019,0,0,1-.923-2.329,2.817,2.817,0,0,1,1.182-2.427A6.126,6.126,0,0,1,23.3,12.74h1.357v-.752a1.505,1.505,0,0,0-.322-1.035,1.255,1.255,0,0,0-.986-.361,1.19,1.19,0,0,0-.854.269,1.114,1.114,0,0,0-.278.835l-3.2-.01-.02-.059A2.756,2.756,0,0,1,20.2,9.21a5.4,5.4,0,0,1,3.364-.972,4.921,4.921,0,0,1,3.179.977,3.375,3.375,0,0,1,1.216,2.793v3.984a8.128,8.128,0,0,0,.142,1.563A8.368,8.368,0,0,0,28.525,19Zm-2.324-2.139a2.011,2.011,0,0,0,1.069-.283,1.621,1.621,0,0,0,.649-.674V14.5H23.33a1.492,1.492,0,0,0-1.143.381,1.37,1.37,0,0,0-.352.967.935.935,0,0,0,.308.728A1.141,1.141,0,0,0,22.939,16.852Zm16.611-2.91a6.243,6.243,0,0,1-1.074,3.823,3.556,3.556,0,0,1-3.027,1.44,2.882,2.882,0,0,1-2.383-1.143v5h-3.3V8.434h3.115l.1,1.152a3.211,3.211,0,0,1,1.05-1,2.757,2.757,0,0,1,1.4-.352,3.518,3.518,0,0,1,3.042,1.514,6.719,6.719,0,0,1,1.079,3.984Zm-3.291-.205a4.989,4.989,0,0,0-.391-2.148,1.3,1.3,0,0,0-1.25-.811,1.986,1.986,0,0,0-.942.205,1.513,1.513,0,0,0-.61.6v4.414a1.414,1.414,0,0,0,.62.508,2.411,2.411,0,0,0,.952.166,1.3,1.3,0,0,0,1.245-.718,4.388,4.388,0,0,0,.376-2.007Zm10.85,5.254a3.986,3.986,0,0,1-.317-.752,5.765,5.765,0,0,1-.2-.879,4.038,4.038,0,0,1-1.06,1.343,2.558,2.558,0,0,1-1.646.5,3.659,3.659,0,0,1-2.583-.854,3.019,3.019,0,0,1-.923-2.329,2.817,2.817,0,0,1,1.182-2.427,6.126,6.126,0,0,1,3.584-.854H46.5v-.752a1.505,1.505,0,0,0-.322-1.035,1.255,1.255,0,0,0-.986-.361,1.19,1.19,0,0,0-.854.269,1.114,1.114,0,0,0-.278.835l-3.2-.01-.02-.059A2.756,2.756,0,0,1,42.046,9.21a5.4,5.4,0,0,1,3.364-.972,4.921,4.921,0,0,1,3.179.977A3.375,3.375,0,0,1,49.8,12.008v3.984a8.128,8.128,0,0,0,.142,1.563A8.368,8.368,0,0,0,50.371,19Zm-2.324-2.139a2.011,2.011,0,0,0,1.069-.283,1.621,1.621,0,0,0,.649-.674V14.5H45.176a1.492,1.492,0,0,0-1.143.381,1.37,1.37,0,0,0-.352.967.935.935,0,0,0,.308.728A1.141,1.141,0,0,0,44.785,16.852Zm11.367-3.115a6.719,6.719,0,0,1,1.079-3.984,3.518,3.518,0,0,1,3.042-1.514,2.623,2.623,0,0,1,1.323.337,3.5,3.5,0,0,1,1.06.962V3.766h3.3V19H63.066l-.225-1.289a3.553,3.553,0,0,1-1.118,1.108,2.79,2.79,0,0,1-1.47.386,3.552,3.552,0,0,1-3.027-1.445,6.248,6.248,0,0,1-1.074-3.818Zm3.3.205a4.388,4.388,0,0,0,.376,2.007,1.314,1.314,0,0,0,1.265.718,2.081,2.081,0,0,0,.913-.19,1.636,1.636,0,0,0,.649-.562V11.646A1.8,1.8,0,0,0,62.012,11a1.77,1.77,0,0,0-.9-.225,1.317,1.317,0,0,0-1.27.811,4.989,4.989,0,0,0-.391,2.148ZM72.52,19.205a4.906,4.906,0,0,1-3.765-1.455,5.174,5.174,0,0,1-1.362-3.682V13.7a5.912,5.912,0,0,1,1.284-3.945,4.562,4.562,0,0,1,3.716-1.514,4.279,4.279,0,0,1,3.315,1.279,4.98,4.98,0,0,1,1.177,3.506v1.729H70.83l-.02.059a2.052,2.052,0,0,0,.615,1.343,2.148,2.148,0,0,0,1.543.513,6.687,6.687,0,0,0,1.577-.156,9.942,9.942,0,0,0,1.44-.5l.791,2.012a6.04,6.04,0,0,1-1.836.84A8.473,8.473,0,0,1,72.52,19.205Zm-.127-8.428a1.362,1.362,0,0,0-1.167.5,2.523,2.523,0,0,0-.435,1.362l.02.049h2.852v-.254a2.2,2.2,0,0,0-.288-1.24A1.1,1.1,0,0,0,72.393,10.777Zm20.654,3.164a6.243,6.243,0,0,1-1.074,3.823,3.556,3.556,0,0,1-3.027,1.44,2.882,2.882,0,0,1-2.383-1.143v5h-3.3V8.434h3.115l.1,1.152a3.211,3.211,0,0,1,1.05-1,2.757,2.757,0,0,1,1.4-.352,3.518,3.518,0,0,1,3.042,1.514,6.719,6.719,0,0,1,1.079,3.984Zm-3.291-.205a4.989,4.989,0,0,0-.391-2.148,1.3,1.3,0,0,0-1.25-.811,1.986,1.986,0,0,0-.942.205,1.513,1.513,0,0,0-.61.6v4.414a1.414,1.414,0,0,0,.62.508,2.411,2.411,0,0,0,.952.166,1.3,1.3,0,0,0,1.245-.718,4.388,4.388,0,0,0,.376-2.007Zm10.586-2.49-1.074-.01a1.829,1.829,0,0,0-.928.21,1.3,1.3,0,0,0-.537.591V19H94.5V8.434h3.105l.117,1.553A3.186,3.186,0,0,1,98.6,8.7a1.929,1.929,0,0,1,1.279-.459,2.454,2.454,0,0,1,.4.029,3.029,3.029,0,0,1,.371.088Zm5.713,7.959a4.906,4.906,0,0,1-3.765-1.455,5.174,5.174,0,0,1-1.362-3.682V13.7a5.912,5.912,0,0,1,1.284-3.945,4.562,4.562,0,0,1,3.716-1.514,4.279,4.279,0,0,1,3.315,1.279,4.98,4.98,0,0,1,1.177,3.506v1.729h-6.055l-.02.059a2.052,2.052,0,0,0,.615,1.343,2.148,2.148,0,0,0,1.543.513,6.687,6.687,0,0,0,1.577-.156,9.942,9.942,0,0,0,1.44-.5l.791,2.012a6.04,6.04,0,0,1-1.836.84A8.473,8.473,0,0,1,106.055,19.205Zm-.127-8.428a1.362,1.362,0,0,0-1.167.5,2.523,2.523,0,0,0-.435,1.362l.02.049H107.2v-.254a2.2,2.2,0,0,0-.288-1.24A1.1,1.1,0,0,0,105.928,10.777ZM121.6,13.941a6.243,6.243,0,0,1-1.074,3.823,3.556,3.556,0,0,1-3.027,1.44,2.882,2.882,0,0,1-2.383-1.143v5h-3.3V8.434h3.115l.1,1.152a3.211,3.211,0,0,1,1.05-1,2.757,2.757,0,0,1,1.4-.352,3.518,3.518,0,0,1,3.042,1.514,6.719,6.719,0,0,1,1.079,3.984Zm-3.291-.205a4.989,4.989,0,0,0-.391-2.148,1.3,1.3,0,0,0-1.25-.811,1.986,1.986,0,0,0-.942.205,1.513,1.513,0,0,0-.61.6v4.414a1.414,1.414,0,0,0,.62.508,2.411,2.411,0,0,0,.952.166,1.3,1.3,0,0,0,1.245-.718,4.388,4.388,0,0,0,.376-2.007Zm10.85,5.254a3.986,3.986,0,0,1-.317-.752,5.766,5.766,0,0,1-.2-.879,4.037,4.037,0,0,1-1.06,1.343,2.558,2.558,0,0,1-1.646.5,3.659,3.659,0,0,1-2.583-.854,3.019,3.019,0,0,1-.923-2.329,2.817,2.817,0,0,1,1.182-2.427,6.126,6.126,0,0,1,3.584-.854h1.357v-.752a1.505,1.505,0,0,0-.322-1.035,1.255,1.255,0,0,0-.986-.361,1.19,1.19,0,0,0-.854.269,1.114,1.114,0,0,0-.278.835l-3.2-.01-.02-.059A2.756,2.756,0,0,1,124.1,9.21a5.4,5.4,0,0,1,3.364-.972,4.921,4.921,0,0,1,3.179.977,3.375,3.375,0,0,1,1.216,2.793v3.984A8.128,8.128,0,0,0,132,17.555,8.369,8.369,0,0,0,132.422,19Zm-2.324-2.139a2.011,2.011,0,0,0,1.069-.283,1.621,1.621,0,0,0,.649-.674V14.5h-1.328a1.492,1.492,0,0,0-1.143.381,1.37,1.37,0,0,0-.352.967.935.935,0,0,0,.308.728A1.141,1.141,0,0,0,126.836,16.852ZM139.5,11.246l-1.074-.01a1.829,1.829,0,0,0-.928.21,1.3,1.3,0,0,0-.537.591V19h-3.3V8.434h3.105l.117,1.553a3.186,3.186,0,0,1,.879-1.289,1.929,1.929,0,0,1,1.279-.459,2.454,2.454,0,0,1,.4.029,3.028,3.028,0,0,1,.371.088Zm7.314,7.744a3.986,3.986,0,0,1-.317-.752,5.766,5.766,0,0,1-.2-.879,4.037,4.037,0,0,1-1.06,1.343,2.558,2.558,0,0,1-1.646.5,3.659,3.659,0,0,1-2.583-.854,3.019,3.019,0,0,1-.923-2.329,2.817,2.817,0,0,1,1.182-2.427,6.126,6.126,0,0,1,3.584-.854h1.357v-.752a1.505,1.505,0,0,0-.322-1.035,1.255,1.255,0,0,0-.986-.361,1.19,1.19,0,0,0-.854.269,1.114,1.114,0,0,0-.278.835l-3.2-.01-.02-.059a2.756,2.756,0,0,1,1.206-2.417,5.4,5.4,0,0,1,3.364-.972,4.921,4.921,0,0,1,3.179.977,3.375,3.375,0,0,1,1.216,2.793v3.984a8.128,8.128,0,0,0,.142,1.563A8.369,8.369,0,0,0,150.078,19Zm-2.324-2.139a2.011,2.011,0,0,0,1.069-.283,1.621,1.621,0,0,0,.649-.674V14.5h-1.328a1.492,1.492,0,0,0-1.143.381,1.37,1.37,0,0,0-.352.967.935.935,0,0,0,.308.728A1.141,1.141,0,0,0,144.492,16.852Zm11.348-.186a1.291,1.291,0,0,0,1.006-.366,1.526,1.526,0,0,0,.332-1.06h3.008l.02.059a3.469,3.469,0,0,1-1.2,2.817,4.616,4.616,0,0,1-3.169,1.089,4.675,4.675,0,0,1-3.716-1.489,5.679,5.679,0,0,1-1.3-3.882v-.225a5.7,5.7,0,0,1,1.3-3.877,4.64,4.64,0,0,1,3.7-1.494,4.545,4.545,0,0,1,3.218,1.118,3.857,3.857,0,0,1,1.167,3.062l-.02.059h-3.008a2.045,2.045,0,0,0-.342-1.226,1.172,1.172,0,0,0-1.016-.474,1.357,1.357,0,0,0-1.333.767,4.74,4.74,0,0,0-.376,2.065v.225a4.723,4.723,0,0,0,.376,2.08A1.378,1.378,0,0,0,155.84,16.666ZM165.01,19H161.7V8.434h3.311Zm0-13.018H161.7V3.766h3.311Zm1.582,7.637a5.585,5.585,0,0,1,1.348-3.882,5.477,5.477,0,0,1,7.529,0,5.585,5.585,0,0,1,1.348,3.882v.205a5.581,5.581,0,0,1-1.348,3.887,5.49,5.49,0,0,1-7.529,0,5.581,5.581,0,0,1-1.348-3.887Zm3.3.205a4.369,4.369,0,0,0,.415,2.085,1.477,1.477,0,0,0,1.411.757,1.459,1.459,0,0,0,1.387-.762,4.331,4.331,0,0,0,.42-2.08v-.205a4.347,4.347,0,0,0-.42-2.065,1.471,1.471,0,0,0-1.406-.776,1.45,1.45,0,0,0-1.392.781,4.4,4.4,0,0,0-.415,2.061ZM172.1,3.912h3.623l.02.059L173,6.51h-2.91Zm9.209,4.521.127,1.484a3.825,3.825,0,0,1,1.279-1.235,3.31,3.31,0,0,1,1.7-.444,2.979,2.979,0,0,1,2.427,1.055,5.218,5.218,0,0,1,.874,3.35V19h-3.3V12.633a2.421,2.421,0,0,0-.322-1.431,1.1,1.1,0,0,0-.937-.425,2.32,2.32,0,0,0-.947.186,1.891,1.891,0,0,0-.7.527V19h-3.291V8.434ZM193.193,19H189.9V16.227h3.291Zm0-8.555H189.9V7.672h3.291Z" transform="translate(-707.904 -9664.714)" fill="#12263f"/>
    <g id="Grupo_1099295" data-name="Grupo 1099295" transform="translate(-504.438 -9662.363)" clip-path="url(#clip-path)">
      <path id="Trazado_873887" data-name="Trazado 873887" d="M5.2,10.4A5.2,5.2,0,0,0,0,5.2,5.2,5.2,0,0,0,5.2,0a5.2,5.2,0,0,0,5.2,5.2,5.2,5.2,0,0,0-5.2,5.2" transform="translate(0 0)" fill="#ff9751"/>
    </g>
    <g id="Grupo_1100160" data-name="Grupo 1100160" transform="translate(-728.038 -9664.714)" clip-path="url(#clip-path-2)">
      <path id="Trazado_874970" data-name="Trazado 874970" d="M31.847,72.3h0a8.511,8.511,0,0,0,8.511-8.511A8.511,8.511,0,0,0,31.847,72.3Z" transform="translate(-23.366 -46.804)" fill="#02dd84"/>
      <path id="Trazado_874971" data-name="Trazado 874971" d="M31.847,40.407h0A8.511,8.511,0,0,0,40.358,31.9,8.511,8.511,0,0,0,31.847,40.407Z" transform="translate(-23.366 -23.402)" fill="#02dd84"/>
      <path id="Trazado_874972" data-name="Trazado 874972" d="M31.847,8.511h0A8.511,8.511,0,0,0,40.358,0,8.511,8.511,0,0,0,31.847,8.511Z" transform="translate(-23.366 0)" fill="#02dd84"/>
      <path id="Trazado_874973" data-name="Trazado 874973" d="M8.511,72.3h0A8.511,8.511,0,0,1,0,63.793,8.511,8.511,0,0,1,8.511,72.3Z" transform="translate(0 -46.804)" fill="#02dd84"/>
      <path id="Trazado_874974" data-name="Trazado 874974" d="M8.511,40.407h0A8.511,8.511,0,0,1,0,31.9,8.511,8.511,0,0,1,8.511,40.407Z" transform="translate(0 -23.402)" fill="#02dd84"/>
      <path id="Trazado_874975" data-name="Trazado 874975" d="M8.511,8.511h0A8.511,8.511,0,0,1,0,0,8.511,8.511,0,0,1,8.511,8.511Z" transform="translate(0 0)" fill="#02dd84"/>
    </g>
  </g>
</svg>
