<svg xmlns="http://www.w3.org/2000/svg" xmlns:xlink="http://www.w3.org/1999/xlink" width="215.2" height="38.434" viewBox="0 0 215.2 38.434">
  <defs>
    <clipPath id="clip-path">
      <rect id="Rect치ngulo_401325" data-name="Rect치ngulo 401325" width="10.4" height="10.4" fill="#ff9751"/>
    </clipPath>
    <clipPath id="clip-path-2">
      <rect id="Rect치ngulo_401570" data-name="Rect치ngulo 401570" width="16.993" height="25.5" transform="translate(0 0)" fill="#02dd84"/>
    </clipPath>
  </defs>
  <g id="img-8" transform="translate(728.038 9534.645)">
    <g id="Trazado_875362" data-name="Trazado 875362" transform="translate(-720.106 -9534.645)" fill="none">
      <path d="M15,0H202.068V23.434a15,15,0,0,1-15,15H0V15A15,15,0,0,1,15,0Z" stroke="none"/>
      <path d="M 15 1.000007629394531 C 11.26046752929688 1.000007629394531 7.744766235351562 2.456272125244141 5.100494384765625 5.100505828857422 C 2.456253051757812 7.744743347167969 1 11.26045417785645 1 15.00000762939453 L 1 37.43358612060547 L 187.068359375 37.43358612060547 C 190.8078918457031 37.43358612060547 194.3236083984375 35.97732162475586 196.9678649902344 33.33308792114258 C 199.6121063232422 30.68885040283203 201.068359375 27.17313766479492 201.068359375 23.43358612060547 L 201.068359375 1.000007629394531 L 15 1.000007629394531 M 15 7.62939453125e-06 L 202.068359375 7.62939453125e-06 L 202.068359375 23.43358612060547 C 202.068359375 31.71787643432617 195.3526306152344 38.43358612060547 187.068359375 38.43358612060547 L 0 38.43358612060547 L 0 15.00000762939453 C 0 6.715717315673828 6.715728759765625 7.62939453125e-06 15 7.62939453125e-06 Z" stroke="none" fill="#01927f"/>
    </g>
    <path id="Trazado_875363" data-name="Trazado 875363" d="M9.443,12.916H4.434v3.545h6.006V19H1.133V4.781h9.316V7.32H4.434v3.057h5.01Zm6.445-7.109V8.434h1.67v2.285h-1.67v4.844a1.185,1.185,0,0,0,.229.815.8.8,0,0,0,.62.249,3.318,3.318,0,0,0,.405-.02,3.509,3.509,0,0,0,.386-.078l.225,2.441a7.968,7.968,0,0,1-.9.181,7.236,7.236,0,0,1-.947.054,3.3,3.3,0,0,1-2.476-.869,3.836,3.836,0,0,1-.845-2.754V10.719H11.113V8.434h1.475V5.807ZM25.264,18.99a3.986,3.986,0,0,1-.317-.752,5.765,5.765,0,0,1-.2-.879,4.038,4.038,0,0,1-1.06,1.343,2.558,2.558,0,0,1-1.646.5,3.659,3.659,0,0,1-2.583-.854,3.019,3.019,0,0,1-.923-2.329,2.817,2.817,0,0,1,1.182-2.427A6.126,6.126,0,0,1,23.3,12.74h1.357v-.752a1.505,1.505,0,0,0-.322-1.035,1.255,1.255,0,0,0-.986-.361,1.19,1.19,0,0,0-.854.269,1.114,1.114,0,0,0-.278.835l-3.2-.01-.02-.059A2.756,2.756,0,0,1,20.2,9.21a5.4,5.4,0,0,1,3.364-.972,4.921,4.921,0,0,1,3.179.977,3.375,3.375,0,0,1,1.216,2.793v3.984a8.128,8.128,0,0,0,.142,1.563A8.368,8.368,0,0,0,28.525,19Zm-2.324-2.139a2.011,2.011,0,0,0,1.069-.283,1.621,1.621,0,0,0,.649-.674V14.5H23.33a1.492,1.492,0,0,0-1.143.381,1.37,1.37,0,0,0-.352.967.935.935,0,0,0,.308.728A1.141,1.141,0,0,0,22.939,16.852Zm16.611-2.91a6.243,6.243,0,0,1-1.074,3.823,3.556,3.556,0,0,1-3.027,1.44,2.882,2.882,0,0,1-2.383-1.143v5h-3.3V8.434h3.115l.1,1.152a3.211,3.211,0,0,1,1.05-1,2.757,2.757,0,0,1,1.4-.352,3.518,3.518,0,0,1,3.042,1.514,6.719,6.719,0,0,1,1.079,3.984Zm-3.291-.205a4.989,4.989,0,0,0-.391-2.148,1.3,1.3,0,0,0-1.25-.811,1.986,1.986,0,0,0-.942.205,1.513,1.513,0,0,0-.61.6v4.414a1.414,1.414,0,0,0,.62.508,2.411,2.411,0,0,0,.952.166,1.3,1.3,0,0,0,1.245-.718,4.388,4.388,0,0,0,.376-2.007Zm10.85,5.254a3.986,3.986,0,0,1-.317-.752,5.765,5.765,0,0,1-.2-.879,4.038,4.038,0,0,1-1.06,1.343,2.558,2.558,0,0,1-1.646.5,3.659,3.659,0,0,1-2.583-.854,3.019,3.019,0,0,1-.923-2.329,2.817,2.817,0,0,1,1.182-2.427,6.126,6.126,0,0,1,3.584-.854H46.5v-.752a1.505,1.505,0,0,0-.322-1.035,1.255,1.255,0,0,0-.986-.361,1.19,1.19,0,0,0-.854.269,1.114,1.114,0,0,0-.278.835l-3.2-.01-.02-.059A2.756,2.756,0,0,1,42.046,9.21a5.4,5.4,0,0,1,3.364-.972,4.921,4.921,0,0,1,3.179.977A3.375,3.375,0,0,1,49.8,12.008v3.984a8.128,8.128,0,0,0,.142,1.563A8.368,8.368,0,0,0,50.371,19Zm-2.324-2.139a2.011,2.011,0,0,0,1.069-.283,1.621,1.621,0,0,0,.649-.674V14.5H45.176a1.492,1.492,0,0,0-1.143.381,1.37,1.37,0,0,0-.352.967.935.935,0,0,0,.308.728A1.141,1.141,0,0,0,44.785,16.852Zm11.367-3.115a6.719,6.719,0,0,1,1.079-3.984,3.518,3.518,0,0,1,3.042-1.514,2.623,2.623,0,0,1,1.323.337,3.5,3.5,0,0,1,1.06.962V3.766h3.3V19H63.066l-.225-1.289a3.553,3.553,0,0,1-1.118,1.108,2.79,2.79,0,0,1-1.47.386,3.552,3.552,0,0,1-3.027-1.445,6.248,6.248,0,0,1-1.074-3.818Zm3.3.205a4.388,4.388,0,0,0,.376,2.007,1.314,1.314,0,0,0,1.265.718,2.081,2.081,0,0,0,.913-.19,1.636,1.636,0,0,0,.649-.562V11.646A1.8,1.8,0,0,0,62.012,11a1.77,1.77,0,0,0-.9-.225,1.317,1.317,0,0,0-1.27.811,4.989,4.989,0,0,0-.391,2.148ZM72.52,19.205a4.906,4.906,0,0,1-3.765-1.455,5.174,5.174,0,0,1-1.362-3.682V13.7a5.912,5.912,0,0,1,1.284-3.945,4.562,4.562,0,0,1,3.716-1.514,4.279,4.279,0,0,1,3.315,1.279,4.98,4.98,0,0,1,1.177,3.506v1.729H70.83l-.02.059a2.052,2.052,0,0,0,.615,1.343,2.148,2.148,0,0,0,1.543.513,6.687,6.687,0,0,0,1.577-.156,9.942,9.942,0,0,0,1.44-.5l.791,2.012a6.04,6.04,0,0,1-1.836.84A8.473,8.473,0,0,1,72.52,19.205Zm-.127-8.428a1.362,1.362,0,0,0-1.167.5,2.523,2.523,0,0,0-.435,1.362l.02.049h2.852v-.254a2.2,2.2,0,0,0-.288-1.24A1.1,1.1,0,0,0,72.393,10.777Zm15.557,8.428a4.906,4.906,0,0,1-3.765-1.455,5.174,5.174,0,0,1-1.362-3.682V13.7a5.912,5.912,0,0,1,1.284-3.945,4.562,4.562,0,0,1,3.716-1.514,4.279,4.279,0,0,1,3.315,1.279,4.98,4.98,0,0,1,1.177,3.506v1.729H86.26l-.02.059a2.052,2.052,0,0,0,.615,1.343,2.148,2.148,0,0,0,1.543.513,6.687,6.687,0,0,0,1.577-.156,9.942,9.942,0,0,0,1.44-.5l.791,2.012a6.04,6.04,0,0,1-1.836.84A8.473,8.473,0,0,1,87.949,19.205Zm-.127-8.428a1.362,1.362,0,0,0-1.167.5,2.523,2.523,0,0,0-.435,1.362l.02.049h2.852v-.254A2.2,2.2,0,0,0,88.8,11.2,1.1,1.1,0,0,0,87.822,10.777Zm9.385-2.344V19.146a4.155,4.155,0,0,1-1.06,3.047A3.948,3.948,0,0,1,93.2,23.268a7.254,7.254,0,0,1-.786-.039,7.656,7.656,0,0,1-.767-.127l.137-2.49q.283.059.483.088a3.573,3.573,0,0,0,.5.029.965.965,0,0,0,.835-.4,2.015,2.015,0,0,0,.288-1.182V8.434Zm-.059-2.461H93.838V3.766h3.311Zm6.6,13.232a4.906,4.906,0,0,1-3.765-1.455,5.174,5.174,0,0,1-1.362-3.682V13.7a5.912,5.912,0,0,1,1.284-3.945,4.562,4.562,0,0,1,3.716-1.514,4.279,4.279,0,0,1,3.315,1.279,4.98,4.98,0,0,1,1.177,3.506v1.729h-6.055l-.02.059a2.052,2.052,0,0,0,.615,1.343,2.148,2.148,0,0,0,1.543.513,6.687,6.687,0,0,0,1.577-.156,9.942,9.942,0,0,0,1.44-.5l.791,2.012a6.04,6.04,0,0,1-1.836.84A8.473,8.473,0,0,1,103.75,19.205Zm-.127-8.428a1.362,1.362,0,0,0-1.167.5,2.523,2.523,0,0,0-.435,1.362l.02.049h2.852v-.254a2.2,2.2,0,0,0-.288-1.24A1.1,1.1,0,0,0,103.623,10.777Zm10.41,5.889a1.291,1.291,0,0,0,1.006-.366,1.526,1.526,0,0,0,.332-1.06h3.008l.02.059a3.469,3.469,0,0,1-1.2,2.817,4.616,4.616,0,0,1-3.169,1.089,4.675,4.675,0,0,1-3.716-1.489,5.679,5.679,0,0,1-1.3-3.882v-.225a5.7,5.7,0,0,1,1.3-3.877,4.64,4.64,0,0,1,3.7-1.494,4.545,4.545,0,0,1,3.218,1.118,3.857,3.857,0,0,1,1.167,3.062l-.02.059h-3.008a2.045,2.045,0,0,0-.342-1.226,1.172,1.172,0,0,0-1.016-.474,1.357,1.357,0,0,0-1.333.767,4.741,4.741,0,0,0-.376,2.065v.225a4.723,4.723,0,0,0,.376,2.08A1.378,1.378,0,0,0,114.033,16.666Zm12.08.752a3.473,3.473,0,0,1-1.216,1.323,3.2,3.2,0,0,1-1.724.464,3.129,3.129,0,0,1-2.573-1.152,5.618,5.618,0,0,1-.933-3.564V8.434h3.291v6.074a3.2,3.2,0,0,0,.317,1.7,1.111,1.111,0,0,0,.981.459,2.694,2.694,0,0,0,.928-.146,1.793,1.793,0,0,0,.684-.439V8.434h3.3V19h-2.656Zm9.395-.752a1.291,1.291,0,0,0,1.006-.366,1.526,1.526,0,0,0,.332-1.06h3.008l.02.059a3.469,3.469,0,0,1-1.2,2.817,4.616,4.616,0,0,1-3.169,1.089,4.675,4.675,0,0,1-3.716-1.489,5.679,5.679,0,0,1-1.3-3.882v-.225a5.7,5.7,0,0,1,1.3-3.877,4.64,4.64,0,0,1,3.7-1.494,4.545,4.545,0,0,1,3.218,1.118,3.857,3.857,0,0,1,1.167,3.062l-.02.059h-3.008a2.045,2.045,0,0,0-.342-1.226,1.172,1.172,0,0,0-1.016-.474,1.357,1.357,0,0,0-1.333.767,4.74,4.74,0,0,0-.376,2.065v.225a4.723,4.723,0,0,0,.376,2.08A1.378,1.378,0,0,0,135.508,16.666ZM144.678,19h-3.311V8.434h3.311Zm0-13.018h-3.311V3.766h3.311Zm1.582,7.637a5.585,5.585,0,0,1,1.348-3.882,5.477,5.477,0,0,1,7.529,0,5.585,5.585,0,0,1,1.348,3.882v.205a5.581,5.581,0,0,1-1.348,3.887,5.49,5.49,0,0,1-7.529,0,5.581,5.581,0,0,1-1.348-3.887Zm3.3.205a4.369,4.369,0,0,0,.415,2.085,1.477,1.477,0,0,0,1.411.757,1.459,1.459,0,0,0,1.387-.762,4.331,4.331,0,0,0,.42-2.08v-.205a4.347,4.347,0,0,0-.42-2.065,1.471,1.471,0,0,0-1.406-.776,1.45,1.45,0,0,0-1.392.781,4.4,4.4,0,0,0-.415,2.061Zm2.207-9.912h3.623l.02.059L152.666,6.51h-2.91Zm9.209,4.521.127,1.484a3.825,3.825,0,0,1,1.279-1.235,3.31,3.31,0,0,1,1.7-.444,2.979,2.979,0,0,1,2.427,1.055,5.218,5.218,0,0,1,.874,3.35V19h-3.3V12.633a2.421,2.421,0,0,0-.322-1.431,1.1,1.1,0,0,0-.937-.425,2.32,2.32,0,0,0-.947.186,1.891,1.891,0,0,0-.7.527V19h-3.291V8.434ZM172.861,19H169.57V16.227h3.291Zm0-8.555H169.57V7.672h3.291Z" transform="translate(-707.904 -9527.714)" fill="#12263f"/>
    <g id="Grupo_1099726" data-name="Grupo 1099726" transform="translate(-523.238 -9525.363)">
      <g id="Grupo_1099295" data-name="Grupo 1099295" transform="translate(0 0)" clip-path="url(#clip-path)">
        <path id="Trazado_873887" data-name="Trazado 873887" d="M5.2,10.4A5.2,5.2,0,0,0,0,5.2,5.2,5.2,0,0,0,5.2,0a5.2,5.2,0,0,0,5.2,5.2,5.2,5.2,0,0,0-5.2,5.2" transform="translate(0 0)" fill="#ff9751"/>
      </g>
    </g>
    <g id="Grupo_1100161" data-name="Grupo 1100161" transform="translate(-728.038 -9527.714)">
      <g id="Grupo_1100160" data-name="Grupo 1100160" clip-path="url(#clip-path-2)">
        <path id="Trazado_874970" data-name="Trazado 874970" d="M31.847,72.3h0a8.511,8.511,0,0,0,8.511-8.511A8.511,8.511,0,0,0,31.847,72.3Z" transform="translate(-23.366 -46.804)" fill="#02dd84"/>
        <path id="Trazado_874971" data-name="Trazado 874971" d="M31.847,40.407h0A8.511,8.511,0,0,0,40.358,31.9,8.511,8.511,0,0,0,31.847,40.407Z" transform="translate(-23.366 -23.402)" fill="#02dd84"/>
        <path id="Trazado_874972" data-name="Trazado 874972" d="M31.847,8.511h0A8.511,8.511,0,0,0,40.358,0,8.511,8.511,0,0,0,31.847,8.511Z" transform="translate(-23.366 0)" fill="#02dd84"/>
        <path id="Trazado_874973" data-name="Trazado 874973" d="M8.511,72.3h0A8.511,8.511,0,0,1,0,63.793,8.511,8.511,0,0,1,8.511,72.3Z" transform="translate(0 -46.804)" fill="#02dd84"/>
        <path id="Trazado_874974" data-name="Trazado 874974" d="M8.511,40.407h0A8.511,8.511,0,0,1,0,31.9,8.511,8.511,0,0,1,8.511,40.407Z" transform="translate(0 -23.402)" fill="#02dd84"/>
        <path id="Trazado_874975" data-name="Trazado 874975" d="M8.511,8.511h0A8.511,8.511,0,0,1,0,0,8.511,8.511,0,0,1,8.511,8.511Z" transform="translate(0 0)" fill="#02dd84"/>
      </g>
    </g>
  </g>
</svg>
