<svg xmlns="http://www.w3.org/2000/svg" xmlns:xlink="http://www.w3.org/1999/xlink" width="103" height="103" viewBox="0 0 103 103">
  <defs>
    <filter id="Elipse_4909" x="0" y="0" width="103" height="103" filterUnits="userSpaceOnUse">
      <feOffset dy="3" input="SourceAlpha"/>
      <feGaussianBlur stdDeviation="3" result="blur"/>
      <feFlood flood-opacity="0.161"/>
      <feComposite operator="in" in2="blur"/>
      <feComposite in="SourceGraphic"/>
    </filter>
  </defs>
  <g id="img-17" transform="translate(317.045 7251.273)">
    <g id="Grupo_1100462" data-name="Grupo 1100462" transform="translate(-488.045 -9145.273)">
      <g transform="matrix(1, 0, 0, 1, 171, 1894)" filter="url(#Elipse_4909)">
        <circle id="Elipse_4909-2" data-name="Elipse 4909" cx="42.5" cy="42.5" r="42.5" transform="translate(9 6)" fill="#99f2ce"/>
      </g>
      <g id="dinero" transform="translate(189.75 1909)">
        <path id="Trazado_664231" data-name="Trazado 664231" d="M64.429,5.5A34.256,34.256,0,0,0,49.111,9.094h0L34.933,57.613A34.4,34.4,0,1,0,64.429,5.5Z" transform="translate(-30.028 -5.501)" fill="#3b3868"/>
        <path id="Trazado_664232" data-name="Trazado 664232" d="M124.534,31.092h-49.8A34.516,34.516,0,0,0,64.747,38.6h52.464a2.773,2.773,0,0,1,2.77,2.77V72.343h4.553a3.018,3.018,0,0,0,3.014-3.014V34.106A3.017,3.017,0,0,0,124.534,31.092Z" transform="translate(-55.656 -27.499)" fill="#49ce8b"/>
        <path id="Trazado_664233" data-name="Trazado 664233" d="M78.843,31.092h-4.1A34.516,34.516,0,0,0,64.747,38.6H81.034a1.043,1.043,0,0,0-.33-.517,2.366,2.366,0,0,1-.752-2.647,1.071,1.071,0,0,0-.346-1.129,2.5,2.5,0,0,1-.823-2.855A1.123,1.123,0,0,0,78.843,31.092Z" transform="translate(-55.656 -27.499)" fill="#36b277"/>
        <path id="Trazado_664234" data-name="Trazado 664234" d="M122.682,57.166H68.929a34.6,34.6,0,0,0-4.182,3.851h52.464a2.773,2.773,0,0,1,2.77,2.77V91.094h2.7a1.2,1.2,0,0,0,1.2-1.2V58.37a1.2,1.2,0,0,0-1.2-1.2Z" transform="translate(-55.656 -49.911)" fill="#36b277"/>
        <path id="Trazado_664235" data-name="Trazado 664235" d="M64.747,61.018H81.034a1.043,1.043,0,0,0-.33-.517,2.366,2.366,0,0,1-.752-2.647,1.046,1.046,0,0,0-.031-.688H68.929A34.591,34.591,0,0,0,64.747,61.018Z" transform="translate(-55.656 -49.912)" fill="#279b61"/>
        <path id="Trazado_664236" data-name="Trazado 664236" d="M418.317,57.166H408.8a9.332,9.332,0,0,0,.164,3.851h3.88a2.773,2.773,0,0,1,2.77,2.77v3.919a9.319,9.319,0,0,0,3.906.179V58.37A1.2,1.2,0,0,0,418.317,57.166Z" transform="translate(-351.29 -49.911)" fill="#279b61"/>
        <path id="Trazado_664237" data-name="Trazado 664237" d="M61.556,82.855H9.317a34.409,34.409,0,0,0-4.412,41.251h56.65a3.018,3.018,0,0,0,3.014-3.014V85.869A3.018,3.018,0,0,0,61.556,82.855Z" transform="translate(0 -71.993)" fill="#49ce8b"/>
        <path id="Trazado_664238" data-name="Trazado 664238" d="M0,106.395a34.24,34.24,0,0,0,4.905,17.711H29.25v-6.712a1.381,1.381,0,0,0-.505-1.05A1.52,1.52,0,0,1,28.2,115.1a1.417,1.417,0,0,0-.6-1.2,2.7,2.7,0,0,1-1.168-2.481,1.374,1.374,0,0,0-.061-.532l-.141-.444a1.389,1.389,0,0,1,.087-1.057c.66-1.282,2.1-4.74-.89-5.906A4.412,4.412,0,0,1,22.5,98.995a1.38,1.38,0,0,0-.6-1.186,3.624,3.624,0,0,1-1.7-3.354,1.4,1.4,0,0,0-.861-1.376,4.952,4.952,0,0,1-2.989-5.819,1.388,1.388,0,0,0-.392-1.226,2.7,2.7,0,0,1-.881-2.177,1.386,1.386,0,0,0-.324-1H9.317A34.276,34.276,0,0,0,0,106.395Z" transform="translate(0 -71.993)" fill="#36b277"/>
        <path id="Trazado_664239" data-name="Trazado 664239" d="M59.7,108.93H6.323a34.435,34.435,0,0,0-3.33,33.928H59.7a1.2,1.2,0,0,0,1.2-1.2V110.134A1.2,1.2,0,0,0,59.7,108.93Z" transform="translate(0 -94.407)" fill="#36b277"/>
        <g id="Grupo_1013054" data-name="Grupo 1013054" transform="translate(0 14.523)">
          <path id="Trazado_664240" data-name="Trazado 664240" d="M0,128.807a34.271,34.271,0,0,0,2.993,14.05H29.25v-3.051a1.381,1.381,0,0,0-.505-1.05,1.52,1.52,0,0,1-.546-1.242,1.417,1.417,0,0,0-.6-1.2,2.7,2.7,0,0,1-1.168-2.481,1.374,1.374,0,0,0-.061-.532l-.141-.444a1.389,1.389,0,0,1,.087-1.057c.66-1.282,2.1-4.74-.89-5.906a4.412,4.412,0,0,1-2.919-4.486,1.38,1.38,0,0,0-.6-1.186,3.624,3.624,0,0,1-1.7-3.354,1.4,1.4,0,0,0-.861-1.376,4.952,4.952,0,0,1-2.989-5.819,1.363,1.363,0,0,0-.078-.743H6.323A34.239,34.239,0,0,0,0,128.807Z" transform="translate(0 -108.929)" fill="#279b61"/>
          <path id="Trazado_664241" data-name="Trazado 664241" d="M367.371,110.135v9.515a9.313,9.313,0,0,1-10.72-10.72h9.516A1.2,1.2,0,0,1,367.371,110.135Z" transform="translate(-306.463 -108.931)" fill="#279b61"/>
          <path id="Trazado_664242" data-name="Trazado 664242" d="M367.371,282.95v-9.515a9.313,9.313,0,0,0-10.72,10.72h9.516A1.2,1.2,0,0,0,367.371,282.95Z" transform="translate(-306.463 -250.226)" fill="#279b61"/>
          <circle id="Elipse_7761" data-name="Elipse 7761" cx="11.228" cy="11.228" r="11.228" transform="translate(14.195 5.736)" fill="#279b61"/>
        </g>
        <path id="Trazado_664243" data-name="Trazado 664243" d="M114.5,179.972a2.7,2.7,0,0,1-1.168-2.481,1.374,1.374,0,0,0-.061-.532l-.141-.444a1.389,1.389,0,0,1,.087-1.057c.66-1.282,2.1-4.74-.89-5.906a4.412,4.412,0,0,1-2.919-4.486,1.38,1.38,0,0,0-.6-1.186,3.624,3.624,0,0,1-1.7-3.354,1.385,1.385,0,0,0-.2-.808,11.227,11.227,0,0,0,8.032,20.752A1.41,1.41,0,0,0,114.5,179.972Z" transform="translate(-86.899 -138.064)" fill="#1c8c51"/>
        <circle id="Elipse_7762" data-name="Elipse 7762" cx="13.701" cy="13.701" r="13.701" transform="translate(40.757 68.578) rotate(-82.875)" fill="#ffdd40"/>
        <path id="Trazado_664244" data-name="Trazado 664244" d="M301.57,335.572a13.7,13.7,0,0,0,23.136,9.928.435.435,0,0,0-.229-.1,1.014,1.014,0,0,1-1.014-1.052.442.442,0,0,0-.336-.427,1.329,1.329,0,0,1-1.116-1.336.433.433,0,0,0-.357-.413c-3.351-.643-3.139-3.257-3.055-3.811a.433.433,0,0,0-.027-.232c-.165-.4-.858-1.641-3.3-2.554-2.388-.892-2.448-3.418-2.384-4.341a.439.439,0,0,0-.3-.443,2.727,2.727,0,0,1-1.779-3.187.44.44,0,0,0-.3-.476,1.335,1.335,0,0,1-.895-1.6.423.423,0,0,0-.254-.455,1.129,1.129,0,0,1-.664-1.207.44.44,0,0,0-.068-.271A13.7,13.7,0,0,0,301.57,335.572Z" transform="translate(-259.225 -278.925)" fill="#ffb332"/>
        <circle id="Elipse_7763" data-name="Elipse 7763" cx="9.431" cy="9.431" r="9.431" transform="translate(42.698 56.647) rotate(-45)" fill="#fceca9"/>
        <path id="Trazado_664245" data-name="Trazado 664245" d="M348.022,365.015a.445.445,0,0,0-.231-.124c-3.351-.643-3.139-3.256-3.055-3.811a.433.433,0,0,0-.027-.232c-.165-.4-.858-1.641-3.3-2.554-2.388-.892-2.448-3.418-2.384-4.341a.439.439,0,0,0-.3-.443,2.728,2.728,0,0,1-1.779-3.187.428.428,0,0,0-.069-.3,9.431,9.431,0,1,0,11.148,14.991Z" transform="translate(-285.362 -301.648)" fill="#ffdd40"/>
        <path id="Trazado_664246" data-name="Trazado 664246" d="M327.035,327.388a9.431,9.431,0,1,1-9.431,9.431,9.431,9.431,0,0,1,9.431-9.431m0-2.348a11.779,11.779,0,1,0,11.779,11.779A11.792,11.792,0,0,0,327.035,325.04Z" transform="translate(-270.99 -280.172)" fill="#ffb332"/>
        <path id="Trazado_664247" data-name="Trazado 664247" d="M327.036,357.623a11.733,11.733,0,0,0,8.114-3.253.439.439,0,0,0-.258-.18,1.329,1.329,0,0,1-1.116-1.336.419.419,0,0,0-.126-.289A9.431,9.431,0,1,1,322.5,337.574a.454.454,0,0,0-.228-.176,1.335,1.335,0,0,1-.895-1.6.414.414,0,0,0-.041-.255,11.776,11.776,0,0,0,5.7,22.083Z" transform="translate(-270.99 -289.198)" fill="#ff9100"/>
        <circle id="Elipse_7764" data-name="Elipse 7764" cx="13.701" cy="13.701" r="13.701" transform="translate(32.269 42.946)" fill="#ffdd40"/>
        <path id="Trazado_664248" data-name="Trazado 664248" d="M229.81,335.572a13.7,13.7,0,0,0,23.136,9.928.435.435,0,0,0-.229-.1,1.014,1.014,0,0,1-1.014-1.052.442.442,0,0,0-.336-.427,1.329,1.329,0,0,1-1.116-1.336.434.434,0,0,0-.357-.413c-3.351-.643-3.139-3.257-3.055-3.811a.433.433,0,0,0-.027-.232c-.165-.4-.858-1.641-3.3-2.554-2.388-.892-2.448-3.418-2.385-4.341a.439.439,0,0,0-.3-.443,2.728,2.728,0,0,1-1.779-3.187.44.44,0,0,0-.3-.476,1.335,1.335,0,0,1-.895-1.6.423.423,0,0,0-.254-.455,1.129,1.129,0,0,1-.664-1.207.44.44,0,0,0-.068-.271A13.7,13.7,0,0,0,229.81,335.572Z" transform="translate(-197.541 -278.925)" fill="#ffb332"/>
        <ellipse id="Elipse_7765" data-name="Elipse 7765" cx="9.431" cy="9.431" rx="9.431" ry="9.431" transform="translate(33.557 61.517) rotate(-66.485)" fill="#fceca9"/>
        <path id="Trazado_664249" data-name="Trazado 664249" d="M276.262,365.015a.445.445,0,0,0-.231-.124c-3.351-.643-3.139-3.256-3.055-3.811a.432.432,0,0,0-.027-.232c-.165-.4-.858-1.641-3.3-2.554-2.388-.892-2.448-3.418-2.384-4.341a.439.439,0,0,0-.3-.443,2.728,2.728,0,0,1-1.779-3.187.429.429,0,0,0-.069-.3,9.431,9.431,0,1,0,11.148,14.991Z" transform="translate(-223.678 -301.648)" fill="#ffdd40"/>
        <path id="Trazado_664250" data-name="Trazado 664250" d="M255.275,327.388a9.431,9.431,0,1,1-9.431,9.431,9.431,9.431,0,0,1,9.431-9.431m0-2.348a11.779,11.779,0,1,0,11.779,11.779A11.792,11.792,0,0,0,255.275,325.04Z" transform="translate(-209.306 -280.172)" fill="#ffb332"/>
        <path id="Trazado_664251" data-name="Trazado 664251" d="M255.276,357.623a11.734,11.734,0,0,0,8.114-3.253.439.439,0,0,0-.258-.18,1.329,1.329,0,0,1-1.116-1.336.42.42,0,0,0-.126-.289,9.431,9.431,0,1,1-11.148-14.991.455.455,0,0,0-.228-.176,1.335,1.335,0,0,1-.895-1.6.414.414,0,0,0-.041-.255,11.776,11.776,0,0,0,5.7,22.083Z" transform="translate(-209.307 -289.198)" fill="#ff9100"/>
        <circle id="Elipse_7766" data-name="Elipse 7766" cx="13.701" cy="13.701" r="13.701" transform="matrix(0.128, -0.992, 0.992, 0.128, 20.569, 68.493)" fill="#ffdd40"/>
        <path id="Trazado_664252" data-name="Trazado 664252" d="M158.05,335.572a13.7,13.7,0,0,0,23.136,9.928.436.436,0,0,0-.229-.1,1.014,1.014,0,0,1-1.014-1.052.442.442,0,0,0-.336-.427,1.329,1.329,0,0,1-1.116-1.336.433.433,0,0,0-.357-.413c-3.351-.643-3.139-3.257-3.055-3.811a.433.433,0,0,0-.027-.232c-.165-.4-.858-1.641-3.3-2.554-2.388-.892-2.448-3.418-2.385-4.341a.439.439,0,0,0-.3-.443,2.728,2.728,0,0,1-1.779-3.187.44.44,0,0,0-.3-.476,1.335,1.335,0,0,1-.895-1.6.423.423,0,0,0-.254-.455,1.129,1.129,0,0,1-.664-1.207.441.441,0,0,0-.068-.271,13.7,13.7,0,0,0-7.058,11.983Z" transform="translate(-135.858 -278.925)" fill="#ffb332"/>
        <circle id="Elipse_7767" data-name="Elipse 7767" cx="9.431" cy="9.431" r="9.431" transform="translate(22.548 56.645) rotate(-45)" fill="#fceca9"/>
        <path id="Trazado_664253" data-name="Trazado 664253" d="M204.5,365.015a.445.445,0,0,0-.231-.124c-3.351-.643-3.139-3.256-3.055-3.811a.432.432,0,0,0-.027-.232c-.165-.4-.858-1.641-3.3-2.554-2.388-.892-2.448-3.418-2.385-4.341a.439.439,0,0,0-.3-.443,2.728,2.728,0,0,1-1.779-3.187.428.428,0,0,0-.069-.3A9.431,9.431,0,1,0,204.5,365.015Z" transform="translate(-161.994 -301.648)" fill="#ffdd40"/>
        <path id="Trazado_664254" data-name="Trazado 664254" d="M183.515,327.388a9.431,9.431,0,1,1-9.431,9.431,9.431,9.431,0,0,1,9.431-9.431m0-2.348a11.779,11.779,0,1,0,11.779,11.779A11.792,11.792,0,0,0,183.515,325.04Z" transform="translate(-147.622 -280.172)" fill="#ffb332"/>
        <path id="Trazado_664255" data-name="Trazado 664255" d="M183.516,357.623a11.733,11.733,0,0,0,8.114-3.253.439.439,0,0,0-.258-.18,1.329,1.329,0,0,1-1.116-1.336.42.42,0,0,0-.126-.289,9.431,9.431,0,1,1-11.148-14.991.455.455,0,0,0-.228-.176,1.335,1.335,0,0,1-.895-1.6.414.414,0,0,0-.041-.255,11.776,11.776,0,0,0,5.7,22.083Z" transform="translate(-147.623 -289.198)" fill="#ff9100"/>
        <g id="Grupo_1013055" data-name="Grupo 1013055" transform="translate(34.719 59.867)">
          <path id="Trazado_664256" data-name="Trazado 664256" d="M248.437,435.747a1.174,1.174,0,0,1-1.174-1.174v-1.54a1.174,1.174,0,1,1,2.348,0v1.54A1.174,1.174,0,0,1,248.437,435.747Z" transform="translate(-247.263 -431.859)" fill="#ff9100"/>
        </g>
        <g id="Grupo_1013056" data-name="Grupo 1013056" transform="translate(34.719 49.539)">
          <path id="Trazado_664257" data-name="Trazado 664257" d="M248.437,362.1a1.174,1.174,0,0,1-1.174-1.174V359.48a1.174,1.174,0,0,1,2.348,0v1.443A1.174,1.174,0,0,1,248.437,362.1Z" transform="translate(-247.263 -358.306)" fill="#ff9100"/>
        </g>
        <g id="Grupo_1013057" data-name="Grupo 1013057" transform="translate(32.499 50.982)">
          <path id="Trazado_664258" data-name="Trazado 664258" d="M234.7,379.818a4.253,4.253,0,0,1-2.719-.775,1.174,1.174,0,0,1,1.285-1.965,2.056,2.056,0,0,0,1.517.392,1.091,1.091,0,0,0,1.091-.927.759.759,0,0,0-.574-.913l-.024-.009-1.687-.637a3.1,3.1,0,0,1-2.094-3.511,3.455,3.455,0,0,1,3.391-2.886,4.32,4.32,0,0,1,2.818.775,1.174,1.174,0,0,1-1.285,1.965,2.052,2.052,0,0,0-1.517-.392,1.091,1.091,0,0,0-1.091.927.759.759,0,0,0,.574.913l.024.009,1.687.637a3.1,3.1,0,0,1,2.094,3.511,3.455,3.455,0,0,1-3.391,2.886Z" transform="translate(-231.448 -368.586)" fill="#ffb332"/>
        </g>
        <path id="Trazado_664259" data-name="Trazado 664259" d="M305.345,223.493H301.2a1.22,1.22,0,1,1,0-2.441h4.145a1.22,1.22,0,1,1,0,2.441Z" transform="translate(-257.859 -190.786)" fill="#49ce8b"/>
        <path id="Trazado_664260" data-name="Trazado 664260" d="M20.6,223.493H16.454a1.22,1.22,0,0,1,0-2.441H20.6a1.22,1.22,0,1,1,0,2.441Z" transform="translate(-13.095 -190.786)" fill="#36b277"/>
        <g id="Grupo_1013058" data-name="Grupo 1013058" transform="translate(24.203 35.497)">
          <path id="Trazado_664261" data-name="Trazado 664261" d="M173.586,262.581a1.22,1.22,0,0,1-1.22-1.22v-1.834a1.22,1.22,0,0,1,2.441,0v1.834A1.221,1.221,0,0,1,173.586,262.581Z" transform="translate(-172.366 -258.306)" fill="#49ce8b"/>
        </g>
        <g id="Grupo_1013059" data-name="Grupo 1013059" transform="translate(24.203 23.202)">
          <path id="Trazado_664262" data-name="Trazado 664262" d="M173.586,174.9a1.22,1.22,0,0,1-1.22-1.22v-1.719a1.22,1.22,0,1,1,2.441,0v1.719A1.221,1.221,0,0,1,173.586,174.9Z" transform="translate(-172.366 -170.739)" fill="#49ce8b"/>
        </g>
        <g id="Grupo_1013060" data-name="Grupo 1013060" transform="translate(21.559 24.92)">
          <path id="Trazado_664263" data-name="Trazado 664263" d="M157.228,195.993a4.85,4.85,0,0,1-3.134-.894,1.22,1.22,0,0,1,1.336-2.043,2.609,2.609,0,0,0,1.9.5,1.484,1.484,0,0,0,1.473-1.252,1.083,1.083,0,0,0-.8-1.284l-.025-.009-2.009-.759a3.524,3.524,0,0,1-2.38-3.985,3.941,3.941,0,0,1,3.864-3.288,4.911,4.911,0,0,1,3.257.894,1.22,1.22,0,0,1-1.336,2.043,2.6,2.6,0,0,0-1.9-.5A1.484,1.484,0,0,0,156,186.667a1.083,1.083,0,0,0,.8,1.284l.025.009,2.009.759a3.524,3.524,0,0,1,2.38,3.985,3.941,3.941,0,0,1-3.864,3.288h-.123Z" transform="translate(-153.541 -182.974)" fill="#67e8a4"/>
        </g>
      </g>
    </g>
  </g>
</svg>
