<svg xmlns="http://www.w3.org/2000/svg" xmlns:xlink="http://www.w3.org/1999/xlink" width="954.313" height="578.715" viewBox="0 0 954.313 578.715">
  <defs>
    <clipPath id="clip-path">
      <rect id="Rectángulo_401216" data-name="Rectángulo 401216" width="21.329" height="18.792" fill="none" stroke="#01927f" stroke-width="1"/>
    </clipPath>
    <clipPath id="clip-path-5">
      <rect id="Rectángulo_401216-5" data-name="Rectángulo 401216" width="21.328" height="18.792" fill="none" stroke="#01927f" stroke-width="1"/>
    </clipPath>
  </defs>
  <g id="Grupo_1100391" data-name="Grupo 1100391" transform="translate(12413.46 7727.215)">
    <path id="Trazado_875198" data-name="Trazado 875198" d="M11,0H423a11,11,0,0,1,11,11V74a11,11,0,0,1-11,11H11A11,11,0,0,1,0,74V11A11,11,0,0,1,11,0Z" transform="translate(-12178.177 -7727.215)" fill="#01927f"/>
    <path id="Trazado_875196" data-name="Trazado 875196" d="M11,0H155.43a11,11,0,0,1,11,11V63.035a11,11,0,0,1-11,11H11a11,11,0,0,1-11-11V11A11,11,0,0,1,11,0Z" transform="translate(-12382.975 -7490.805)" fill="#02dd84"/>
    <path id="Trazado_875203" data-name="Trazado 875203" d="M11,0H157.194a11,11,0,0,1,11,11V63.653a11,11,0,0,1-11,11H11a11,11,0,0,1-11-11V11A11,11,0,0,1,11,0Z" transform="translate(-11681.713 -7492.27)" fill="#02dd84"/>
    <path id="Trazado_875199" data-name="Trazado 875199" d="M-161.187-6.084h-5.01v3.545h6.006V0H-169.5V-14.219h9.316v2.539H-166.2v3.057h5.01Zm6.357,1.729.2,1.123.059.01.215-1.133,1.4-6.211h3.467L-152.935,0h-3.35l-3.437-10.566h3.477ZM-142.544-.01a3.986,3.986,0,0,1-.317-.752,5.766,5.766,0,0,1-.2-.879A4.037,4.037,0,0,1-144.121-.3a2.558,2.558,0,0,1-1.646.5,3.659,3.659,0,0,1-2.583-.854,3.019,3.019,0,0,1-.923-2.329,2.817,2.817,0,0,1,1.182-2.427,6.126,6.126,0,0,1,3.584-.854h1.357v-.752a1.505,1.505,0,0,0-.322-1.035,1.255,1.255,0,0,0-.986-.361,1.19,1.19,0,0,0-.854.269,1.114,1.114,0,0,0-.278.835l-3.2-.01-.02-.059a2.756,2.756,0,0,1,1.206-2.417,5.4,5.4,0,0,1,3.364-.972,4.921,4.921,0,0,1,3.179.977,3.375,3.375,0,0,1,1.216,2.793v3.984a8.128,8.128,0,0,0,.142,1.563A8.369,8.369,0,0,0-139.282,0Zm-2.324-2.139a2.011,2.011,0,0,0,1.069-.283,1.621,1.621,0,0,0,.649-.674V-4.5h-1.328a1.492,1.492,0,0,0-1.143.381,1.37,1.37,0,0,0-.352.967.935.935,0,0,0,.308.728A1.141,1.141,0,0,0-144.868-2.148ZM-134.585,0H-137.9V-15.234h3.311Zm8.389-1.582a3.473,3.473,0,0,1-1.216,1.323,3.2,3.2,0,0,1-1.724.464,3.129,3.129,0,0,1-2.573-1.152,5.618,5.618,0,0,1-.933-3.564v-6.055h3.291v6.074a3.2,3.2,0,0,0,.317,1.7,1.111,1.111,0,0,0,.981.459,2.694,2.694,0,0,0,.928-.146,1.793,1.793,0,0,0,.684-.439v-7.646h3.3V0H-125.8ZM-115.22-.01a3.987,3.987,0,0,1-.317-.752,5.765,5.765,0,0,1-.2-.879A4.038,4.038,0,0,1-116.8-.3a2.558,2.558,0,0,1-1.646.5,3.659,3.659,0,0,1-2.583-.854,3.019,3.019,0,0,1-.923-2.329,2.817,2.817,0,0,1,1.182-2.427,6.126,6.126,0,0,1,3.584-.854h1.357v-.752a1.505,1.505,0,0,0-.322-1.035,1.255,1.255,0,0,0-.986-.361,1.19,1.19,0,0,0-.854.269,1.114,1.114,0,0,0-.278.835l-3.2-.01-.02-.059a2.756,2.756,0,0,1,1.206-2.417,5.4,5.4,0,0,1,3.364-.972,4.921,4.921,0,0,1,3.179.977,3.375,3.375,0,0,1,1.216,2.793v3.984a8.129,8.129,0,0,0,.142,1.563A8.367,8.367,0,0,0-111.958,0Zm-2.324-2.139a2.011,2.011,0,0,0,1.069-.283,1.621,1.621,0,0,0,.649-.674V-4.5h-1.328a1.492,1.492,0,0,0-1.143.381,1.37,1.37,0,0,0-.352.967.935.935,0,0,0,.308.728A1.141,1.141,0,0,0-117.544-2.148Zm11.348-.186A1.291,1.291,0,0,0-105.19-2.7a1.526,1.526,0,0,0,.332-1.06h3.008l.02.059a3.469,3.469,0,0,1-1.2,2.817A4.616,4.616,0,0,1-106.2.205a4.675,4.675,0,0,1-3.716-1.489,5.679,5.679,0,0,1-1.3-3.882v-.225a5.7,5.7,0,0,1,1.3-3.877,4.64,4.64,0,0,1,3.7-1.494A4.545,4.545,0,0,1-103-9.644a3.857,3.857,0,0,1,1.167,3.062l-.02.059h-3.008a2.045,2.045,0,0,0-.342-1.226,1.172,1.172,0,0,0-1.016-.474,1.357,1.357,0,0,0-1.333.767,4.741,4.741,0,0,0-.376,2.065v.225a4.723,4.723,0,0,0,.376,2.08A1.378,1.378,0,0,0-106.2-2.334ZM-97.026,0h-3.311V-10.566h3.311Zm0-13.018h-3.311v-2.217h3.311Zm1.582,7.637A5.585,5.585,0,0,1-94.1-9.263a4.8,4.8,0,0,1,3.76-1.5,4.808,4.808,0,0,1,3.77,1.5A5.585,5.585,0,0,1-85.22-5.381v.205a5.581,5.581,0,0,1-1.348,3.887A4.792,4.792,0,0,1-90.317.205,4.829,4.829,0,0,1-94.1-1.289a5.581,5.581,0,0,1-1.348-3.887Zm3.3.205a4.368,4.368,0,0,0,.415,2.085,1.477,1.477,0,0,0,1.411.757A1.459,1.459,0,0,0-88.931-3.1a4.331,4.331,0,0,0,.42-2.08v-.205a4.347,4.347,0,0,0-.42-2.065,1.471,1.471,0,0,0-1.406-.776,1.45,1.45,0,0,0-1.392.781,4.4,4.4,0,0,0-.415,2.061Zm2.207-9.912h3.623l.02.059-2.744,2.539h-2.91Zm9.209,4.521.127,1.484a3.825,3.825,0,0,1,1.279-1.235,3.31,3.31,0,0,1,1.7-.444A2.979,2.979,0,0,1-75.2-9.707a5.218,5.218,0,0,1,.874,3.35V0h-3.3V-6.367A2.421,2.421,0,0,0-77.944-7.8a1.1,1.1,0,0,0-.937-.425,2.32,2.32,0,0,0-.947.186,1.891,1.891,0,0,0-.7.527V0h-3.291V-10.566ZM-66.792,0V-8.281h-1.533v-2.285h1.533v-.508a4.056,4.056,0,0,1,1.3-3.237A5.459,5.459,0,0,1-61.8-15.439a9.152,9.152,0,0,1,1.631.146q.811.146,1.807.42l-.449,2.6q-.84-.215-1.4-.322a7.574,7.574,0,0,0-1.392-.107,2.064,2.064,0,0,0-1.4.425,1.513,1.513,0,0,0-.488,1.206v.508h2.07v2.285h-2.07V0Zm9.941,0h-3.311V-10.566h3.311Zm5.059-10.566.127,1.484a3.825,3.825,0,0,1,1.279-1.235,3.31,3.31,0,0,1,1.7-.444A2.979,2.979,0,0,1-46.26-9.707a5.218,5.218,0,0,1,.874,3.35V0h-3.3V-6.367A2.421,2.421,0,0,0-49.009-7.8a1.1,1.1,0,0,0-.937-.425,2.32,2.32,0,0,0-.947.186,1.891,1.891,0,0,0-.7.527V0h-3.291V-10.566ZM-37.485-.01A3.986,3.986,0,0,1-37.8-.762a5.765,5.765,0,0,1-.2-.879A4.038,4.038,0,0,1-39.062-.3a2.558,2.558,0,0,1-1.646.5,3.659,3.659,0,0,1-2.583-.854,3.019,3.019,0,0,1-.923-2.329,2.817,2.817,0,0,1,1.182-2.427,6.126,6.126,0,0,1,3.584-.854h1.357v-.752a1.505,1.505,0,0,0-.322-1.035,1.255,1.255,0,0,0-.986-.361,1.19,1.19,0,0,0-.854.269,1.114,1.114,0,0,0-.278.835l-3.2-.01-.02-.059A2.756,2.756,0,0,1-42.549-9.79a5.4,5.4,0,0,1,3.364-.972,4.921,4.921,0,0,1,3.179.977A3.375,3.375,0,0,1-34.79-6.992v3.984a8.128,8.128,0,0,0,.142,1.563A8.368,8.368,0,0,0-34.224,0ZM-39.81-2.148a2.011,2.011,0,0,0,1.069-.283,1.621,1.621,0,0,0,.649-.674V-4.5h-1.328a1.492,1.492,0,0,0-1.143.381,1.37,1.37,0,0,0-.352.967.935.935,0,0,0,.308.728A1.141,1.141,0,0,0-39.81-2.148Zm9.863-8.418.127,1.484a3.825,3.825,0,0,1,1.279-1.235,3.31,3.31,0,0,1,1.7-.444,2.979,2.979,0,0,1,2.427,1.055,5.218,5.218,0,0,1,.874,3.35V0h-3.3V-6.367A2.421,2.421,0,0,0-27.163-7.8a1.1,1.1,0,0,0-.937-.425,2.32,2.32,0,0,0-.947.186,1.891,1.891,0,0,0-.7.527V0h-3.291V-10.566Zm12.725,8.232A1.291,1.291,0,0,0-16.216-2.7a1.526,1.526,0,0,0,.332-1.06h3.008l.02.059a3.469,3.469,0,0,1-1.2,2.817A4.616,4.616,0,0,1-17.222.205a4.675,4.675,0,0,1-3.716-1.489,5.679,5.679,0,0,1-1.3-3.882v-.225a5.7,5.7,0,0,1,1.3-3.877,4.64,4.64,0,0,1,3.7-1.494,4.545,4.545,0,0,1,3.218,1.118,3.857,3.857,0,0,1,1.167,3.062l-.02.059h-3.008a2.045,2.045,0,0,0-.342-1.226,1.172,1.172,0,0,0-1.016-.474,1.357,1.357,0,0,0-1.333.767,4.741,4.741,0,0,0-.376,2.065v.225a4.723,4.723,0,0,0,.376,2.08A1.378,1.378,0,0,0-17.222-2.334ZM-8.052,0h-3.311V-10.566h3.311Zm0-13.018h-3.311v-2.217h3.311ZM-1.343.205A4.906,4.906,0,0,1-5.107-1.25,5.174,5.174,0,0,1-6.47-4.932V-5.3A5.912,5.912,0,0,1-5.186-9.248,4.562,4.562,0,0,1-1.47-10.762,4.279,4.279,0,0,1,1.846-9.482,4.98,4.98,0,0,1,3.022-5.977v1.729H-3.032l-.02.059a2.052,2.052,0,0,0,.615,1.343,2.148,2.148,0,0,0,1.543.513A6.687,6.687,0,0,0,.684-2.49a9.942,9.942,0,0,0,1.44-.5L2.915-.977a6.04,6.04,0,0,1-1.836.84A8.473,8.473,0,0,1-1.343.205ZM-1.47-8.223a1.362,1.362,0,0,0-1.167.5,2.523,2.523,0,0,0-.435,1.362l.02.049H-.2v-.254A2.2,2.2,0,0,0-.488-7.8,1.1,1.1,0,0,0-1.47-8.223Zm11.729.469-1.074-.01a1.829,1.829,0,0,0-.928.21,1.3,1.3,0,0,0-.537.591V0h-3.3V-10.566H7.524l.117,1.553A3.186,3.186,0,0,1,8.521-10.3,1.929,1.929,0,0,1,9.8-10.762a2.454,2.454,0,0,1,.4.029,3.029,3.029,0,0,1,.371.088ZM17.573-.01a3.986,3.986,0,0,1-.317-.752,5.765,5.765,0,0,1-.2-.879A4.038,4.038,0,0,1,16-.3a2.558,2.558,0,0,1-1.646.5,3.659,3.659,0,0,1-2.583-.854,3.019,3.019,0,0,1-.923-2.329,2.817,2.817,0,0,1,1.182-2.427A6.126,6.126,0,0,1,15.61-6.26h1.357v-.752a1.505,1.505,0,0,0-.322-1.035,1.255,1.255,0,0,0-.986-.361,1.19,1.19,0,0,0-.854.269,1.114,1.114,0,0,0-.278.835l-3.2-.01-.02-.059A2.756,2.756,0,0,1,12.51-9.79a5.4,5.4,0,0,1,3.364-.972,4.921,4.921,0,0,1,3.179.977,3.375,3.375,0,0,1,1.216,2.793v3.984a8.128,8.128,0,0,0,.142,1.563A8.368,8.368,0,0,0,20.835,0ZM15.249-2.148a2.011,2.011,0,0,0,1.069-.283,1.621,1.621,0,0,0,.649-.674V-4.5H15.64a1.492,1.492,0,0,0-1.143.381,1.37,1.37,0,0,0-.352.967.935.935,0,0,0,.308.728A1.141,1.141,0,0,0,15.249-2.148Zm15.9-2.51.01.078h.059l1.748-5.986h3.516L32.271,1.572a5.822,5.822,0,0,1-1.26,1.934,3.381,3.381,0,0,1-2.451.762,3.763,3.763,0,0,1-.7-.054q-.273-.054-.859-.2l.4-2.354L27.6,1.7a.864.864,0,0,0,.176.015,2.193,2.193,0,0,0,1.143-.229A1.36,1.36,0,0,0,29.458.8l.264-.684L26.069-10.566h3.506Zm20.957-.4A6.243,6.243,0,0,1,51.03-1.235,3.556,3.556,0,0,1,48,.205,3.005,3.005,0,0,1,46.65-.088a3.011,3.011,0,0,1-1.03-.85v5h-3.3V-10.566h3.115l.1,1.152a3.211,3.211,0,0,1,1.05-1,2.757,2.757,0,0,1,1.4-.352,3.518,3.518,0,0,1,3.042,1.514A6.719,6.719,0,0,1,52.1-5.264Zm-3.291-.205a4.989,4.989,0,0,0-.391-2.148,1.3,1.3,0,0,0-1.25-.811,1.986,1.986,0,0,0-.942.205,1.513,1.513,0,0,0-.61.6v4.414a1.414,1.414,0,0,0,.62.508,2.411,2.411,0,0,0,.952.166,1.3,1.3,0,0,0,1.245-.718,4.388,4.388,0,0,0,.376-2.007ZM57.017,0H53.706V-15.234h3.311Zm8.125-.01a3.987,3.987,0,0,1-.317-.752,5.765,5.765,0,0,1-.2-.879A4.038,4.038,0,0,1,63.564-.3a2.558,2.558,0,0,1-1.646.5,3.659,3.659,0,0,1-2.583-.854,3.019,3.019,0,0,1-.923-2.329,2.817,2.817,0,0,1,1.182-2.427,6.126,6.126,0,0,1,3.584-.854h1.357v-.752a1.505,1.505,0,0,0-.322-1.035,1.255,1.255,0,0,0-.986-.361,1.19,1.19,0,0,0-.854.269,1.114,1.114,0,0,0-.278.835l-3.2-.01-.02-.059A2.756,2.756,0,0,1,60.078-9.79a5.4,5.4,0,0,1,3.364-.972,4.921,4.921,0,0,1,3.179.977,3.375,3.375,0,0,1,1.216,2.793v3.984a8.129,8.129,0,0,0,.142,1.563A8.367,8.367,0,0,0,68.4,0ZM62.817-2.148a2.011,2.011,0,0,0,1.069-.283,1.621,1.621,0,0,0,.649-.674V-4.5H63.208a1.492,1.492,0,0,0-1.143.381,1.37,1.37,0,0,0-.352.967.935.935,0,0,0,.308.728A1.141,1.141,0,0,0,62.817-2.148Zm9.863-8.418.127,1.484a3.825,3.825,0,0,1,1.279-1.235,3.31,3.31,0,0,1,1.7-.444,2.979,2.979,0,0,1,2.427,1.055,5.218,5.218,0,0,1,.874,3.35V0h-3.3V-6.367A2.421,2.421,0,0,0,75.464-7.8a1.1,1.1,0,0,0-.937-.425,2.32,2.32,0,0,0-.947.186,1.891,1.891,0,0,0-.7.527V0H69.585V-10.566Zm12.744,5.3A6.719,6.719,0,0,1,86.5-9.248a3.518,3.518,0,0,1,3.042-1.514,2.623,2.623,0,0,1,1.323.337,3.5,3.5,0,0,1,1.06.962v-5.771h3.3V0H92.339l-.225-1.289A3.553,3.553,0,0,1,91-.181a2.79,2.79,0,0,1-1.47.386A3.552,3.552,0,0,1,86.5-1.24a6.248,6.248,0,0,1-1.074-3.818Zm3.3.205A4.388,4.388,0,0,0,89.1-3.052a1.314,1.314,0,0,0,1.265.718,2.081,2.081,0,0,0,.913-.19,1.636,1.636,0,0,0,.649-.562V-7.354A1.8,1.8,0,0,0,91.284-8a1.77,1.77,0,0,0-.9-.225,1.317,1.317,0,0,0-1.27.811,4.989,4.989,0,0,0-.391,2.148ZM101.792.205A4.906,4.906,0,0,1,98.027-1.25a5.174,5.174,0,0,1-1.362-3.682V-5.3a5.912,5.912,0,0,1,1.284-3.945,4.562,4.562,0,0,1,3.716-1.514,4.279,4.279,0,0,1,3.315,1.279,4.98,4.98,0,0,1,1.177,3.506v1.729H100.1l-.02.059a2.052,2.052,0,0,0,.615,1.343,2.148,2.148,0,0,0,1.543.513,6.687,6.687,0,0,0,1.577-.156,9.942,9.942,0,0,0,1.44-.5l.791,2.012a6.04,6.04,0,0,1-1.836.84A8.473,8.473,0,0,1,101.792.205Zm-.127-8.428a1.362,1.362,0,0,0-1.167.5,2.523,2.523,0,0,0-.435,1.362l.02.049h2.852v-.254a2.2,2.2,0,0,0-.288-1.24A1.1,1.1,0,0,0,101.665-8.223ZM118.638-.01a3.987,3.987,0,0,1-.317-.752,5.765,5.765,0,0,1-.2-.879A4.038,4.038,0,0,1,117.061-.3a2.558,2.558,0,0,1-1.646.5,3.659,3.659,0,0,1-2.583-.854,3.019,3.019,0,0,1-.923-2.329,2.817,2.817,0,0,1,1.182-2.427,6.126,6.126,0,0,1,3.584-.854h1.357v-.752a1.505,1.505,0,0,0-.322-1.035,1.255,1.255,0,0,0-.986-.361,1.19,1.19,0,0,0-.854.269,1.114,1.114,0,0,0-.278.835l-3.2-.01-.02-.059a2.756,2.756,0,0,1,1.206-2.417,5.4,5.4,0,0,1,3.364-.972,4.921,4.921,0,0,1,3.179.977,3.375,3.375,0,0,1,1.216,2.793v3.984a8.129,8.129,0,0,0,.142,1.563A8.367,8.367,0,0,0,121.9,0Zm-2.324-2.139a2.011,2.011,0,0,0,1.069-.283,1.621,1.621,0,0,0,.649-.674V-4.5H116.7a1.492,1.492,0,0,0-1.143.381,1.37,1.37,0,0,0-.352.967.935.935,0,0,0,.308.728A1.141,1.141,0,0,0,116.313-2.148Zm11.348-.186a1.291,1.291,0,0,0,1.006-.366A1.526,1.526,0,0,0,129-3.76h3.008l.02.059a3.469,3.469,0,0,1-1.2,2.817A4.616,4.616,0,0,1,127.661.205a4.675,4.675,0,0,1-3.716-1.489,5.679,5.679,0,0,1-1.3-3.882v-.225a5.7,5.7,0,0,1,1.3-3.877,4.64,4.64,0,0,1,3.7-1.494,4.545,4.545,0,0,1,3.218,1.118,3.857,3.857,0,0,1,1.167,3.062l-.02.059H129a2.045,2.045,0,0,0-.342-1.226,1.172,1.172,0,0,0-1.016-.474,1.357,1.357,0,0,0-1.333.767,4.741,4.741,0,0,0-.376,2.065v.225a4.723,4.723,0,0,0,.376,2.08A1.378,1.378,0,0,0,127.661-2.334Zm10.234,0A1.291,1.291,0,0,0,138.9-2.7a1.526,1.526,0,0,0,.332-1.06h3.008l.02.059a3.469,3.469,0,0,1-1.2,2.817A4.616,4.616,0,0,1,137.9.205a4.675,4.675,0,0,1-3.716-1.489,5.679,5.679,0,0,1-1.3-3.882v-.225a5.7,5.7,0,0,1,1.3-3.877,4.64,4.64,0,0,1,3.7-1.494,4.545,4.545,0,0,1,3.218,1.118,3.857,3.857,0,0,1,1.167,3.062l-.02.059h-3.008a2.045,2.045,0,0,0-.342-1.226,1.172,1.172,0,0,0-1.016-.474,1.357,1.357,0,0,0-1.333.767,4.74,4.74,0,0,0-.376,2.065v.225a4.723,4.723,0,0,0,.376,2.08A1.378,1.378,0,0,0,137.9-2.334ZM147.065,0h-3.311V-10.566h3.311Zm0-13.018h-3.311v-2.217h3.311Zm1.582,7.637A5.585,5.585,0,0,1,150-9.263a4.8,4.8,0,0,1,3.76-1.5,4.808,4.808,0,0,1,3.77,1.5,5.585,5.585,0,0,1,1.348,3.882v.205a5.581,5.581,0,0,1-1.348,3.887,4.792,4.792,0,0,1-3.75,1.494A4.829,4.829,0,0,1,150-1.289a5.581,5.581,0,0,1-1.348-3.887Zm3.3.205a4.369,4.369,0,0,0,.415,2.085,1.477,1.477,0,0,0,1.411.757,1.459,1.459,0,0,0,1.387-.762,4.331,4.331,0,0,0,.42-2.08v-.205a4.347,4.347,0,0,0-.42-2.065,1.471,1.471,0,0,0-1.406-.776,1.45,1.45,0,0,0-1.392.781,4.4,4.4,0,0,0-.415,2.061Zm2.207-9.912h3.623l.02.059-2.744,2.539h-2.91Zm9.209,4.521.127,1.484a3.825,3.825,0,0,1,1.279-1.235,3.31,3.31,0,0,1,1.7-.444A2.979,2.979,0,0,1,168.9-9.707a5.218,5.218,0,0,1,.874,3.35V0h-3.3V-6.367a2.421,2.421,0,0,0-.322-1.431,1.1,1.1,0,0,0-.937-.425,2.32,2.32,0,0,0-.947.186,1.891,1.891,0,0,0-.7.527V0h-3.291V-10.566ZM-175.41,27.205a4.906,4.906,0,0,1-3.765-1.455,5.174,5.174,0,0,1-1.362-3.682V21.7a5.912,5.912,0,0,1,1.284-3.945,4.562,4.562,0,0,1,3.716-1.514,4.279,4.279,0,0,1,3.315,1.279,4.98,4.98,0,0,1,1.177,3.506v1.729H-177.1l-.02.059a2.052,2.052,0,0,0,.615,1.343,2.148,2.148,0,0,0,1.543.513,6.687,6.687,0,0,0,1.577-.156,9.941,9.941,0,0,0,1.44-.5l.791,2.012a6.04,6.04,0,0,1-1.836.84A8.473,8.473,0,0,1-175.41,27.205Zm-.127-8.428a1.362,1.362,0,0,0-1.167.5,2.523,2.523,0,0,0-.435,1.362l.02.049h2.852v-.254a2.2,2.2,0,0,0-.288-1.24A1.1,1.1,0,0,0-175.537,18.777Zm11.4,5.254a.862.862,0,0,0-.444-.7,4.792,4.792,0,0,0-1.616-.552,6.38,6.38,0,0,1-2.783-1.118,2.533,2.533,0,0,1-.937-2.085,2.971,2.971,0,0,1,1.172-2.368,4.82,4.82,0,0,1,3.174-.972,5.45,5.45,0,0,1,3.359.942,2.771,2.771,0,0,1,1.191,2.437l-.02.059h-3.2a1.309,1.309,0,0,0-.312-.947,1.383,1.383,0,0,0-1.025-.322,1.341,1.341,0,0,0-.869.283.888.888,0,0,0-.352.723.86.86,0,0,0,.405.713,4.584,4.584,0,0,0,1.636.527,6.571,6.571,0,0,1,2.871,1.138,2.609,2.609,0,0,1,.928,2.144,2.8,2.8,0,0,1-1.265,2.349,5.547,5.547,0,0,1-3.345.923,5.016,5.016,0,0,1-3.413-1.094,3.013,3.013,0,0,1-1.2-2.441l.02-.059h2.988a1.325,1.325,0,0,0,.454,1.084,2,2,0,0,0,1.235.332,1.649,1.649,0,0,0,1.006-.259A.87.87,0,0,0-164.141,24.031Zm8.516-10.225v2.627h1.67v2.285h-1.67v4.844a1.185,1.185,0,0,0,.229.815.8.8,0,0,0,.62.249,3.318,3.318,0,0,0,.405-.02,3.509,3.509,0,0,0,.386-.078l.225,2.441a7.968,7.968,0,0,1-.9.181,7.236,7.236,0,0,1-.947.054,3.3,3.3,0,0,1-2.476-.869,3.836,3.836,0,0,1-.845-2.754V18.719H-160.4V16.434h1.475V13.807Zm9.111,5.439-1.074-.01a1.829,1.829,0,0,0-.928.21,1.3,1.3,0,0,0-.537.591V27h-3.3V16.434h3.105l.117,1.553a3.186,3.186,0,0,1,.879-1.289,1.929,1.929,0,0,1,1.279-.459,2.454,2.454,0,0,1,.4.029,3.028,3.028,0,0,1,.371.088Zm7.314,7.744a3.986,3.986,0,0,1-.317-.752,5.766,5.766,0,0,1-.2-.879,4.037,4.037,0,0,1-1.06,1.343,2.558,2.558,0,0,1-1.646.5A3.659,3.659,0,0,1-145,26.351a3.019,3.019,0,0,1-.923-2.329,2.817,2.817,0,0,1,1.182-2.427,6.126,6.126,0,0,1,3.584-.854h1.357v-.752a1.505,1.505,0,0,0-.322-1.035,1.255,1.255,0,0,0-.986-.361,1.19,1.19,0,0,0-.854.269,1.114,1.114,0,0,0-.278.835l-3.2-.01-.02-.059a2.756,2.756,0,0,1,1.206-2.417,5.4,5.4,0,0,1,3.364-.972,4.921,4.921,0,0,1,3.179.977,3.375,3.375,0,0,1,1.216,2.793v3.984a8.128,8.128,0,0,0,.142,1.563A8.369,8.369,0,0,0-135.937,27Zm-2.324-2.139a2.011,2.011,0,0,0,1.069-.283,1.621,1.621,0,0,0,.649-.674V22.5h-1.328a1.492,1.492,0,0,0-1.143.381,1.37,1.37,0,0,0-.352.967.935.935,0,0,0,.308.728A1.141,1.141,0,0,0-141.523,24.852Zm10.615-11.045v2.627h1.67v2.285h-1.67v4.844a1.185,1.185,0,0,0,.229.815.8.8,0,0,0,.62.249,3.318,3.318,0,0,0,.405-.02,3.509,3.509,0,0,0,.386-.078l.225,2.441a7.968,7.968,0,0,1-.9.181,7.236,7.236,0,0,1-.947.054,3.3,3.3,0,0,1-2.476-.869,3.836,3.836,0,0,1-.845-2.754V18.719h-1.475V16.434h1.475V13.807Zm7.959,13.4a4.906,4.906,0,0,1-3.765-1.455,5.174,5.174,0,0,1-1.362-3.682V21.7a5.912,5.912,0,0,1,1.284-3.945,4.562,4.562,0,0,1,3.716-1.514,4.279,4.279,0,0,1,3.315,1.279,4.98,4.98,0,0,1,1.177,3.506v1.729h-6.055l-.02.059a2.052,2.052,0,0,0,.615,1.343,2.148,2.148,0,0,0,1.543.513,6.687,6.687,0,0,0,1.577-.156,9.942,9.942,0,0,0,1.44-.5l.791,2.012a6.04,6.04,0,0,1-1.836.84A8.473,8.473,0,0,1-122.949,27.205Zm-.127-8.428a1.362,1.362,0,0,0-1.167.5,2.523,2.523,0,0,0-.435,1.362l.02.049h2.852v-.254a2.2,2.2,0,0,0-.288-1.24A1.1,1.1,0,0,0-123.076,18.777Zm.156-6.875h3.623l.02.059-2.744,2.539h-2.91Zm5.283,9.834a6.719,6.719,0,0,1,1.079-3.984,3.518,3.518,0,0,1,3.042-1.514,2.712,2.712,0,0,1,1.465.4,3.492,3.492,0,0,1,1.094,1.118l.215-1.318h2.91V26.883a3.913,3.913,0,0,1-1.431,3.237,6.133,6.133,0,0,1-3.94,1.147,7.086,7.086,0,0,1-1.719-.225,9.6,9.6,0,0,1-1.719-.605l.566-2.441a7.845,7.845,0,0,0,1.362.464,6.6,6.6,0,0,0,1.489.151,2.443,2.443,0,0,0,1.567-.42,1.618,1.618,0,0,0,.513-1.328v-.82a3.018,3.018,0,0,1-1.04.869,3.005,3.005,0,0,1-1.353.293,3.552,3.552,0,0,1-3.027-1.445,6.248,6.248,0,0,1-1.074-3.818Zm3.291.205a4.388,4.388,0,0,0,.376,2.007,1.322,1.322,0,0,0,1.274.718,2.326,2.326,0,0,0,.923-.166,1.506,1.506,0,0,0,.63-.5V19.559a1.643,1.643,0,0,0-.625-.581,1.928,1.928,0,0,0-.908-.2,1.326,1.326,0,0,0-1.274.815,4.942,4.942,0,0,0-.4,2.144ZM-102.49,27H-105.8V16.434h3.311Zm0-13.018H-105.8V11.766h3.311Zm6.543,10.684a1.291,1.291,0,0,0,1.006-.366,1.526,1.526,0,0,0,.332-1.06H-91.6l.02.059a3.469,3.469,0,0,1-1.2,2.817,4.616,4.616,0,0,1-3.169,1.089,4.675,4.675,0,0,1-3.716-1.489,5.679,5.679,0,0,1-1.3-3.882v-.225a5.7,5.7,0,0,1,1.3-3.877,4.64,4.64,0,0,1,3.7-1.494,4.545,4.545,0,0,1,3.218,1.118,3.857,3.857,0,0,1,1.167,3.062l-.02.059h-3.008a2.045,2.045,0,0,0-.342-1.226,1.172,1.172,0,0,0-1.016-.474,1.357,1.357,0,0,0-1.333.767,4.741,4.741,0,0,0-.376,2.065v.225a4.723,4.723,0,0,0,.376,2.08A1.378,1.378,0,0,0-95.947,24.666Zm5.273-3.047a5.585,5.585,0,0,1,1.348-3.882,4.8,4.8,0,0,1,3.76-1.5,4.808,4.808,0,0,1,3.77,1.5,5.585,5.585,0,0,1,1.348,3.882v.205A5.581,5.581,0,0,1-81.8,25.711a4.792,4.792,0,0,1-3.75,1.494,4.829,4.829,0,0,1-3.779-1.494,5.581,5.581,0,0,1-1.348-3.887Zm3.3.205a4.368,4.368,0,0,0,.415,2.085,1.477,1.477,0,0,0,1.411.757A1.459,1.459,0,0,0-84.16,23.9a4.331,4.331,0,0,0,.42-2.08v-.205a4.347,4.347,0,0,0-.42-2.065,1.471,1.471,0,0,0-1.406-.776,1.45,1.45,0,0,0-1.392.781,4.4,4.4,0,0,0-.415,2.061Zm12.92-.088a6.719,6.719,0,0,1,1.079-3.984,3.518,3.518,0,0,1,3.042-1.514,2.623,2.623,0,0,1,1.323.337,3.5,3.5,0,0,1,1.06.962V11.766h3.3V27h-2.891l-.225-1.289a3.553,3.553,0,0,1-1.118,1.108,2.79,2.79,0,0,1-1.47.386,3.552,3.552,0,0,1-3.027-1.445,6.248,6.248,0,0,1-1.074-3.818Zm3.3.205a4.388,4.388,0,0,0,.376,2.007,1.314,1.314,0,0,0,1.265.718,2.081,2.081,0,0,0,.913-.19,1.636,1.636,0,0,0,.649-.562V19.646A1.8,1.8,0,0,0-68.594,19a1.77,1.77,0,0,0-.9-.225,1.317,1.317,0,0,0-1.27.811,4.989,4.989,0,0,0-.391,2.148Zm13.066,5.264a4.906,4.906,0,0,1-3.765-1.455,5.174,5.174,0,0,1-1.362-3.682V21.7a5.912,5.912,0,0,1,1.284-3.945,4.562,4.562,0,0,1,3.716-1.514A4.279,4.279,0,0,1-54.9,17.518a4.98,4.98,0,0,1,1.177,3.506v1.729h-6.055l-.02.059a2.052,2.052,0,0,0,.615,1.343,2.148,2.148,0,0,0,1.543.513,6.687,6.687,0,0,0,1.577-.156,9.942,9.942,0,0,0,1.44-.5l.791,2.012a6.04,6.04,0,0,1-1.836.84A8.473,8.473,0,0,1-58.086,27.205Zm-.127-8.428a1.362,1.362,0,0,0-1.167.5,2.523,2.523,0,0,0-.435,1.362l.02.049h2.852v-.254a2.2,2.2,0,0,0-.288-1.24A1.1,1.1,0,0,0-58.213,18.777Zm17.236,6.641a3.473,3.473,0,0,1-1.216,1.323,3.2,3.2,0,0,1-1.724.464,3.129,3.129,0,0,1-2.573-1.152,5.618,5.618,0,0,1-.933-3.564V16.434h3.291v6.074a3.2,3.2,0,0,0,.317,1.7,1.111,1.111,0,0,0,.981.459,2.694,2.694,0,0,0,.928-.146,1.793,1.793,0,0,0,.684-.439V16.434h3.3V27h-2.656Zm7.91-8.984.127,1.484a3.825,3.825,0,0,1,1.279-1.235,3.31,3.31,0,0,1,1.7-.444,2.979,2.979,0,0,1,2.427,1.055,5.218,5.218,0,0,1,.874,3.35V27h-3.3V20.633a2.421,2.421,0,0,0-.322-1.431,1.1,1.1,0,0,0-.937-.425,2.32,2.32,0,0,0-.947.186,1.891,1.891,0,0,0-.7.527V27h-3.291V16.434ZM-10.1,21.941a6.243,6.243,0,0,1-1.074,3.823,3.556,3.556,0,0,1-3.027,1.44,3.005,3.005,0,0,1-1.353-.293,3.011,3.011,0,0,1-1.03-.85v5h-3.3V16.434h3.115l.1,1.152a3.211,3.211,0,0,1,1.05-1,2.757,2.757,0,0,1,1.4-.352,3.518,3.518,0,0,1,3.042,1.514A6.719,6.719,0,0,1-10.1,21.736Zm-3.291-.205a4.989,4.989,0,0,0-.391-2.148,1.3,1.3,0,0,0-1.25-.811,1.986,1.986,0,0,0-.942.205,1.513,1.513,0,0,0-.61.6v4.414a1.414,1.414,0,0,0,.62.508,2.411,2.411,0,0,0,.952.166,1.3,1.3,0,0,0,1.245-.718,4.388,4.388,0,0,0,.376-2.007ZM-2.8,19.246l-1.074-.01a1.829,1.829,0,0,0-.928.21,1.3,1.3,0,0,0-.537.591V27h-3.3V16.434h3.105l.117,1.553A3.186,3.186,0,0,1-4.541,16.7a1.929,1.929,0,0,1,1.279-.459,2.454,2.454,0,0,1,.4.029,3.029,3.029,0,0,1,.371.088Zm.576,2.373A5.585,5.585,0,0,1-.879,17.737a4.8,4.8,0,0,1,3.76-1.5,4.808,4.808,0,0,1,3.77,1.5A5.585,5.585,0,0,1,8,21.619v.205A5.581,5.581,0,0,1,6.65,25.711,4.792,4.792,0,0,1,2.9,27.205,4.829,4.829,0,0,1-.879,25.711a5.581,5.581,0,0,1-1.348-3.887Zm3.3.205a4.368,4.368,0,0,0,.415,2.085,1.477,1.477,0,0,0,1.411.757A1.459,1.459,0,0,0,4.287,23.9a4.331,4.331,0,0,0,.42-2.08v-.205a4.347,4.347,0,0,0-.42-2.065,1.471,1.471,0,0,0-1.406-.776,1.45,1.45,0,0,0-1.392.781,4.4,4.4,0,0,0-.415,2.061Zm12.324.518.01.078h.059l1.748-5.986H18.73L14.521,28.572a5.822,5.822,0,0,1-1.26,1.934,3.381,3.381,0,0,1-2.451.762,3.763,3.763,0,0,1-.7-.054q-.273-.054-.859-.2l.4-2.354.205.044a.864.864,0,0,0,.176.015,2.193,2.193,0,0,0,1.143-.229,1.36,1.36,0,0,0,.537-.688l.264-.684L8.32,16.434h3.506ZM24.15,27.205a4.906,4.906,0,0,1-3.765-1.455,5.174,5.174,0,0,1-1.362-3.682V21.7a5.912,5.912,0,0,1,1.284-3.945,4.562,4.562,0,0,1,3.716-1.514,4.279,4.279,0,0,1,3.315,1.279,4.98,4.98,0,0,1,1.177,3.506v1.729H22.461l-.02.059a2.052,2.052,0,0,0,.615,1.343,2.148,2.148,0,0,0,1.543.513,6.687,6.687,0,0,0,1.577-.156,9.942,9.942,0,0,0,1.44-.5l.791,2.012a6.04,6.04,0,0,1-1.836.84A8.473,8.473,0,0,1,24.15,27.205Zm-.127-8.428a1.362,1.362,0,0,0-1.167.5,2.523,2.523,0,0,0-.435,1.362l.02.049h2.852v-.254A2.2,2.2,0,0,0,25,19.2,1.1,1.1,0,0,0,24.023,18.777Zm10.41,5.889a1.291,1.291,0,0,0,1.006-.366,1.526,1.526,0,0,0,.332-1.06h3.008l.02.059a3.469,3.469,0,0,1-1.2,2.817,4.616,4.616,0,0,1-3.169,1.089,4.675,4.675,0,0,1-3.716-1.489,5.679,5.679,0,0,1-1.3-3.882v-.225a5.7,5.7,0,0,1,1.3-3.877,4.64,4.64,0,0,1,3.7-1.494,4.545,4.545,0,0,1,3.218,1.118A3.857,3.857,0,0,1,38.8,20.418l-.02.059H35.771a2.045,2.045,0,0,0-.342-1.226,1.172,1.172,0,0,0-1.016-.474,1.357,1.357,0,0,0-1.333.767,4.74,4.74,0,0,0-.376,2.065v.225a4.723,4.723,0,0,0,.376,2.08A1.378,1.378,0,0,0,34.434,24.666Zm9.5-10.859v2.627h1.67v2.285h-1.67v4.844a1.185,1.185,0,0,0,.229.815.8.8,0,0,0,.62.249,3.318,3.318,0,0,0,.405-.02,3.509,3.509,0,0,0,.386-.078l.225,2.441a7.968,7.968,0,0,1-.9.181,7.236,7.236,0,0,1-.947.054,3.3,3.3,0,0,1-2.476-.869,3.836,3.836,0,0,1-.845-2.754V18.719H39.16V16.434h1.475V13.807Zm2.832,7.813a5.585,5.585,0,0,1,1.348-3.882,4.8,4.8,0,0,1,3.76-1.5,4.808,4.808,0,0,1,3.77,1.5,5.585,5.585,0,0,1,1.348,3.882v.205a5.581,5.581,0,0,1-1.348,3.887,4.792,4.792,0,0,1-3.75,1.494,4.829,4.829,0,0,1-3.779-1.494,5.581,5.581,0,0,1-1.348-3.887Zm3.3.205a4.368,4.368,0,0,0,.415,2.085,1.477,1.477,0,0,0,1.411.757,1.459,1.459,0,0,0,1.387-.762,4.331,4.331,0,0,0,.42-2.08v-.205a4.347,4.347,0,0,0-.42-2.065,1.471,1.471,0,0,0-1.406-.776,1.45,1.45,0,0,0-1.392.781,4.4,4.4,0,0,0-.415,2.061ZM69.531,26.99a3.987,3.987,0,0,1-.317-.752,5.765,5.765,0,0,1-.2-.879,4.038,4.038,0,0,1-1.06,1.343,2.558,2.558,0,0,1-1.646.5,3.659,3.659,0,0,1-2.583-.854,3.019,3.019,0,0,1-.923-2.329,2.817,2.817,0,0,1,1.182-2.427,6.126,6.126,0,0,1,3.584-.854h1.357v-.752a1.505,1.505,0,0,0-.322-1.035,1.255,1.255,0,0,0-.986-.361,1.19,1.19,0,0,0-.854.269,1.114,1.114,0,0,0-.278.835l-3.2-.01-.02-.059a2.756,2.756,0,0,1,1.206-2.417,5.4,5.4,0,0,1,3.364-.972,4.921,4.921,0,0,1,3.179.977,3.375,3.375,0,0,1,1.216,2.793v3.984a8.129,8.129,0,0,0,.142,1.563A8.367,8.367,0,0,0,72.793,27Zm-2.324-2.139a2.011,2.011,0,0,0,1.069-.283,1.621,1.621,0,0,0,.649-.674V22.5H67.6a1.492,1.492,0,0,0-1.143.381,1.37,1.37,0,0,0-.352.967.935.935,0,0,0,.308.728A1.141,1.141,0,0,0,67.207,24.852Zm6.377-3.115a6.719,6.719,0,0,1,1.079-3.984,3.518,3.518,0,0,1,3.042-1.514,2.712,2.712,0,0,1,1.465.4,3.492,3.492,0,0,1,1.094,1.118l.215-1.318h2.91V26.883a3.913,3.913,0,0,1-1.431,3.237,6.133,6.133,0,0,1-3.94,1.147,7.086,7.086,0,0,1-1.719-.225,9.6,9.6,0,0,1-1.719-.605L75.146,28a7.845,7.845,0,0,0,1.362.464A6.6,6.6,0,0,0,78,28.611a2.443,2.443,0,0,0,1.567-.42,1.618,1.618,0,0,0,.513-1.328v-.82a2.865,2.865,0,0,1-2.393,1.162,3.552,3.552,0,0,1-3.027-1.445,6.248,6.248,0,0,1-1.074-3.818Zm3.291.205a4.388,4.388,0,0,0,.376,2.007,1.322,1.322,0,0,0,1.274.718,2.326,2.326,0,0,0,.923-.166,1.506,1.506,0,0,0,.63-.5V19.559a1.643,1.643,0,0,0-.625-.581,1.928,1.928,0,0,0-.908-.2,1.326,1.326,0,0,0-1.274.815,4.942,4.942,0,0,0-.4,2.144Zm14.238-2.7-1.074-.01a1.829,1.829,0,0,0-.928.21,1.3,1.3,0,0,0-.537.591V27h-3.3V16.434h3.105l.117,1.553a3.186,3.186,0,0,1,.879-1.289,1.929,1.929,0,0,1,1.279-.459,2.454,2.454,0,0,1,.4.029,3.029,3.029,0,0,1,.371.088Zm.576,2.373a5.585,5.585,0,0,1,1.348-3.882,5.477,5.477,0,0,1,7.529,0,5.585,5.585,0,0,1,1.348,3.882v.205a5.581,5.581,0,0,1-1.348,3.887,5.49,5.49,0,0,1-7.529,0,5.581,5.581,0,0,1-1.348-3.887Zm3.3.205a4.368,4.368,0,0,0,.415,2.085,1.477,1.477,0,0,0,1.411.757A1.459,1.459,0,0,0,98.2,23.9a4.331,4.331,0,0,0,.42-2.08v-.205a4.347,4.347,0,0,0-.42-2.065,1.471,1.471,0,0,0-1.406-.776,1.45,1.45,0,0,0-1.392.781,4.4,4.4,0,0,0-.415,2.061Zm18.164.117a6.243,6.243,0,0,1-1.074,3.823,3.556,3.556,0,0,1-3.027,1.44,2.882,2.882,0,0,1-2.383-1.143v5h-3.3V16.434h3.115l.1,1.152a3.211,3.211,0,0,1,1.05-1,2.757,2.757,0,0,1,1.4-.352,3.518,3.518,0,0,1,3.042,1.514,6.719,6.719,0,0,1,1.079,3.984Zm-3.291-.205a4.989,4.989,0,0,0-.391-2.148,1.3,1.3,0,0,0-1.25-.811,1.986,1.986,0,0,0-.942.205,1.513,1.513,0,0,0-.61.6v4.414a1.414,1.414,0,0,0,.62.508,2.411,2.411,0,0,0,.952.166,1.3,1.3,0,0,0,1.245-.718,4.388,4.388,0,0,0,.376-2.007Zm9.434,5.469a4.906,4.906,0,0,1-3.765-1.455,5.174,5.174,0,0,1-1.362-3.682V21.7a5.912,5.912,0,0,1,1.284-3.945,4.562,4.562,0,0,1,3.716-1.514,4.279,4.279,0,0,1,3.315,1.279,4.98,4.98,0,0,1,1.177,3.506v1.729h-6.055l-.02.059a2.052,2.052,0,0,0,.615,1.343,2.148,2.148,0,0,0,1.543.513,6.687,6.687,0,0,0,1.577-.156,9.942,9.942,0,0,0,1.44-.5l.791,2.012a6.04,6.04,0,0,1-1.836.84A8.473,8.473,0,0,1,119.3,27.205Zm-.127-8.428a1.362,1.362,0,0,0-1.167.5,2.523,2.523,0,0,0-.435,1.362l.02.049h2.852v-.254a2.2,2.2,0,0,0-.288-1.24A1.1,1.1,0,0,0,119.17,18.777Zm10.41,5.889a1.291,1.291,0,0,0,1.006-.366,1.526,1.526,0,0,0,.332-1.06h3.008l.02.059a3.469,3.469,0,0,1-1.2,2.817,4.616,4.616,0,0,1-3.169,1.089,4.675,4.675,0,0,1-3.716-1.489,5.679,5.679,0,0,1-1.3-3.882v-.225a5.7,5.7,0,0,1,1.3-3.877,4.64,4.64,0,0,1,3.7-1.494,4.545,4.545,0,0,1,3.218,1.118,3.857,3.857,0,0,1,1.167,3.062l-.02.059h-3.008a2.045,2.045,0,0,0-.342-1.226,1.172,1.172,0,0,0-1.016-.474,1.357,1.357,0,0,0-1.333.767,4.741,4.741,0,0,0-.376,2.065v.225a4.723,4.723,0,0,0,.376,2.08A1.378,1.378,0,0,0,129.58,24.666Zm12.08.752a3.473,3.473,0,0,1-1.216,1.323,3.2,3.2,0,0,1-1.724.464,3.129,3.129,0,0,1-2.573-1.152,5.618,5.618,0,0,1-.933-3.564V16.434h3.291v6.074a3.2,3.2,0,0,0,.317,1.7,1.111,1.111,0,0,0,.981.459,2.694,2.694,0,0,0,.928-.146,1.793,1.793,0,0,0,.684-.439V16.434h3.3V27h-2.656Zm10.977,1.572a3.986,3.986,0,0,1-.317-.752,5.766,5.766,0,0,1-.2-.879,4.037,4.037,0,0,1-1.06,1.343,2.558,2.558,0,0,1-1.646.5,3.659,3.659,0,0,1-2.583-.854,3.019,3.019,0,0,1-.923-2.329,2.817,2.817,0,0,1,1.182-2.427,6.126,6.126,0,0,1,3.584-.854h1.357v-.752a1.505,1.505,0,0,0-.322-1.035,1.255,1.255,0,0,0-.986-.361,1.19,1.19,0,0,0-.854.269,1.114,1.114,0,0,0-.278.835l-3.2-.01-.02-.059a2.756,2.756,0,0,1,1.206-2.417,5.4,5.4,0,0,1,3.364-.972,4.921,4.921,0,0,1,3.179.977,3.375,3.375,0,0,1,1.216,2.793v3.984a8.128,8.128,0,0,0,.142,1.563A8.369,8.369,0,0,0,155.9,27Zm-2.324-2.139a2.011,2.011,0,0,0,1.069-.283,1.621,1.621,0,0,0,.649-.674V22.5H150.7a1.492,1.492,0,0,0-1.143.381,1.37,1.37,0,0,0-.352.967.935.935,0,0,0,.308.728A1.141,1.141,0,0,0,150.313,24.852Zm12.666-5.605-1.074-.01a1.829,1.829,0,0,0-.928.21,1.3,1.3,0,0,0-.537.591V27h-3.3V16.434h3.105l.117,1.553a3.186,3.186,0,0,1,.879-1.289,1.929,1.929,0,0,1,1.279-.459,2.454,2.454,0,0,1,.4.029,3.028,3.028,0,0,1,.371.088ZM167.646,27h-3.311V16.434h3.311Zm0-13.018h-3.311V11.766h3.311Zm1.582,7.637a5.585,5.585,0,0,1,1.348-3.882,5.477,5.477,0,0,1,7.529,0,5.585,5.585,0,0,1,1.348,3.882v.205a5.581,5.581,0,0,1-1.348,3.887,5.49,5.49,0,0,1-7.529,0,5.581,5.581,0,0,1-1.348-3.887Zm3.3.205a4.369,4.369,0,0,0,.415,2.085,1.477,1.477,0,0,0,1.411.757,1.459,1.459,0,0,0,1.387-.762,4.331,4.331,0,0,0,.42-2.08v-.205a4.347,4.347,0,0,0-.42-2.065,1.471,1.471,0,0,0-1.406-.776,1.45,1.45,0,0,0-1.392.781,4.4,4.4,0,0,0-.415,2.061ZM184.59,27H181.3V24.227h3.291Z" transform="translate(-11961.177 -7691.215)" fill="#fff"/>
    <g id="Grupo_1100376" data-name="Grupo 1100376" transform="translate(-12736.333 -8477)">
      <rect id="Rectángulo_401213" data-name="Rectángulo 401213" width="218.4" height="55.153" rx="11" transform="translate(661.452 994.347)" fill="#02dd84"/>
      <text id="Evaluación_financiera" data-name="Evaluación financiera" transform="translate(774.944 1025.213)" fill="#12263f" font-size="16" font-family="Roboto-Bold, Roboto" font-weight="700"><tspan x="-76.672" y="0">Evaluación financiera</tspan></text>
    </g>
    <path id="Trazado_875197" data-name="Trazado 875197" d="M-46.187-5h-4.219v3.25h5.016V0h-7.3V-11.375h7.281v1.758h-5v2.859h4.219Zm5.078,1.852.148.781h.047l.156-.781,1.391-5.3h2.383L-39.859,0h-2.18l-2.875-8.453h2.383ZM-31.125,0a4.8,4.8,0,0,1-.215-.609,4.239,4.239,0,0,1-.129-.656A3.127,3.127,0,0,1-32.4-.242a2.33,2.33,0,0,1-1.375.406A2.855,2.855,0,0,1-35.82-.52a2.449,2.449,0,0,1-.719-1.863,2.229,2.229,0,0,1,.957-1.926,4.78,4.78,0,0,1,2.793-.684h1.281v-.672a1.315,1.315,0,0,0-.32-.945,1.257,1.257,0,0,0-.953-.336,1.239,1.239,0,0,0-.855.27.941.941,0,0,0-.3.738h-2.2l-.016-.047a2.144,2.144,0,0,1,.934-1.848,4.055,4.055,0,0,1,2.582-.777,3.784,3.784,0,0,1,2.465.766,2.667,2.667,0,0,1,.941,2.2v3.492a6.6,6.6,0,0,0,.09,1.117A5.606,5.606,0,0,0-28.852,0Zm-2.086-1.523a1.944,1.944,0,0,0,1.063-.3,1.6,1.6,0,0,0,.641-.687V-3.7h-1.281a1.519,1.519,0,0,0-1.1.359,1.181,1.181,0,0,0-.371.883.881.881,0,0,0,.277.684A1.1,1.1,0,0,0-33.211-1.523ZM-25.117,0H-27.4V-12.187h2.281Zm7.055-1.25A2.87,2.87,0,0,1-19.055-.2a2.63,2.63,0,0,1-1.4.367,2.57,2.57,0,0,1-2.09-.906A4.347,4.347,0,0,1-23.3-3.555v-4.9h2.273v4.914a2.729,2.729,0,0,0,.3,1.52,1.081,1.081,0,0,0,.934.41,2.273,2.273,0,0,0,.938-.176,1.58,1.58,0,0,0,.641-.52V-8.453h2.281V0H-17.82ZM-9.227,0a4.8,4.8,0,0,1-.215-.609,4.239,4.239,0,0,1-.129-.656A3.127,3.127,0,0,1-10.5-.242a2.33,2.33,0,0,1-1.375.406A2.855,2.855,0,0,1-13.922-.52a2.449,2.449,0,0,1-.719-1.863,2.229,2.229,0,0,1,.957-1.926,4.78,4.78,0,0,1,2.793-.684h1.281v-.672a1.315,1.315,0,0,0-.32-.945,1.257,1.257,0,0,0-.953-.336,1.239,1.239,0,0,0-.855.27.941.941,0,0,0-.3.738h-2.2l-.016-.047a2.144,2.144,0,0,1,.934-1.848,4.055,4.055,0,0,1,2.582-.777,3.784,3.784,0,0,1,2.465.766,2.667,2.667,0,0,1,.941,2.2v3.492a6.6,6.6,0,0,0,.09,1.117A5.606,5.606,0,0,0-6.953,0Zm-2.086-1.523a1.944,1.944,0,0,0,1.063-.3,1.6,1.6,0,0,0,.641-.687V-3.7h-1.281a1.519,1.519,0,0,0-1.1.359,1.181,1.181,0,0,0-.371.883.881.881,0,0,0,.277.684A1.1,1.1,0,0,0-11.312-1.523Zm9.227-.062a1.27,1.27,0,0,0,.945-.355,1.291,1.291,0,0,0,.352-.949H1.289l.016.047A2.645,2.645,0,0,1,.352-.7,3.564,3.564,0,0,1-2.086.164a3.6,3.6,0,0,1-2.9-1.2A4.558,4.558,0,0,1-6.008-4.1v-.234A4.588,4.588,0,0,1-4.988-7.4,3.57,3.57,0,0,1-2.1-8.609a3.486,3.486,0,0,1,2.492.891A2.976,2.976,0,0,1,1.3-5.375l-.016.047H-.789a1.687,1.687,0,0,0-.348-1.09A1.168,1.168,0,0,0-2.1-6.852a1.3,1.3,0,0,0-1.254.707,3.878,3.878,0,0,0-.371,1.809V-4.1a3.863,3.863,0,0,0,.371,1.82A1.32,1.32,0,0,0-2.086-1.586ZM5.031,0H2.75V-8.453H5.031Zm0-10.477H2.75v-1.711H5.031ZM6.555-4.3A4.536,4.536,0,0,1,7.609-7.4a3.676,3.676,0,0,1,2.922-1.207,3.715,3.715,0,0,1,2.938,1.2,4.512,4.512,0,0,1,1.063,3.1v.164a4.519,4.519,0,0,1-1.059,3.105,3.7,3.7,0,0,1-2.926,1.2,3.709,3.709,0,0,1-2.934-1.2A4.519,4.519,0,0,1,6.555-4.141Zm2.273.164a3.677,3.677,0,0,0,.406,1.855,1.4,1.4,0,0,0,1.313.7,1.389,1.389,0,0,0,1.293-.7,3.653,3.653,0,0,0,.41-1.852V-4.3a3.616,3.616,0,0,0-.414-1.836,1.4,1.4,0,0,0-1.3-.711,1.384,1.384,0,0,0-1.293.715A3.648,3.648,0,0,0,8.828-4.3Zm2.164-7.922h2.539l.016.047L11.383-9.984H9.438Zm7.031,3.609.1,1.211A3.092,3.092,0,0,1,19.164-8.25a2.7,2.7,0,0,1,1.383-.359,2.513,2.513,0,0,1,2,.824,3.908,3.908,0,0,1,.719,2.605V0H20.977V-5.172a2.024,2.024,0,0,0-.316-1.285,1.166,1.166,0,0,0-.949-.379,1.992,1.992,0,0,0-.895.191,1.746,1.746,0,0,0-.637.527V0H15.9V-8.453ZM28.6-4.156a5.493,5.493,0,0,1,.863-3.227A2.8,2.8,0,0,1,31.9-8.609a2.367,2.367,0,0,1,1.141.273,2.744,2.744,0,0,1,.891.781v-4.633h2.289V0H34.273l-.2-1.039a2.826,2.826,0,0,1-.945.895,2.5,2.5,0,0,1-1.25.309A2.858,2.858,0,0,1,29.465-.977,4.871,4.871,0,0,1,28.6-3.992Zm2.273.164a3.443,3.443,0,0,0,.375,1.746,1.306,1.306,0,0,0,1.219.637,1.775,1.775,0,0,0,.859-.2,1.589,1.589,0,0,0,.6-.582v-3.6a1.756,1.756,0,0,0-.6-.621,1.589,1.589,0,0,0-.848-.223,1.287,1.287,0,0,0-1.223.742,4.194,4.194,0,0,0-.387,1.938ZM41.648.164A3.8,3.8,0,0,1,38.7-1a4.252,4.252,0,0,1-1.062-2.988V-4.3a4.628,4.628,0,0,1,1.031-3.109,3.506,3.506,0,0,1,2.836-1.2,3.282,3.282,0,0,1,2.613,1.043,4.122,4.122,0,0,1,.91,2.809v1.18H39.984l-.023.047a2.284,2.284,0,0,0,.527,1.406,1.766,1.766,0,0,0,1.4.539,4.692,4.692,0,0,0,1.3-.156A5.307,5.307,0,0,0,44.3-2.219l.617,1.406a4.234,4.234,0,0,1-1.375.7A6.1,6.1,0,0,1,41.648.164ZM41.5-6.852a1.267,1.267,0,0,0-1.059.473,2.371,2.371,0,0,0-.449,1.254l.016.039h2.781v-.172a1.974,1.974,0,0,0-.3-1.168A1.127,1.127,0,0,0,41.5-6.852ZM48.75,0H46.469V-12.187H48.75Zm-104.9,20.008a4.855,4.855,0,0,1-.867,3.016,2.869,2.869,0,0,1-2.422,1.141,2.707,2.707,0,0,1-1.18-.246A2.423,2.423,0,0,1-61.5,23.2V27.25h-2.273v-11.7h2.055l.133,1a2.709,2.709,0,0,1,.9-.855,2.441,2.441,0,0,1,1.23-.3,2.813,2.813,0,0,1,2.438,1.227,5.474,5.474,0,0,1,.867,3.227Zm-2.281-.164a4.09,4.09,0,0,0-.4-1.937,1.3,1.3,0,0,0-1.219-.742,1.722,1.722,0,0,0-.879.211,1.505,1.505,0,0,0-.574.6v3.7a1.4,1.4,0,0,0,.574.547,1.935,1.935,0,0,0,.895.188,1.312,1.312,0,0,0,1.215-.648,3.423,3.423,0,0,0,.387-1.758Zm8.133-2.336-.836-.023a1.519,1.519,0,0,0-.836.211,1.337,1.337,0,0,0-.5.594V24h-2.273V15.547h2.117l.1,1.25a2.667,2.667,0,0,1,.77-1.035,1.715,1.715,0,0,1,1.09-.371,1.705,1.705,0,0,1,.316.027q.145.027.293.066Zm.68,2.188a4.536,4.536,0,0,1,1.055-3.1,3.676,3.676,0,0,1,2.922-1.207,3.715,3.715,0,0,1,2.938,1.2,4.512,4.512,0,0,1,1.063,3.1v.164A4.519,4.519,0,0,1-42.7,22.965a3.7,3.7,0,0,1-2.926,1.2,3.709,3.709,0,0,1-2.934-1.2,4.519,4.519,0,0,1-1.059-3.105Zm2.273.164a3.677,3.677,0,0,0,.406,1.855,1.4,1.4,0,0,0,1.313.7,1.389,1.389,0,0,0,1.293-.7,3.653,3.653,0,0,0,.41-1.852V19.7a3.616,3.616,0,0,0-.414-1.836,1.4,1.4,0,0,0-1.3-.711,1.384,1.384,0,0,0-1.293.715,3.648,3.648,0,0,0-.41,1.832Zm10.039.594.094.469h.047l1.617-5.375h2.453l-3.43,9.719a4.474,4.474,0,0,1-.977,1.527,2.505,2.505,0,0,1-1.852.621,2.863,2.863,0,0,1-.535-.047q-.246-.047-.6-.133l.266-1.664L-40,25.6a1.611,1.611,0,0,0,.211.016,1.243,1.243,0,0,0,.867-.277,1.83,1.83,0,0,0,.469-.691l.266-.656-3-8.445h2.453Zm8.688,3.711A3.8,3.8,0,0,1-31.57,23a4.252,4.252,0,0,1-1.062-2.988V19.7A4.628,4.628,0,0,1-31.6,16.594a3.506,3.506,0,0,1,2.836-1.2,3.282,3.282,0,0,1,2.613,1.043,4.122,4.122,0,0,1,.91,2.809v1.18h-5.039l-.023.047a2.284,2.284,0,0,0,.527,1.406,1.766,1.766,0,0,0,1.4.539,4.692,4.692,0,0,0,1.3-.156,5.307,5.307,0,0,0,1.105-.477l.617,1.406a4.234,4.234,0,0,1-1.375.7A6.1,6.1,0,0,1-28.617,24.164Zm-.148-7.016a1.267,1.267,0,0,0-1.059.473,2.371,2.371,0,0,0-.449,1.254l.016.039h2.781v-.172a1.974,1.974,0,0,0-.3-1.168A1.127,1.127,0,0,0-28.766,17.148Zm8.383,5.266a1.27,1.27,0,0,0,.945-.355,1.291,1.291,0,0,0,.352-.949h2.078l.016.047a2.645,2.645,0,0,1-.953,2.145,3.564,3.564,0,0,1-2.437.863,3.6,3.6,0,0,1-2.9-1.2A4.558,4.558,0,0,1-24.3,19.9v-.234a4.588,4.588,0,0,1,1.02-3.066A3.57,3.57,0,0,1-20.4,15.391a3.486,3.486,0,0,1,2.492.891,2.976,2.976,0,0,1,.914,2.344l-.016.047h-2.078a1.687,1.687,0,0,0-.348-1.09,1.168,1.168,0,0,0-.965-.434,1.3,1.3,0,0,0-1.254.707,3.878,3.878,0,0,0-.371,1.809V19.9a3.863,3.863,0,0,0,.371,1.82A1.32,1.32,0,0,0-20.383,22.414Zm7.453-8.937v2.07h1.43v1.6h-1.43v4.3a.982.982,0,0,0,.207.7.727.727,0,0,0,.543.211,2.178,2.178,0,0,0,.313-.02,2.632,2.632,0,0,0,.3-.066l.188,1.648a4.618,4.618,0,0,1-.668.176,3.982,3.982,0,0,1-.707.059,2.431,2.431,0,0,1-1.816-.648,2.843,2.843,0,0,1-.637-2.055V17.148h-1.234v-1.6H-15.2v-2.07Zm2.484,6.219a4.536,4.536,0,0,1,1.055-3.1,3.676,3.676,0,0,1,2.922-1.207,3.715,3.715,0,0,1,2.938,1.2,4.512,4.512,0,0,1,1.063,3.1v.164a4.519,4.519,0,0,1-1.059,3.105,3.7,3.7,0,0,1-2.926,1.2,3.709,3.709,0,0,1-2.934-1.2,4.519,4.519,0,0,1-1.059-3.105Zm2.273.164a3.677,3.677,0,0,0,.406,1.855,1.4,1.4,0,0,0,1.313.7,1.389,1.389,0,0,0,1.293-.7,3.653,3.653,0,0,0,.41-1.852V19.7a3.616,3.616,0,0,0-.414-1.836,1.4,1.4,0,0,0-1.3-.711,1.384,1.384,0,0,0-1.293.715,3.648,3.648,0,0,0-.41,1.832ZM5.039,15.547l.094,1.117a2.84,2.84,0,0,1,1.02-.941,2.932,2.932,0,0,1,1.418-.332,2.582,2.582,0,0,1,1.391.359,2.217,2.217,0,0,1,.875,1.086,2.93,2.93,0,0,1,1.016-1.062,2.756,2.756,0,0,1,1.469-.383,2.408,2.408,0,0,1,1.973.887,4.233,4.233,0,0,1,.723,2.707V24H12.734V18.977a2.369,2.369,0,0,0-.312-1.414,1.109,1.109,0,0,0-.93-.4,1.592,1.592,0,0,0-.84.215,1.565,1.565,0,0,0-.566.6q0,.148.008.254t.008.215V24H7.828V18.977a2.376,2.376,0,0,0-.312-1.4,1.1,1.1,0,0,0-.937-.41,1.769,1.769,0,0,0-.809.176,1.551,1.551,0,0,0-.574.5V24H2.922V15.547ZM20.43,24.164A3.8,3.8,0,0,1,17.477,23a4.252,4.252,0,0,1-1.062-2.988V19.7a4.628,4.628,0,0,1,1.031-3.109,3.506,3.506,0,0,1,2.836-1.2,3.282,3.282,0,0,1,2.613,1.043,4.122,4.122,0,0,1,.91,2.809v1.18H18.766l-.023.047a2.284,2.284,0,0,0,.527,1.406,1.766,1.766,0,0,0,1.4.539,4.692,4.692,0,0,0,1.3-.156,5.307,5.307,0,0,0,1.105-.477l.617,1.406a4.234,4.234,0,0,1-1.375.7A6.1,6.1,0,0,1,20.43,24.164Zm-.148-7.016a1.267,1.267,0,0,0-1.059.473,2.371,2.371,0,0,0-.449,1.254l.016.039H21.57v-.172a1.974,1.974,0,0,0-.3-1.168A1.127,1.127,0,0,0,20.281,17.148Zm9.3.359-.836-.023a1.519,1.519,0,0,0-.836.211,1.337,1.337,0,0,0-.5.594V24H25.133V15.547H27.25l.1,1.25a2.667,2.667,0,0,1,.77-1.035,1.8,1.8,0,0,1,1.406-.344q.145.027.293.066Zm4.57,4.906a1.27,1.27,0,0,0,.945-.355,1.291,1.291,0,0,0,.352-.949h2.078l.016.047a2.645,2.645,0,0,1-.953,2.145,3.564,3.564,0,0,1-2.437.863,3.6,3.6,0,0,1-2.9-1.2A4.558,4.558,0,0,1,30.227,19.9v-.234a4.588,4.588,0,0,1,1.02-3.066,3.57,3.57,0,0,1,2.887-1.207,3.486,3.486,0,0,1,2.492.891,2.976,2.976,0,0,1,.914,2.344l-.016.047H35.445a1.687,1.687,0,0,0-.348-1.09,1.168,1.168,0,0,0-.965-.434,1.3,1.3,0,0,0-1.254.707,3.878,3.878,0,0,0-.371,1.809V19.9a3.863,3.863,0,0,0,.371,1.82A1.32,1.32,0,0,0,34.148,22.414ZM43.852,24a4.8,4.8,0,0,1-.215-.609,4.239,4.239,0,0,1-.129-.656,3.127,3.127,0,0,1-.93,1.023,2.33,2.33,0,0,1-1.375.406,2.855,2.855,0,0,1-2.047-.684,2.449,2.449,0,0,1-.719-1.863,2.229,2.229,0,0,1,.957-1.926,4.78,4.78,0,0,1,2.793-.684h1.281v-.672a1.315,1.315,0,0,0-.32-.945,1.257,1.257,0,0,0-.953-.336,1.239,1.239,0,0,0-.855.27.941.941,0,0,0-.3.738h-2.2l-.016-.047a2.144,2.144,0,0,1,.934-1.848,4.055,4.055,0,0,1,2.582-.777,3.784,3.784,0,0,1,2.465.766,2.667,2.667,0,0,1,.941,2.2v3.492a6.605,6.605,0,0,0,.09,1.117A5.606,5.606,0,0,0,46.125,24Zm-2.086-1.523a1.944,1.944,0,0,0,1.063-.3,1.6,1.6,0,0,0,.641-.687V20.3H42.188a1.519,1.519,0,0,0-1.1.359,1.181,1.181,0,0,0-.371.883.881.881,0,0,0,.277.684A1.1,1.1,0,0,0,41.766,22.477Zm5.344-2.633a5.493,5.493,0,0,1,.863-3.227,2.8,2.8,0,0,1,2.434-1.227,2.367,2.367,0,0,1,1.141.273,2.744,2.744,0,0,1,.891.781V11.813h2.289V24H52.781l-.2-1.039a2.826,2.826,0,0,1-.945.895,2.5,2.5,0,0,1-1.25.309,2.858,2.858,0,0,1-2.418-1.141,4.871,4.871,0,0,1-.863-3.016Zm2.273.164a3.443,3.443,0,0,0,.375,1.746,1.306,1.306,0,0,0,1.219.637,1.775,1.775,0,0,0,.859-.2,1.589,1.589,0,0,0,.6-.582v-3.6a1.756,1.756,0,0,0-.6-.621,1.589,1.589,0,0,0-.848-.223,1.287,1.287,0,0,0-1.223.742,4.194,4.194,0,0,0-.387,1.938Zm6.758-.312A4.536,4.536,0,0,1,57.2,16.6a3.676,3.676,0,0,1,2.922-1.207,3.715,3.715,0,0,1,2.938,1.2,4.512,4.512,0,0,1,1.063,3.1v.164a4.519,4.519,0,0,1-1.059,3.105,4.178,4.178,0,0,1-5.859,0,4.519,4.519,0,0,1-1.059-3.105Zm2.273.164a3.677,3.677,0,0,0,.406,1.855,1.561,1.561,0,0,0,2.605,0,3.653,3.653,0,0,0,.41-1.852V19.7a3.616,3.616,0,0,0-.414-1.836,1.4,1.4,0,0,0-1.3-.711,1.384,1.384,0,0,0-1.293.715,3.648,3.648,0,0,0-.41,1.832Z" transform="translate(-12298.975 -7461.403)" fill="#12263f"/>
    <path id="Trazado_875204" data-name="Trazado 875204" d="M-33.359-5h-4.219v3.25h5.016V0h-7.3V-11.375h7.281v1.758h-5v2.859h4.219Zm5.078,1.852.148.781h.047l.156-.781,1.391-5.3h2.383L-27.031,0h-2.18l-2.875-8.453H-29.7ZM-18.3,0a4.8,4.8,0,0,1-.215-.609,4.239,4.239,0,0,1-.129-.656,3.127,3.127,0,0,1-.93,1.023,2.33,2.33,0,0,1-1.375.406A2.855,2.855,0,0,1-22.992-.52a2.449,2.449,0,0,1-.719-1.863,2.229,2.229,0,0,1,.957-1.926,4.78,4.78,0,0,1,2.793-.684h1.281v-.672A1.315,1.315,0,0,0-19-6.609a1.257,1.257,0,0,0-.953-.336,1.239,1.239,0,0,0-.855.27.941.941,0,0,0-.3.738h-2.2l-.016-.047a2.144,2.144,0,0,1,.934-1.848A4.055,4.055,0,0,1-19.8-8.609a3.784,3.784,0,0,1,2.465.766,2.667,2.667,0,0,1,.941,2.2v3.492a6.6,6.6,0,0,0,.09,1.117A5.606,5.606,0,0,0-16.023,0Zm-2.086-1.523a1.944,1.944,0,0,0,1.063-.3,1.6,1.6,0,0,0,.641-.687V-3.7h-1.281a1.519,1.519,0,0,0-1.1.359,1.181,1.181,0,0,0-.371.883.881.881,0,0,0,.277.684A1.1,1.1,0,0,0-20.383-1.523ZM-12.289,0H-14.57V-12.187h2.281Zm7.055-1.25A2.87,2.87,0,0,1-6.227-.2a2.63,2.63,0,0,1-1.4.367,2.57,2.57,0,0,1-2.09-.906,4.347,4.347,0,0,1-.754-2.812v-4.9H-8.2v4.914a2.729,2.729,0,0,0,.3,1.52,1.081,1.081,0,0,0,.934.41,2.273,2.273,0,0,0,.938-.176,1.58,1.58,0,0,0,.641-.52V-8.453H-3.1V0H-4.992ZM3.6,0a4.8,4.8,0,0,1-.215-.609,4.239,4.239,0,0,1-.129-.656,3.127,3.127,0,0,1-.93,1.023A2.33,2.33,0,0,1,.953.164,2.855,2.855,0,0,1-1.094-.52a2.449,2.449,0,0,1-.719-1.863A2.229,2.229,0,0,1-.855-4.309a4.78,4.78,0,0,1,2.793-.684H3.219v-.672a1.315,1.315,0,0,0-.32-.945,1.257,1.257,0,0,0-.953-.336,1.239,1.239,0,0,0-.855.27.941.941,0,0,0-.3.738h-2.2l-.016-.047A2.144,2.144,0,0,1-.488-7.832a4.055,4.055,0,0,1,2.582-.777,3.784,3.784,0,0,1,2.465.766,2.667,2.667,0,0,1,.941,2.2v3.492a6.6,6.6,0,0,0,.09,1.117A5.606,5.606,0,0,0,5.875,0ZM1.516-1.523a1.944,1.944,0,0,0,1.063-.3,1.6,1.6,0,0,0,.641-.687V-3.7H1.938a1.519,1.519,0,0,0-1.1.359,1.181,1.181,0,0,0-.371.883.881.881,0,0,0,.277.684A1.1,1.1,0,0,0,1.516-1.523Zm9.227-.062a1.27,1.27,0,0,0,.945-.355,1.291,1.291,0,0,0,.352-.949h2.078l.016.047A2.645,2.645,0,0,1,13.18-.7a3.564,3.564,0,0,1-2.437.863,3.6,3.6,0,0,1-2.9-1.2A4.558,4.558,0,0,1,6.82-4.1v-.234A4.588,4.588,0,0,1,7.84-7.4a3.57,3.57,0,0,1,2.887-1.207,3.486,3.486,0,0,1,2.492.891,2.976,2.976,0,0,1,.914,2.344l-.016.047H12.039a1.687,1.687,0,0,0-.348-1.09,1.168,1.168,0,0,0-.965-.434,1.3,1.3,0,0,0-1.254.707A3.878,3.878,0,0,0,9.1-4.336V-4.1a3.863,3.863,0,0,0,.371,1.82A1.32,1.32,0,0,0,10.742-1.586ZM17.859,0H15.578V-8.453h2.281Zm0-10.477H15.578v-1.711h2.281ZM19.383-4.3a4.536,4.536,0,0,1,1.055-3.1,3.676,3.676,0,0,1,2.922-1.207,3.715,3.715,0,0,1,2.938,1.2,4.512,4.512,0,0,1,1.063,3.1v.164A4.519,4.519,0,0,1,26.3-1.035a3.7,3.7,0,0,1-2.926,1.2,3.709,3.709,0,0,1-2.934-1.2,4.519,4.519,0,0,1-1.059-3.105Zm2.273.164a3.677,3.677,0,0,0,.406,1.855,1.4,1.4,0,0,0,1.313.7,1.389,1.389,0,0,0,1.293-.7,3.653,3.653,0,0,0,.41-1.852V-4.3a3.616,3.616,0,0,0-.414-1.836,1.4,1.4,0,0,0-1.3-.711,1.384,1.384,0,0,0-1.293.715,3.648,3.648,0,0,0-.41,1.832Zm2.164-7.922h2.539l.016.047L24.211-9.984H22.266Zm7.031,3.609.1,1.211A3.092,3.092,0,0,1,31.992-8.25a2.7,2.7,0,0,1,1.383-.359,2.513,2.513,0,0,1,2,.824,3.908,3.908,0,0,1,.719,2.605V0H33.8V-5.172a2.024,2.024,0,0,0-.316-1.285,1.166,1.166,0,0,0-.949-.379,1.992,1.992,0,0,0-.895.191,1.746,1.746,0,0,0-.637.527V0H28.727V-8.453ZM-60.117,24.164A3.8,3.8,0,0,1-63.07,23a4.252,4.252,0,0,1-1.062-2.988V19.7A4.628,4.628,0,0,1-63.1,16.594a3.506,3.506,0,0,1,2.836-1.2,3.282,3.282,0,0,1,2.613,1.043,4.122,4.122,0,0,1,.91,2.809v1.18h-5.039l-.023.047a2.284,2.284,0,0,0,.527,1.406,1.766,1.766,0,0,0,1.4.539,4.692,4.692,0,0,0,1.3-.156,5.307,5.307,0,0,0,1.105-.477l.617,1.406a4.234,4.234,0,0,1-1.375.7A6.1,6.1,0,0,1-60.117,24.164Zm-.148-7.016a1.267,1.267,0,0,0-1.059.473,2.371,2.371,0,0,0-.449,1.254l.016.039h2.781v-.172a1.974,1.974,0,0,0-.3-1.168A1.127,1.127,0,0,0-60.266,17.148Zm8.383,5.266a1.27,1.27,0,0,0,.945-.355,1.291,1.291,0,0,0,.352-.949h2.078l.016.047a2.645,2.645,0,0,1-.953,2.145,3.564,3.564,0,0,1-2.437.863,3.6,3.6,0,0,1-2.9-1.2A4.558,4.558,0,0,1-55.8,19.9v-.234a4.588,4.588,0,0,1,1.02-3.066A3.57,3.57,0,0,1-51.9,15.391a3.486,3.486,0,0,1,2.492.891,2.976,2.976,0,0,1,.914,2.344l-.016.047h-2.078a1.687,1.687,0,0,0-.348-1.09,1.168,1.168,0,0,0-.965-.434,1.3,1.3,0,0,0-1.254.707,3.878,3.878,0,0,0-.371,1.809V19.9a3.863,3.863,0,0,0,.371,1.82A1.32,1.32,0,0,0-51.883,22.414Zm4.367-2.719a4.536,4.536,0,0,1,1.055-3.1,3.676,3.676,0,0,1,2.922-1.207,3.715,3.715,0,0,1,2.938,1.2,4.512,4.512,0,0,1,1.063,3.1v.164A4.519,4.519,0,0,1-40.6,22.965a3.7,3.7,0,0,1-2.926,1.2,3.709,3.709,0,0,1-2.934-1.2,4.519,4.519,0,0,1-1.059-3.105Zm2.273.164a3.677,3.677,0,0,0,.406,1.855,1.4,1.4,0,0,0,1.313.7,1.389,1.389,0,0,0,1.293-.7,3.653,3.653,0,0,0,.41-1.852V19.7a3.616,3.616,0,0,0-.414-1.836,1.4,1.4,0,0,0-1.3-.711,1.384,1.384,0,0,0-1.293.715,3.648,3.648,0,0,0-.41,1.832Zm9.2-4.312.1,1.211a3.092,3.092,0,0,1,1.039-1.008,2.7,2.7,0,0,1,1.383-.359,2.513,2.513,0,0,1,2,.824A3.908,3.908,0,0,1-30.8,18.82V24h-2.289V18.828a2.024,2.024,0,0,0-.316-1.285,1.166,1.166,0,0,0-.949-.379,1.992,1.992,0,0,0-.895.191,1.746,1.746,0,0,0-.637.527V24h-2.281V15.547Zm6.594,4.148A4.536,4.536,0,0,1-28.4,16.6a3.676,3.676,0,0,1,2.922-1.207,3.715,3.715,0,0,1,2.938,1.2,4.512,4.512,0,0,1,1.063,3.1v.164a4.519,4.519,0,0,1-1.059,3.105,3.7,3.7,0,0,1-2.926,1.2,3.709,3.709,0,0,1-2.934-1.2,4.519,4.519,0,0,1-1.059-3.105Zm2.273.164a3.677,3.677,0,0,0,.406,1.855,1.4,1.4,0,0,0,1.313.7,1.389,1.389,0,0,0,1.293-.7,3.653,3.653,0,0,0,.41-1.852V19.7a3.616,3.616,0,0,0-.414-1.836,1.4,1.4,0,0,0-1.3-.711,1.384,1.384,0,0,0-1.293.715,3.648,3.648,0,0,0-.41,1.832Zm2.164-7.922h2.539l.016.047-2.164,2.031H-26.57Zm7.063,3.609.094,1.117a2.84,2.84,0,0,1,1.02-.941,2.932,2.932,0,0,1,1.418-.332,2.582,2.582,0,0,1,1.391.359,2.217,2.217,0,0,1,.875,1.086,2.93,2.93,0,0,1,1.016-1.062,2.756,2.756,0,0,1,1.469-.383,2.408,2.408,0,0,1,1.973.887,4.233,4.233,0,0,1,.723,2.707V24h-2.281V18.977a2.369,2.369,0,0,0-.312-1.414,1.109,1.109,0,0,0-.93-.4,1.592,1.592,0,0,0-.84.215,1.565,1.565,0,0,0-.566.6q0,.148.008.254t.008.215V24h-2.273V18.977a2.376,2.376,0,0,0-.312-1.4,1.1,1.1,0,0,0-.937-.41,1.769,1.769,0,0,0-.809.176,1.551,1.551,0,0,0-.574.5V24H-20.07V15.547ZM-3.828,24H-6.109V15.547h2.281Zm0-10.477H-6.109V11.813h2.281Zm5.406,8.891a1.27,1.27,0,0,0,.945-.355,1.291,1.291,0,0,0,.352-.949H4.953l.016.047A2.645,2.645,0,0,1,4.016,23.3a3.564,3.564,0,0,1-2.437.863,3.6,3.6,0,0,1-2.9-1.2A4.558,4.558,0,0,1-2.344,19.9v-.234A4.588,4.588,0,0,1-1.324,16.6a3.57,3.57,0,0,1,2.887-1.207,3.486,3.486,0,0,1,2.492.891,2.976,2.976,0,0,1,.914,2.344l-.016.047H2.875a1.687,1.687,0,0,0-.348-1.09,1.168,1.168,0,0,0-.965-.434,1.3,1.3,0,0,0-1.254.707,3.878,3.878,0,0,0-.371,1.809V19.9a3.863,3.863,0,0,0,.371,1.82A1.32,1.32,0,0,0,1.578,22.414ZM11.281,24a4.8,4.8,0,0,1-.215-.609,4.239,4.239,0,0,1-.129-.656,3.127,3.127,0,0,1-.93,1.023,2.33,2.33,0,0,1-1.375.406,2.855,2.855,0,0,1-2.047-.684,2.449,2.449,0,0,1-.719-1.863,2.229,2.229,0,0,1,.957-1.926,4.78,4.78,0,0,1,2.793-.684H10.9v-.672a1.315,1.315,0,0,0-.32-.945,1.257,1.257,0,0,0-.953-.336,1.239,1.239,0,0,0-.855.27.941.941,0,0,0-.3.738h-2.2l-.016-.047a2.144,2.144,0,0,1,.934-1.848,4.055,4.055,0,0,1,2.582-.777,3.784,3.784,0,0,1,2.465.766,2.667,2.667,0,0,1,.941,2.2v3.492a6.6,6.6,0,0,0,.09,1.117A5.606,5.606,0,0,0,13.555,24ZM9.2,22.477a1.944,1.944,0,0,0,1.063-.3,1.6,1.6,0,0,0,.641-.687V20.3H9.617a1.519,1.519,0,0,0-1.1.359,1.181,1.181,0,0,0-.371.883.881.881,0,0,0,.277.684A1.1,1.1,0,0,0,9.2,22.477Zm14.25-.82a.787.787,0,0,0-.363-.645,3.69,3.69,0,0,0-1.348-.473,5.375,5.375,0,0,1-2.254-.9,1.962,1.962,0,0,1-.77-1.633,2.329,2.329,0,0,1,.922-1.852,3.717,3.717,0,0,1,2.453-.766,4.011,4.011,0,0,1,2.566.766,2.237,2.237,0,0,1,.926,1.906l-.016.047h-2.2a1.106,1.106,0,0,0-.328-.828,1.534,1.534,0,0,0-1.812-.047.85.85,0,0,0-.32.672.759.759,0,0,0,.332.637,3.7,3.7,0,0,0,1.348.441,5.484,5.484,0,0,1,2.316.918,2.014,2.014,0,0,1,.762,1.668,2.231,2.231,0,0,1-.977,1.867,4.215,4.215,0,0,1-2.578.727,3.918,3.918,0,0,1-2.668-.855,2.392,2.392,0,0,1-.934-1.949l.016-.047H20.6a1.186,1.186,0,0,0,.445.984,1.838,1.838,0,0,0,1.1.3,1.567,1.567,0,0,0,.965-.254A.824.824,0,0,0,23.445,21.656ZM26.773,19.7a4.536,4.536,0,0,1,1.055-3.1,3.676,3.676,0,0,1,2.922-1.207,3.715,3.715,0,0,1,2.938,1.2,4.512,4.512,0,0,1,1.063,3.1v.164a4.519,4.519,0,0,1-1.059,3.105,3.7,3.7,0,0,1-2.926,1.2,3.709,3.709,0,0,1-2.934-1.2,4.519,4.519,0,0,1-1.059-3.105Zm2.273.164a3.677,3.677,0,0,0,.406,1.855,1.561,1.561,0,0,0,2.605,0,3.653,3.653,0,0,0,.41-1.852V19.7a3.616,3.616,0,0,0-.414-1.836,1.4,1.4,0,0,0-1.3-.711,1.384,1.384,0,0,0-1.293.715,3.648,3.648,0,0,0-.41,1.832Zm10.641,2.555a1.27,1.27,0,0,0,.945-.355,1.291,1.291,0,0,0,.352-.949h2.078l.016.047a2.645,2.645,0,0,1-.953,2.145,3.564,3.564,0,0,1-2.437.863,3.6,3.6,0,0,1-2.9-1.2A4.558,4.558,0,0,1,35.766,19.9v-.234a4.588,4.588,0,0,1,1.02-3.066,3.57,3.57,0,0,1,2.887-1.207,3.486,3.486,0,0,1,2.492.891,2.976,2.976,0,0,1,.914,2.344l-.016.047H40.984a1.687,1.687,0,0,0-.348-1.09,1.168,1.168,0,0,0-.965-.434,1.3,1.3,0,0,0-1.254.707,3.878,3.878,0,0,0-.371,1.809V19.9a3.863,3.863,0,0,0,.371,1.82A1.32,1.32,0,0,0,39.688,22.414ZM46.8,24H44.523V15.547H46.8Zm0-10.477H44.523V11.813H46.8ZM53.664,24a4.8,4.8,0,0,1-.215-.609,4.239,4.239,0,0,1-.129-.656,3.127,3.127,0,0,1-.93,1.023,2.33,2.33,0,0,1-1.375.406,2.855,2.855,0,0,1-2.047-.684,2.449,2.449,0,0,1-.719-1.863,2.229,2.229,0,0,1,.957-1.926A4.78,4.78,0,0,1,52,19.008h1.281v-.672a1.315,1.315,0,0,0-.32-.945,1.257,1.257,0,0,0-.953-.336,1.239,1.239,0,0,0-.855.27.941.941,0,0,0-.3.738h-2.2l-.016-.047a2.144,2.144,0,0,1,.934-1.848,4.055,4.055,0,0,1,2.582-.777,3.784,3.784,0,0,1,2.465.766,2.667,2.667,0,0,1,.941,2.2v3.492a6.605,6.605,0,0,0,.09,1.117A5.606,5.606,0,0,0,55.938,24Zm-2.086-1.523a1.944,1.944,0,0,0,1.063-.3,1.6,1.6,0,0,0,.641-.687V20.3H52a1.519,1.519,0,0,0-1.1.359,1.181,1.181,0,0,0-.371.883.881.881,0,0,0,.277.684A1.1,1.1,0,0,0,51.578,22.477ZM59.672,24H57.391V11.813h2.281Z" transform="translate(-11597.714 -7458.717)" fill="#12263f"/>
    <g id="Grupo_1100377" data-name="Grupo 1100377" transform="translate(-12755.877 -8387.588)">
      <path id="Trazado_873496" data-name="Trazado 873496" d="M-11801-8646v38.672" transform="translate(12593.333 9460.667)" fill="none" stroke="#01927f" stroke-width="2"/>
    </g>
    <g id="Grupo_1100378" data-name="Grupo 1100378" transform="translate(-12756.934 -8456.416)">
      <path id="Trazado_873496-2" data-name="Trazado 873496" d="M-11801-8646v38.672" transform="translate(12593.333 9460.667)" fill="none" stroke="#01927f" stroke-width="2"/>
    </g>
    <g id="Grupo_1100379" data-name="Grupo 1100379" transform="translate(-12298.519 -7415.387)">
      <path id="Trazado_873496-3" data-name="Trazado 873496" d="M-11801-8646v38.672" transform="translate(11801 8646.001)" fill="none" stroke="#01927f" stroke-width="2"/>
    </g>
    <g id="Grupo_1100380" data-name="Grupo 1100380" transform="translate(-11963.177 -7427.5)">
      <path id="Trazado_873496-4" data-name="Trazado 873496" d="M-11801-8646v38.672" transform="translate(11801 8646.001)" fill="none" stroke="#01927f" stroke-width="2"/>
    </g>
    <g id="Grupo_1100381" data-name="Grupo 1100381" transform="translate(-11597.258 -7417.616)">
      <path id="Trazado_873496-5" data-name="Trazado 873496" d="M-11801-8646v38.672" transform="translate(11801 8646.001)" fill="none" stroke="#01927f" stroke-width="2"/>
    </g>
    <g id="Grupo_1100382" data-name="Grupo 1100382" transform="translate(-13091.309 -8440.814)">
      <path id="Trazado_873496-6" data-name="Trazado 873496" d="M-11801-8646v40.334" transform="translate(12593.333 9552.667)" fill="none" stroke="#01927f" stroke-width="2"/>
      <g id="Grupo_1099075" data-name="Grupo 1099075" transform="translate(781.669 931.218)">
        <g id="Grupo_1099074" data-name="Grupo 1099074" transform="translate(0 0)" clip-path="url(#clip-path)">
          <path id="Trazado_873497" data-name="Trazado 873497" d="M21.182.857A21.249,21.249,0,0,0,10.848,19.1,21.248,21.248,0,0,0,.514.857" transform="translate(-0.184 -0.306)" fill="none" stroke="#01927f" stroke-miterlimit="10" stroke-width="2"/>
        </g>
      </g>
    </g>
    <g id="Grupo_1100383" data-name="Grupo 1100383" transform="translate(-12755.877 -8441.295)">
      <path id="Trazado_873496-7" data-name="Trazado 873496" d="M-11801-8646v40.334" transform="translate(12593.333 9552.667)" fill="none" stroke="#01927f" stroke-width="2"/>
      <g id="Grupo_1099075-2" data-name="Grupo 1099075" transform="translate(781.669 931.218)">
        <g id="Grupo_1099074-2" data-name="Grupo 1099074" transform="translate(0 0)" clip-path="url(#clip-path)">
          <path id="Trazado_873497-2" data-name="Trazado 873497" d="M21.182.857A21.249,21.249,0,0,0,10.848,19.1,21.248,21.248,0,0,0,.514.857" transform="translate(-0.184 -0.306)" fill="none" stroke="#01927f" stroke-miterlimit="10" stroke-width="2"/>
        </g>
      </g>
    </g>
    <g id="Grupo_1100384" data-name="Grupo 1100384" transform="translate(-12309.641 -7330.785)">
      <path id="Trazado_873496-8" data-name="Trazado 873496" d="M-11801-8646v40.334" transform="translate(11811.665 8646.001)" fill="none" stroke="#01927f" stroke-width="2"/>
      <g id="Grupo_1099075-3" data-name="Grupo 1099075" transform="translate(0 24.551)">
        <g id="Grupo_1099074-3" data-name="Grupo 1099074" clip-path="url(#clip-path)">
          <path id="Trazado_873497-3" data-name="Trazado 873497" d="M21.182.857A21.248,21.248,0,0,0,10.848,19.1,21.248,21.248,0,0,0,.514.857" transform="translate(-0.184 -0.306)" fill="none" stroke="#01927f" stroke-miterlimit="10" stroke-width="2"/>
        </g>
      </g>
    </g>
    <g id="Grupo_1100385" data-name="Grupo 1100385" transform="translate(-11973.842 -7366.922)">
      <path id="Trazado_873496-9" data-name="Trazado 873496" d="M-11801-8646v40.334" transform="translate(11811.665 8646.001)" fill="none" stroke="#01927f" stroke-width="2"/>
      <g id="Grupo_1099075-4" data-name="Grupo 1099075" transform="translate(0 24.551)">
        <g id="Grupo_1099074-4" data-name="Grupo 1099074" clip-path="url(#clip-path)">
          <path id="Trazado_873497-4" data-name="Trazado 873497" d="M21.182.857A21.248,21.248,0,0,0,10.848,19.1,21.248,21.248,0,0,0,.514.857" transform="translate(-0.184 -0.306)" fill="none" stroke="#01927f" stroke-miterlimit="10" stroke-width="2"/>
        </g>
      </g>
    </g>
    <g id="Grupo_1100386" data-name="Grupo 1100386" transform="translate(-11608.824 -7355.344)">
      <path id="Trazado_873496-10" data-name="Trazado 873496" d="M-11801-8646v40.334" transform="translate(11811.664 8646.001)" fill="none" stroke="#01927f" stroke-width="2"/>
      <g id="Grupo_1099075-5" data-name="Grupo 1099075" transform="translate(0 24.551)">
        <g id="Grupo_1099074-5" data-name="Grupo 1099074" transform="translate(0)" clip-path="url(#clip-path-5)">
          <path id="Trazado_873497-5" data-name="Trazado 873497" d="M21.181.857A21.249,21.249,0,0,0,10.848,19.1,21.248,21.248,0,0,0,.514.857" transform="translate(-0.184 -0.306)" fill="none" stroke="#01927f" stroke-miterlimit="10" stroke-width="2"/>
        </g>
      </g>
    </g>
    <g id="Grupo_1100387" data-name="Grupo 1100387" transform="translate(-12390.047 -8439.744)">
      <path id="Trazado_873496-11" data-name="Trazado 873496" d="M-11801-8646v40.334" transform="translate(12593.333 9552.667)" fill="none" stroke="#01927f" stroke-width="2"/>
      <g id="Grupo_1099075-6" data-name="Grupo 1099075" transform="translate(781.669 931.218)">
        <g id="Grupo_1099074-6" data-name="Grupo 1099074" transform="translate(0 0)" clip-path="url(#clip-path)">
          <path id="Trazado_873497-6" data-name="Trazado 873497" d="M21.182.857A21.249,21.249,0,0,0,10.848,19.1,21.248,21.248,0,0,0,.514.857" transform="translate(-0.184 -0.306)" fill="none" stroke="#01927f" stroke-miterlimit="10" stroke-width="2"/>
        </g>
      </g>
    </g>
    <path id="Trazado_875195" data-name="Trazado 875195" d="M-12230.666-8584.328h701.773" transform="translate(-68.31 1051.25)" fill="none" stroke="#01927f" stroke-width="2"/>
    <g id="Grupo_1100388" data-name="Grupo 1100388" transform="translate(-12693.781 -8243.908)">
      <rect id="Rectángulo_401219" data-name="Rectángulo 401219" width="228.971" height="97.007" rx="11" transform="translate(280.321 960.234)" fill="#99f2ce"/>
      <text id="Técnicas_objetivos_criterios_privados_y_social_fases_de_ciclo_de_vida." data-name="Técnicas, objetivos, criterios privados y social, fases de ciclo de vida." transform="translate(295.655 975.219)" fill="#12263f" font-size="16" font-family="Roboto-Regular, Roboto"><tspan x="-70.586" y="15">Técnicas, objetivos, </tspan><tspan x="-93.348" y="39">criterios privados y social, </tspan><tspan x="-78.891" y="63">fases de ciclo de vida.</tspan></text>
    </g>
    <path id="Trazado_875200" data-name="Trazado 875200" d="M1.273,0V-11.375H4.984a4.5,4.5,0,0,1,2.789.77A2.722,2.722,0,0,1,8.781-8.3,2.087,2.087,0,0,1,8.328-6.98a2.845,2.845,0,0,1-1.2.887,2.646,2.646,0,0,1,1.77.969,2.965,2.965,0,0,1,.652,1.914A2.9,2.9,0,0,1,8.531-.824,4.238,4.238,0,0,1,5.781,0ZM2.813-5.336V-1.2H5.781a2.374,2.374,0,0,0,1.637-.52A1.871,1.871,0,0,0,8-3.2a2.03,2.03,0,0,0-.594-1.523,2.334,2.334,0,0,0-1.6-.617H2.813Zm0-1.2H5.3a2.044,2.044,0,0,0,1.4-.473,1.659,1.659,0,0,0,.539-1.316A1.645,1.645,0,0,0,6.66-9.707a2.664,2.664,0,0,0-1.676-.457H2.813ZM16.641-1.258A2.884,2.884,0,0,1,15.613-.207a2.782,2.782,0,0,1-1.441.371,2.716,2.716,0,0,1-2.156-.883,4.1,4.1,0,0,1-.773-2.75V-8.453h1.539v5a3.147,3.147,0,0,0,.4,1.859,1.481,1.481,0,0,0,1.242.508,2.508,2.508,0,0,0,1.355-.336,2.094,2.094,0,0,0,.809-.953V-8.453h1.539V0H16.742Zm8.641-1.016a1.026,1.026,0,0,0-.387-.828,3.732,3.732,0,0,0-1.465-.562,6.146,6.146,0,0,1-2.293-.9,1.814,1.814,0,0,1-.8-1.547,2.229,2.229,0,0,1,.879-1.766,3.433,3.433,0,0,1,2.277-.734,3.4,3.4,0,0,1,2.328.781,2.239,2.239,0,0,1,.852,1.82l-.016.047H25.188a1.331,1.331,0,0,0-.48-.992A1.717,1.717,0,0,0,23.492-7.4a1.751,1.751,0,0,0-1.215.367,1.146,1.146,0,0,0-.4.875.927.927,0,0,0,.348.773,3.848,3.848,0,0,0,1.434.5,6.058,6.058,0,0,1,2.359.93,1.872,1.872,0,0,1,.8,1.57,2.226,2.226,0,0,1-.91,1.836,3.754,3.754,0,0,1-2.379.711,3.715,3.715,0,0,1-2.547-.82A2.341,2.341,0,0,1,20.1-2.57l.016-.047h1.469a1.424,1.424,0,0,0,.609,1.2,2.358,2.358,0,0,0,1.336.379,2.1,2.1,0,0,0,1.285-.348A1.063,1.063,0,0,0,25.281-2.273Zm6.813,1.234a1.81,1.81,0,0,0,1.242-.473,1.494,1.494,0,0,0,.531-1.16h1.391l.023.047a2.428,2.428,0,0,1-.937,1.941,3.312,3.312,0,0,1-2.25.848,3.319,3.319,0,0,1-2.75-1.211,4.674,4.674,0,0,1-.969-3.016v-.328a4.654,4.654,0,0,1,.973-3,3.317,3.317,0,0,1,2.746-1.215,3.189,3.189,0,0,1,2.316.875,2.775,2.775,0,0,1,.871,2.148l-.016.047h-1.4a1.865,1.865,0,0,0-.5-1.316,1.658,1.658,0,0,0-1.27-.543,1.777,1.777,0,0,0-1.652.879,4.114,4.114,0,0,0-.52,2.129v.328a4.192,4.192,0,0,0,.512,2.148A1.776,1.776,0,0,0,32.094-1.039ZM42.3,0q-.078-.383-.121-.676a4.96,4.96,0,0,1-.051-.59,3.589,3.589,0,0,1-1.121,1.02,2.867,2.867,0,0,1-1.488.41,2.763,2.763,0,0,1-2.012-.676,2.486,2.486,0,0,1-.691-1.863A2.183,2.183,0,0,1,37.8-4.27a4.579,4.579,0,0,1,2.66-.684h1.672v-.836a1.551,1.551,0,0,0-.453-1.176A1.779,1.779,0,0,0,40.4-7.4a1.859,1.859,0,0,0-1.211.375,1.125,1.125,0,0,0-.461.9l-1.461.016-.016-.047a2.023,2.023,0,0,1,.863-1.687,3.578,3.578,0,0,1,2.371-.766,3.49,3.49,0,0,1,2.313.73,2.588,2.588,0,0,1,.875,2.105V-1.7a7.923,7.923,0,0,0,.047.875A4.5,4.5,0,0,0,43.891,0ZM39.75-1.125a2.739,2.739,0,0,0,1.508-.43,2.042,2.042,0,0,0,.875-.984V-3.914H40.406a2.24,2.24,0,0,0-1.488.469,1.4,1.4,0,0,0-.559,1.1,1.159,1.159,0,0,0,.352.891A1.472,1.472,0,0,0,39.75-1.125ZM51.547,0H50.008V-8.453h1.539Zm0-10.617H50.008v-1.57h1.539ZM53.563-4.07a5.641,5.641,0,0,1,.871-3.289,2.807,2.807,0,0,1,2.441-1.25,3.027,3.027,0,0,1,1.316.273,2.7,2.7,0,0,1,.98.8v-4.648h1.539V0h-1.18L59.3-1.07a2.743,2.743,0,0,1-1.023.922,3.058,3.058,0,0,1-1.414.313A2.9,2.9,0,0,1,54.438-.957a4.659,4.659,0,0,1-.875-2.949Zm1.539.164a3.588,3.588,0,0,0,.523,2.051,1.828,1.828,0,0,0,1.625.77A2.039,2.039,0,0,0,58.406-1.4a2.334,2.334,0,0,0,.766-.875V-6.219a2.37,2.37,0,0,0-.77-.832,2.033,2.033,0,0,0-1.137-.309,1.759,1.759,0,0,0-1.637.914A4.718,4.718,0,0,0,55.1-4.07ZM66.672.164A3.8,3.8,0,0,1,63.715-1a4.36,4.36,0,0,1-1.066-3.059v-.344A4.386,4.386,0,0,1,63.7-7.418a3.3,3.3,0,0,1,2.566-1.191,3.067,3.067,0,0,1,2.543,1.055,4.345,4.345,0,0,1,.848,2.8v.813H64.25l-.016.039a3.281,3.281,0,0,0,.6,2.063,2.164,2.164,0,0,0,1.84.8,3.76,3.76,0,0,0,1.219-.16,8.108,8.108,0,0,0,1.07-.488L69.344-.6a4.459,4.459,0,0,1-1.027.535A4.749,4.749,0,0,1,66.672.164ZM66.266-7.4a1.673,1.673,0,0,0-1.332.621,2.938,2.938,0,0,0-.645,1.59l.016.039h3.813v-.125A2.462,2.462,0,0,0,67.664-6.8,1.638,1.638,0,0,0,66.266-7.4Zm6.492-1.055L72.867-7.2a3.069,3.069,0,0,1,1.059-1.043,2.824,2.824,0,0,1,1.449-.371,2.759,2.759,0,0,1,2.117.8,3.515,3.515,0,0,1,.75,2.473V0H76.7V-5.3a2.287,2.287,0,0,0-.441-1.586,1.768,1.768,0,0,0-1.348-.469,2.386,2.386,0,0,0-1.207.285,2.072,2.072,0,0,0-.785.8V0H71.383V-8.453Zm9.68-2.039v2.039h1.6v1.141h-1.6V-2.18a1.149,1.149,0,0,0,.246.836.89.89,0,0,0,.652.242,1.54,1.54,0,0,0,.293-.031,1.793,1.793,0,0,0,.285-.078l.211,1.055a1.446,1.446,0,0,1-.516.23,2.562,2.562,0,0,1-.664.09A2,2,0,0,1,81.457-.4,2.449,2.449,0,0,1,80.9-2.18V-7.312H79.563V-8.453H80.9v-2.039ZM87.242,0H85.7V-8.453h1.539Zm0-10.617H85.7v-1.57h1.539ZM90.039,0V-7.312H88.711V-8.453h1.328v-1.07a2.911,2.911,0,0,1,.7-2.09,2.589,2.589,0,0,1,1.969-.738,3.4,3.4,0,0,1,.535.043q.27.043.6.121l-.187,1.172q-.141-.031-.34-.055a3.509,3.509,0,0,0-.41-.023,1.213,1.213,0,0,0-1,.4,1.825,1.825,0,0,0-.324,1.168v1.07h1.531v1.141H91.578V0Zm6.109,0H94.609V-8.453h1.539Zm0-10.617H94.609v-1.57h1.539Zm5.727,9.578a1.81,1.81,0,0,0,1.242-.473,1.494,1.494,0,0,0,.531-1.16h1.391l.023.047a2.428,2.428,0,0,1-.937,1.941,3.313,3.313,0,0,1-2.25.848,3.319,3.319,0,0,1-2.75-1.211,4.674,4.674,0,0,1-.969-3.016v-.328a4.654,4.654,0,0,1,.973-3,3.317,3.317,0,0,1,2.746-1.215,3.189,3.189,0,0,1,2.316.875,2.775,2.775,0,0,1,.871,2.148l-.016.047h-1.4a1.865,1.865,0,0,0-.5-1.316,1.658,1.658,0,0,0-1.27-.543,1.777,1.777,0,0,0-1.652.879,4.114,4.114,0,0,0-.52,2.129v.328a4.192,4.192,0,0,0,.512,2.148A1.776,1.776,0,0,0,101.875-1.039ZM112.086,0q-.078-.383-.121-.676a4.96,4.96,0,0,1-.051-.59,3.589,3.589,0,0,1-1.121,1.02,2.867,2.867,0,0,1-1.488.41,2.763,2.763,0,0,1-2.012-.676,2.486,2.486,0,0,1-.691-1.863,2.183,2.183,0,0,1,.98-1.895,4.579,4.579,0,0,1,2.66-.684h1.672v-.836a1.551,1.551,0,0,0-.453-1.176A1.779,1.779,0,0,0,110.18-7.4a1.859,1.859,0,0,0-1.211.375,1.125,1.125,0,0,0-.461.9l-1.461.016-.016-.047a2.023,2.023,0,0,1,.863-1.687,3.578,3.578,0,0,1,2.371-.766,3.49,3.49,0,0,1,2.313.73,2.588,2.588,0,0,1,.875,2.105V-1.7a7.923,7.923,0,0,0,.047.875,4.5,4.5,0,0,0,.172.828Zm-2.555-1.125a2.739,2.739,0,0,0,1.508-.43,2.042,2.042,0,0,0,.875-.984V-3.914h-1.727a2.24,2.24,0,0,0-1.488.469,1.4,1.4,0,0,0-.559,1.1,1.159,1.159,0,0,0,.352.891A1.472,1.472,0,0,0,109.531-1.125Zm10.156-5.969-.789-.047a1.762,1.762,0,0,0-1.027.289,1.854,1.854,0,0,0-.645.813V0h-1.539V-8.453h1.375l.109,1.313a2.968,2.968,0,0,1,.891-1.078,2.074,2.074,0,0,1,1.25-.391,1.9,1.9,0,0,1,.328.027,2.175,2.175,0,0,1,.258.059Zm1.93,7.156-.789,1.953h-.758l.008-2.023V-1.727h1.539Zm9.547-1.1a1.81,1.81,0,0,0,1.242-.473,1.493,1.493,0,0,0,.531-1.16h1.391l.023.047a2.428,2.428,0,0,1-.937,1.941,3.312,3.312,0,0,1-2.25.848,3.319,3.319,0,0,1-2.75-1.211,4.674,4.674,0,0,1-.969-3.016v-.328a4.654,4.654,0,0,1,.973-3,3.317,3.317,0,0,1,2.746-1.215,3.189,3.189,0,0,1,2.316.875,2.775,2.775,0,0,1,.871,2.148l-.016.047h-1.4a1.865,1.865,0,0,0-.5-1.316,1.658,1.658,0,0,0-1.27-.543,1.777,1.777,0,0,0-1.652.879,4.114,4.114,0,0,0-.52,2.129v.328a4.192,4.192,0,0,0,.512,2.148A1.776,1.776,0,0,0,131.164-1.039Zm10.383-.219A2.884,2.884,0,0,1,140.52-.207a2.782,2.782,0,0,1-1.441.371,2.716,2.716,0,0,1-2.156-.883,4.1,4.1,0,0,1-.773-2.75V-8.453h1.539v5a3.147,3.147,0,0,0,.4,1.859,1.481,1.481,0,0,0,1.242.508,2.508,2.508,0,0,0,1.355-.336,2.1,2.1,0,0,0,.809-.953V-8.453h1.539V0h-1.383ZM150.469,0q-.078-.383-.121-.676a4.96,4.96,0,0,1-.051-.59,3.588,3.588,0,0,1-1.121,1.02,2.867,2.867,0,0,1-1.488.41,2.763,2.763,0,0,1-2.012-.676,2.486,2.486,0,0,1-.691-1.863,2.183,2.183,0,0,1,.98-1.895,4.579,4.579,0,0,1,2.66-.684H150.3v-.836a1.551,1.551,0,0,0-.453-1.176,1.779,1.779,0,0,0-1.281-.434,1.859,1.859,0,0,0-1.211.375,1.125,1.125,0,0,0-.461.9l-1.461.016-.016-.047a2.023,2.023,0,0,1,.863-1.687,3.578,3.578,0,0,1,2.371-.766,3.49,3.49,0,0,1,2.313.73,2.588,2.588,0,0,1,.875,2.105V-1.7a7.923,7.923,0,0,0,.047.875,4.5,4.5,0,0,0,.172.828Zm-2.555-1.125a2.739,2.739,0,0,0,1.508-.43,2.042,2.042,0,0,0,.875-.984V-3.914H148.57a2.24,2.24,0,0,0-1.488.469,1.4,1.4,0,0,0-.559,1.1,1.159,1.159,0,0,0,.352.891A1.472,1.472,0,0,0,147.914-1.125Zm7.531-7.328.109,1.258a3.069,3.069,0,0,1,1.059-1.043,2.824,2.824,0,0,1,1.449-.371,2.759,2.759,0,0,1,2.117.8,3.515,3.515,0,0,1,.75,2.473V0h-1.539V-5.3a2.287,2.287,0,0,0-.441-1.586,1.768,1.768,0,0,0-1.348-.469,2.386,2.386,0,0,0-1.207.285,2.072,2.072,0,0,0-.785.8V0H154.07V-8.453Zm9.68-2.039v2.039h1.6v1.141h-1.6V-2.18a1.149,1.149,0,0,0,.246.836.89.89,0,0,0,.652.242,1.54,1.54,0,0,0,.293-.031,1.793,1.793,0,0,0,.285-.078l.211,1.055a1.446,1.446,0,0,1-.516.23,2.562,2.562,0,0,1-.664.09A2,2,0,0,1,164.145-.4a2.449,2.449,0,0,1-.559-1.777V-7.312H162.25V-8.453h1.336v-2.039ZM169.93,0h-1.539V-8.453h1.539Zm0-10.617h-1.539v-1.57h1.539ZM172.727,0V-7.312H171.4V-8.453h1.328v-1.07a2.911,2.911,0,0,1,.7-2.09,2.589,2.589,0,0,1,1.969-.738,3.4,3.4,0,0,1,.535.043q.27.043.6.121l-.187,1.172q-.141-.031-.34-.055a3.509,3.509,0,0,0-.41-.023,1.213,1.213,0,0,0-1,.4,1.825,1.825,0,0,0-.324,1.168v1.07H175.8v1.141h-1.531V0Zm6.109,0H177.3V-8.453h1.539Zm0-10.617H177.3v-1.57h1.539Zm5.727,9.578a1.81,1.81,0,0,0,1.242-.473,1.493,1.493,0,0,0,.531-1.16h1.391l.023.047a2.428,2.428,0,0,1-.937,1.941,3.312,3.312,0,0,1-2.25.848,3.319,3.319,0,0,1-2.75-1.211,4.674,4.674,0,0,1-.969-3.016v-.328a4.654,4.654,0,0,1,.973-3,3.317,3.317,0,0,1,2.746-1.215,3.189,3.189,0,0,1,2.316.875,2.775,2.775,0,0,1,.871,2.148l-.016.047h-1.4a1.865,1.865,0,0,0-.5-1.316,1.658,1.658,0,0,0-1.27-.543,1.777,1.777,0,0,0-1.652.879,4.114,4.114,0,0,0-.52,2.129v.328a4.192,4.192,0,0,0,.512,2.148A1.776,1.776,0,0,0,184.563-1.039ZM194.773,0q-.078-.383-.121-.676a4.96,4.96,0,0,1-.051-.59,3.588,3.588,0,0,1-1.121,1.02,2.867,2.867,0,0,1-1.488.41,2.763,2.763,0,0,1-2.012-.676,2.486,2.486,0,0,1-.691-1.863,2.183,2.183,0,0,1,.98-1.895,4.579,4.579,0,0,1,2.66-.684H194.6v-.836a1.551,1.551,0,0,0-.453-1.176,1.779,1.779,0,0,0-1.281-.434,1.859,1.859,0,0,0-1.211.375,1.125,1.125,0,0,0-.461.9l-1.461.016-.016-.047a2.023,2.023,0,0,1,.863-1.687,3.578,3.578,0,0,1,2.371-.766,3.49,3.49,0,0,1,2.313.73,2.588,2.588,0,0,1,.875,2.105V-1.7a7.923,7.923,0,0,0,.047.875,4.5,4.5,0,0,0,.172.828Zm-2.555-1.125a2.739,2.739,0,0,0,1.508-.43,2.042,2.042,0,0,0,.875-.984V-3.914h-1.727a2.24,2.24,0,0,0-1.488.469,1.4,1.4,0,0,0-.559,1.1,1.159,1.159,0,0,0,.352.891A1.472,1.472,0,0,0,192.219-1.125Zm10.156-5.969-.789-.047a1.762,1.762,0,0,0-1.027.289,1.855,1.855,0,0,0-.645.813V0h-1.539V-8.453h1.375l.109,1.313a2.968,2.968,0,0,1,.891-1.078A2.074,2.074,0,0,1,202-8.609a1.9,1.9,0,0,1,.328.027,2.174,2.174,0,0,1,.258.059Zm8.164,3.961.273,1.063h.047l2.078-6.383h1.711L211.094,1.3a4.383,4.383,0,0,1-.918,1.484,2.113,2.113,0,0,1-1.613.633,3.363,3.363,0,0,1-.477-.043q-.289-.043-.445-.082l.156-1.211a2.062,2.062,0,0,1,.277.016q.324.023.41.023a.95.95,0,0,0,.8-.437,4.543,4.543,0,0,0,.523-.969l.367-.883-3.141-8.281h1.719Zm12.258.641.133.594h.047l.148-.594,1.945-5.961h1.57L223.531,0h-1.164l-3.148-8.453H220.8ZM232.984,0q-.078-.383-.121-.676a4.96,4.96,0,0,1-.051-.59,3.588,3.588,0,0,1-1.121,1.02,2.867,2.867,0,0,1-1.488.41,2.763,2.763,0,0,1-2.012-.676,2.486,2.486,0,0,1-.691-1.863,2.183,2.183,0,0,1,.98-1.895,4.579,4.579,0,0,1,2.66-.684h1.672v-.836a1.551,1.551,0,0,0-.453-1.176,1.779,1.779,0,0,0-1.281-.434,1.859,1.859,0,0,0-1.211.375,1.125,1.125,0,0,0-.461.9l-1.461.016-.016-.047a2.023,2.023,0,0,1,.863-1.687,3.578,3.578,0,0,1,2.371-.766,3.49,3.49,0,0,1,2.313.73,2.588,2.588,0,0,1,.875,2.105V-1.7a7.923,7.923,0,0,0,.047.875A4.5,4.5,0,0,0,234.57,0ZM230.43-1.125a2.739,2.739,0,0,0,1.508-.43,2.042,2.042,0,0,0,.875-.984V-3.914h-1.727a2.24,2.24,0,0,0-1.488.469,1.4,1.4,0,0,0-.559,1.1,1.159,1.159,0,0,0,.352.891A1.472,1.472,0,0,0,230.43-1.125ZM238.25,0h-1.539V-12.187h1.539Zm2.008-4.3a4.654,4.654,0,0,1,1.016-3.09,3.406,3.406,0,0,1,2.758-1.215A3.439,3.439,0,0,1,246.809-7.4a4.639,4.639,0,0,1,1.02,3.094v.172a4.631,4.631,0,0,1-1.016,3.094,3.429,3.429,0,0,1-2.766,1.2,3.436,3.436,0,0,1-2.77-1.207,4.623,4.623,0,0,1-1.02-3.09Zm1.539.172a4.009,4.009,0,0,0,.566,2.219,1.875,1.875,0,0,0,1.684.875,1.87,1.87,0,0,0,1.672-.875,3.988,3.988,0,0,0,.57-2.219V-4.3a3.976,3.976,0,0,0-.574-2.211,1.882,1.882,0,0,0-1.684-.883,1.856,1.856,0,0,0-1.668.883A4.018,4.018,0,0,0,241.8-4.3Zm11.914-2.961-.789-.047a1.762,1.762,0,0,0-1.027.289,1.855,1.855,0,0,0-.645.813V0h-1.539V-8.453h1.375l.109,1.313a2.968,2.968,0,0,1,.891-1.078,2.074,2.074,0,0,1,1.25-.391,1.9,1.9,0,0,1,.328.027,2.174,2.174,0,0,1,.258.059ZM260.508,0q-.078-.383-.121-.676a4.96,4.96,0,0,1-.051-.59,3.589,3.589,0,0,1-1.121,1.02,2.867,2.867,0,0,1-1.488.41,2.763,2.763,0,0,1-2.012-.676,2.486,2.486,0,0,1-.691-1.863A2.183,2.183,0,0,1,256-4.27a4.579,4.579,0,0,1,2.66-.684h1.672v-.836a1.551,1.551,0,0,0-.453-1.176A1.779,1.779,0,0,0,258.6-7.4a1.859,1.859,0,0,0-1.211.375,1.125,1.125,0,0,0-.461.9l-1.461.016-.016-.047a2.023,2.023,0,0,1,.863-1.687,3.578,3.578,0,0,1,2.371-.766,3.49,3.49,0,0,1,2.313.73,2.588,2.588,0,0,1,.875,2.105V-1.7a7.923,7.923,0,0,0,.047.875,4.5,4.5,0,0,0,.172.828Zm-2.555-1.125a2.739,2.739,0,0,0,1.508-.43,2.042,2.042,0,0,0,.875-.984V-3.914h-1.727a2.24,2.24,0,0,0-1.488.469,1.4,1.4,0,0,0-.559,1.1,1.159,1.159,0,0,0,.352.891A1.472,1.472,0,0,0,257.953-1.125Zm10.156-5.969-.789-.047a1.762,1.762,0,0,0-1.027.289,1.854,1.854,0,0,0-.645.813V0h-1.539V-8.453h1.375l.109,1.313a2.968,2.968,0,0,1,.891-1.078,2.074,2.074,0,0,1,1.25-.391,1.9,1.9,0,0,1,.328.027,2.176,2.176,0,0,1,.258.059ZM271.391,0h-1.539V-1.578h1.539Zm0-6.844h-1.539V-8.422h1.539Z" transform="translate(-12085 -7580)" fill="#12263f"/>
    <path id="Trazado_875201" data-name="Trazado 875201" d="M-59.434-3.016A1.481,1.481,0,0,0-60-4.219,5.522,5.522,0,0,0-62-5.055a6.232,6.232,0,0,1-2.668-1.258,2.69,2.69,0,0,1-.949-2.109,2.836,2.836,0,0,1,1.016-2.23,3.916,3.916,0,0,1,2.672-.887,3.971,3.971,0,0,1,2.863,1.02,3.088,3.088,0,0,1,1.035,2.379l-.023.047h-1.469A2.1,2.1,0,0,0-60.2-9.7a2.431,2.431,0,0,0-1.73-.633,2.236,2.236,0,0,0-1.609.52,1.807,1.807,0,0,0-.539,1.363A1.546,1.546,0,0,0-63.477-7.2a5.433,5.433,0,0,0,2,.863A6.55,6.55,0,0,1-58.8-5.078a2.6,2.6,0,0,1,.91,2.047,2.848,2.848,0,0,1-1.09,2.293,4.27,4.27,0,0,1-2.816.9,4.8,4.8,0,0,1-2.91-.922,2.81,2.81,0,0,1-1.223-2.469l.016-.047h1.469a1.912,1.912,0,0,0,.813,1.652,3.076,3.076,0,0,0,1.836.582A2.538,2.538,0,0,0-60.078-1.6,1.794,1.794,0,0,0-59.434-3.016Zm7.055,3.18A3.8,3.8,0,0,1-55.336-1,4.36,4.36,0,0,1-56.4-4.062v-.344a4.386,4.386,0,0,1,1.051-3.012,3.3,3.3,0,0,1,2.566-1.191,3.067,3.067,0,0,1,2.543,1.055,4.345,4.345,0,0,1,.848,2.8v.813H-54.8l-.016.039a3.281,3.281,0,0,0,.6,2.063,2.164,2.164,0,0,0,1.84.8A3.76,3.76,0,0,0-51.16-1.2a8.108,8.108,0,0,0,1.07-.488L-49.707-.6a4.459,4.459,0,0,1-1.027.535A4.749,4.749,0,0,1-52.379.164ZM-52.785-7.4a1.673,1.673,0,0,0-1.332.621,2.938,2.938,0,0,0-.645,1.59l.016.039h3.813v-.125A2.462,2.462,0,0,0-51.387-6.8,1.638,1.638,0,0,0-52.785-7.4ZM-43.262,0V-7.312H-44.59V-8.453h1.328v-1.07a2.911,2.911,0,0,1,.7-2.09,2.589,2.589,0,0,1,1.969-.738,3.4,3.4,0,0,1,.535.043q.27.043.6.121l-.187,1.172q-.141-.031-.34-.055a3.509,3.509,0,0,0-.41-.023,1.213,1.213,0,0,0-1,.4,1.825,1.825,0,0,0-.324,1.168v1.07h1.531v1.141h-1.531V0Zm9.813-1.258A2.884,2.884,0,0,1-34.477-.207a2.782,2.782,0,0,1-1.441.371,2.716,2.716,0,0,1-2.156-.883,4.1,4.1,0,0,1-.773-2.75V-8.453h1.539v5a3.147,3.147,0,0,0,.4,1.859,1.481,1.481,0,0,0,1.242.508,2.508,2.508,0,0,0,1.355-.336,2.094,2.094,0,0,0,.809-.953V-8.453h1.539V0h-1.383Zm5.1-7.2.109,1.258A3.069,3.069,0,0,1-27.18-8.238a2.824,2.824,0,0,1,1.449-.371,2.759,2.759,0,0,1,2.117.8,3.515,3.515,0,0,1,.75,2.473V0H-24.4V-5.3a2.287,2.287,0,0,0-.441-1.586,1.768,1.768,0,0,0-1.348-.469,2.386,2.386,0,0,0-1.207.285,2.072,2.072,0,0,0-.785.8V0h-1.539V-8.453ZM-20.98-4.07a5.641,5.641,0,0,1,.871-3.289,2.807,2.807,0,0,1,2.441-1.25,3.027,3.027,0,0,1,1.316.273,2.7,2.7,0,0,1,.98.8v-4.648h1.539V0h-1.18l-.234-1.07a2.743,2.743,0,0,1-1.023.922,3.058,3.058,0,0,1-1.414.313A2.9,2.9,0,0,1-20.105-.957a4.659,4.659,0,0,1-.875-2.949Zm1.539.164a3.588,3.588,0,0,0,.523,2.051,1.828,1.828,0,0,0,1.625.77A2.039,2.039,0,0,0-16.137-1.4a2.334,2.334,0,0,0,.766-.875V-6.219a2.37,2.37,0,0,0-.77-.832,2.033,2.033,0,0,0-1.137-.309,1.759,1.759,0,0,0-1.637.914,4.718,4.718,0,0,0-.527,2.375ZM-6.34,0q-.078-.383-.121-.676a4.96,4.96,0,0,1-.051-.59A3.589,3.589,0,0,1-7.633-.246a2.867,2.867,0,0,1-1.488.41,2.763,2.763,0,0,1-2.012-.676,2.486,2.486,0,0,1-.691-1.863,2.183,2.183,0,0,1,.98-1.895,4.579,4.579,0,0,1,2.66-.684h1.672v-.836a1.551,1.551,0,0,0-.453-1.176A1.779,1.779,0,0,0-8.246-7.4a1.859,1.859,0,0,0-1.211.375,1.125,1.125,0,0,0-.461.9l-1.461.016-.016-.047a2.023,2.023,0,0,1,.863-1.687A3.578,3.578,0,0,1-8.16-8.609a3.49,3.49,0,0,1,2.313.73,2.588,2.588,0,0,1,.875,2.105V-1.7a7.923,7.923,0,0,0,.047.875A4.5,4.5,0,0,0-4.754,0ZM-8.895-1.125a2.739,2.739,0,0,0,1.508-.43,2.042,2.042,0,0,0,.875-.984V-3.914H-8.238a2.24,2.24,0,0,0-1.488.469,1.4,1.4,0,0,0-.559,1.1,1.159,1.159,0,0,0,.352.891A1.472,1.472,0,0,0-8.895-1.125Zm7.531-7.328.109,1.109A2.871,2.871,0,0,1-.2-8.277a3.158,3.158,0,0,1,1.48-.332,2.615,2.615,0,0,1,1.449.391,2.363,2.363,0,0,1,.91,1.172A3.162,3.162,0,0,1,4.7-8.191a2.769,2.769,0,0,1,1.527-.418,2.531,2.531,0,0,1,2.039.887,4.051,4.051,0,0,1,.75,2.668V0H7.473V-5.07a2.81,2.81,0,0,0-.43-1.77,1.567,1.567,0,0,0-1.281-.52,1.631,1.631,0,0,0-1.277.547A2.381,2.381,0,0,0,3.91-5.43V0H2.363V-5.07a2.772,2.772,0,0,0-.441-1.738,1.532,1.532,0,0,0-1.27-.551A2.115,2.115,0,0,0-.5-7.07a1.867,1.867,0,0,0-.7.813V0H-2.738V-8.453ZM14.91.164A3.8,3.8,0,0,1,11.953-1a4.36,4.36,0,0,1-1.066-3.059v-.344a4.386,4.386,0,0,1,1.051-3.012A3.3,3.3,0,0,1,14.5-8.609a3.067,3.067,0,0,1,2.543,1.055,4.345,4.345,0,0,1,.848,2.8v.813H12.488l-.016.039a3.281,3.281,0,0,0,.6,2.063,2.164,2.164,0,0,0,1.84.8,3.76,3.76,0,0,0,1.219-.16,8.108,8.108,0,0,0,1.07-.488L17.582-.6a4.459,4.459,0,0,1-1.027.535A4.749,4.749,0,0,1,14.91.164ZM14.5-7.4a1.673,1.673,0,0,0-1.332.621,2.938,2.938,0,0,0-.645,1.59l.016.039h3.813v-.125A2.462,2.462,0,0,0,15.9-6.8,1.638,1.638,0,0,0,14.5-7.4ZM21-8.453,21.105-7.2a3.069,3.069,0,0,1,1.059-1.043,2.824,2.824,0,0,1,1.449-.371,2.759,2.759,0,0,1,2.117.8,3.515,3.515,0,0,1,.75,2.473V0H24.941V-5.3A2.287,2.287,0,0,0,24.5-6.891a1.768,1.768,0,0,0-1.348-.469,2.386,2.386,0,0,0-1.207.285,2.072,2.072,0,0,0-.785.8V0H19.621V-8.453Zm9.68-2.039v2.039h1.6v1.141h-1.6V-2.18a1.149,1.149,0,0,0,.246.836.89.89,0,0,0,.652.242,1.54,1.54,0,0,0,.293-.031,1.793,1.793,0,0,0,.285-.078l.211,1.055a1.446,1.446,0,0,1-.516.23,2.562,2.562,0,0,1-.664.09A2,2,0,0,1,29.7-.4a2.449,2.449,0,0,1-.559-1.777V-7.312H27.8V-8.453h1.336v-2.039ZM39.012,0q-.078-.383-.121-.676a4.96,4.96,0,0,1-.051-.59,3.589,3.589,0,0,1-1.121,1.02,2.867,2.867,0,0,1-1.488.41,2.763,2.763,0,0,1-2.012-.676,2.486,2.486,0,0,1-.691-1.863,2.183,2.183,0,0,1,.98-1.895,4.579,4.579,0,0,1,2.66-.684H38.84v-.836a1.551,1.551,0,0,0-.453-1.176A1.779,1.779,0,0,0,37.105-7.4a1.859,1.859,0,0,0-1.211.375,1.125,1.125,0,0,0-.461.9l-1.461.016-.016-.047a2.023,2.023,0,0,1,.863-1.687,3.578,3.578,0,0,1,2.371-.766,3.49,3.49,0,0,1,2.313.73,2.588,2.588,0,0,1,.875,2.105V-1.7a7.923,7.923,0,0,0,.047.875A4.5,4.5,0,0,0,40.6,0ZM36.457-1.125a2.739,2.739,0,0,0,1.508-.43,2.042,2.042,0,0,0,.875-.984V-3.914H37.113a2.24,2.24,0,0,0-1.488.469,1.4,1.4,0,0,0-.559,1.1,1.159,1.159,0,0,0,.352.891A1.472,1.472,0,0,0,36.457-1.125ZM50.254.164A3.8,3.8,0,0,1,47.3-1,4.36,4.36,0,0,1,46.23-4.062v-.344a4.386,4.386,0,0,1,1.051-3.012,3.3,3.3,0,0,1,2.566-1.191,3.067,3.067,0,0,1,2.543,1.055,4.345,4.345,0,0,1,.848,2.8v.813H47.832l-.016.039a3.281,3.281,0,0,0,.6,2.063,2.164,2.164,0,0,0,1.84.8,3.76,3.76,0,0,0,1.219-.16,8.108,8.108,0,0,0,1.07-.488L52.926-.6A4.459,4.459,0,0,1,51.9-.066,4.749,4.749,0,0,1,50.254.164ZM49.848-7.4a1.673,1.673,0,0,0-1.332.621,2.938,2.938,0,0,0-.645,1.59l.016.039H51.7v-.125A2.462,2.462,0,0,0,51.246-6.8,1.638,1.638,0,0,0,49.848-7.4ZM56.34-8.453,56.449-7.2a3.069,3.069,0,0,1,1.059-1.043,2.824,2.824,0,0,1,1.449-.371,2.759,2.759,0,0,1,2.117.8,3.515,3.515,0,0,1,.75,2.473V0H60.285V-5.3a2.287,2.287,0,0,0-.441-1.586A1.768,1.768,0,0,0,58.5-7.359a2.386,2.386,0,0,0-1.207.285,2.072,2.072,0,0,0-.785.8V0H54.965V-8.453ZM-53.145,24h-1.539V11.813h1.539Zm7.563,0q-.078-.383-.121-.676a4.96,4.96,0,0,1-.051-.59,3.589,3.589,0,0,1-1.121,1.02,2.867,2.867,0,0,1-1.488.41,2.763,2.763,0,0,1-2.012-.676,2.486,2.486,0,0,1-.691-1.863,2.183,2.183,0,0,1,.98-1.895,4.579,4.579,0,0,1,2.66-.684h1.672v-.836a1.551,1.551,0,0,0-.453-1.176,1.779,1.779,0,0,0-1.281-.434,1.859,1.859,0,0,0-1.211.375,1.125,1.125,0,0,0-.461.9l-1.461.016-.016-.047a2.023,2.023,0,0,1,.863-1.687,3.578,3.578,0,0,1,2.371-.766,3.49,3.49,0,0,1,2.313.73,2.588,2.588,0,0,1,.875,2.105V22.3a7.923,7.923,0,0,0,.047.875A4.5,4.5,0,0,0-44,24Zm-2.555-1.125a2.739,2.739,0,0,0,1.508-.43,2.042,2.042,0,0,0,.875-.984V20.086H-47.48a2.24,2.24,0,0,0-1.488.469,1.4,1.4,0,0,0-.559,1.1,1.159,1.159,0,0,0,.352.891A1.472,1.472,0,0,0-48.137,22.875Zm11.508-7.328.109,1.258a3.069,3.069,0,0,1,1.059-1.043,2.824,2.824,0,0,1,1.449-.371,2.759,2.759,0,0,1,2.117.8,3.515,3.515,0,0,1,.75,2.473V24h-1.539V18.7a2.287,2.287,0,0,0-.441-1.586,1.768,1.768,0,0,0-1.348-.469,2.386,2.386,0,0,0-1.207.285,2.072,2.072,0,0,0-.785.8V24H-38V15.547Zm11.383,8.617A3.8,3.8,0,0,1-28.2,23a4.36,4.36,0,0,1-1.066-3.059v-.344a4.386,4.386,0,0,1,1.051-3.012,3.3,3.3,0,0,1,2.566-1.191,3.067,3.067,0,0,1,2.543,1.055,4.345,4.345,0,0,1,.848,2.8v.813h-5.406l-.016.039a3.281,3.281,0,0,0,.6,2.063,2.164,2.164,0,0,0,1.84.8,3.76,3.76,0,0,0,1.219-.16,8.108,8.108,0,0,0,1.07-.488l.383,1.086a4.459,4.459,0,0,1-1.027.535A4.749,4.749,0,0,1-25.246,24.164Zm-.406-7.562a1.673,1.673,0,0,0-1.332.621,2.938,2.938,0,0,0-.645,1.59l.016.039H-23.8v-.125a2.462,2.462,0,0,0-.453-1.523A1.638,1.638,0,0,0-25.652,16.6Zm8.477,6.359a1.81,1.81,0,0,0,1.242-.473,1.494,1.494,0,0,0,.531-1.16h1.391l.023.047a2.428,2.428,0,0,1-.937,1.941,3.313,3.313,0,0,1-2.25.848,3.319,3.319,0,0,1-2.75-1.211,4.674,4.674,0,0,1-.969-3.016v-.328a4.654,4.654,0,0,1,.973-3,3.317,3.317,0,0,1,2.746-1.215,3.189,3.189,0,0,1,2.316.875,2.775,2.775,0,0,1,.871,2.148l-.016.047h-1.4a1.865,1.865,0,0,0-.5-1.316,1.658,1.658,0,0,0-1.27-.543,1.777,1.777,0,0,0-1.652.879,4.114,4.114,0,0,0-.52,2.129v.328a4.192,4.192,0,0,0,.512,2.148A1.776,1.776,0,0,0-17.176,22.961Zm8.68,1.2A3.8,3.8,0,0,1-11.453,23a4.36,4.36,0,0,1-1.066-3.059v-.344a4.386,4.386,0,0,1,1.051-3.012A3.3,3.3,0,0,1-8.9,15.391a3.067,3.067,0,0,1,2.543,1.055,4.345,4.345,0,0,1,.848,2.8v.813h-5.406l-.016.039a3.281,3.281,0,0,0,.6,2.063,2.164,2.164,0,0,0,1.84.8,3.76,3.76,0,0,0,1.219-.16,8.108,8.108,0,0,0,1.07-.488l.383,1.086a4.459,4.459,0,0,1-1.027.535A4.749,4.749,0,0,1-8.5,24.164ZM-8.9,16.6a1.673,1.673,0,0,0-1.332.621,2.938,2.938,0,0,0-.645,1.59l.016.039h3.813v-.125A2.462,2.462,0,0,0-7.5,17.2,1.638,1.638,0,0,0-8.9,16.6ZM1.129,21.727A1.026,1.026,0,0,0,.742,20.9a3.732,3.732,0,0,0-1.465-.562,6.146,6.146,0,0,1-2.293-.9,1.814,1.814,0,0,1-.8-1.547,2.229,2.229,0,0,1,.879-1.766A3.433,3.433,0,0,1-.66,15.391a3.4,3.4,0,0,1,2.328.781,2.239,2.239,0,0,1,.852,1.82l-.016.047H1.035a1.331,1.331,0,0,0-.48-.992A1.717,1.717,0,0,0-.66,16.6a1.751,1.751,0,0,0-1.215.367,1.146,1.146,0,0,0-.4.875.927.927,0,0,0,.348.773,3.848,3.848,0,0,0,1.434.5,6.058,6.058,0,0,1,2.359.93,1.872,1.872,0,0,1,.8,1.57,2.226,2.226,0,0,1-.91,1.836,3.754,3.754,0,0,1-2.379.711,3.715,3.715,0,0,1-2.547-.82,2.341,2.341,0,0,1-.883-1.914l.016-.047h1.469a1.424,1.424,0,0,0,.609,1.2,2.358,2.358,0,0,0,1.336.379,2.1,2.1,0,0,0,1.285-.348A1.063,1.063,0,0,0,1.129,21.727ZM6.246,24H4.707V15.547H6.246Zm0-10.617H4.707v-1.57H6.246ZM8.262,19.93a5.641,5.641,0,0,1,.871-3.289,2.807,2.807,0,0,1,2.441-1.25,3.027,3.027,0,0,1,1.316.273,2.7,2.7,0,0,1,.98.8V11.813H15.41V24H14.23L14,22.93a2.743,2.743,0,0,1-1.023.922,3.058,3.058,0,0,1-1.414.313,2.9,2.9,0,0,1-2.422-1.121,4.659,4.659,0,0,1-.875-2.949Zm1.539.164a3.588,3.588,0,0,0,.523,2.051,1.828,1.828,0,0,0,1.625.77,2.039,2.039,0,0,0,1.156-.312,2.334,2.334,0,0,0,.766-.875V17.781a2.37,2.37,0,0,0-.77-.832,2.033,2.033,0,0,0-1.137-.309,1.759,1.759,0,0,0-1.637.914A4.718,4.718,0,0,0,9.8,19.93ZM22.9,24q-.078-.383-.121-.676a4.96,4.96,0,0,1-.051-.59,3.589,3.589,0,0,1-1.121,1.02,2.867,2.867,0,0,1-1.488.41,2.763,2.763,0,0,1-2.012-.676,2.486,2.486,0,0,1-.691-1.863,2.183,2.183,0,0,1,.98-1.895,4.579,4.579,0,0,1,2.66-.684H22.73v-.836a1.551,1.551,0,0,0-.453-1.176A1.779,1.779,0,0,0,21,16.6a1.859,1.859,0,0,0-1.211.375,1.125,1.125,0,0,0-.461.9l-1.461.016-.016-.047a2.023,2.023,0,0,1,.863-1.687,3.578,3.578,0,0,1,2.371-.766,3.49,3.49,0,0,1,2.313.73,2.588,2.588,0,0,1,.875,2.105V22.3a7.923,7.923,0,0,0,.047.875,4.5,4.5,0,0,0,.172.828Zm-2.555-1.125a2.739,2.739,0,0,0,1.508-.43,2.042,2.042,0,0,0,.875-.984V20.086H21a2.24,2.24,0,0,0-1.488.469,1.4,1.4,0,0,0-.559,1.1,1.159,1.159,0,0,0,.352.891A1.472,1.472,0,0,0,20.348,22.875Zm5.8-2.945a5.641,5.641,0,0,1,.871-3.289,2.807,2.807,0,0,1,2.441-1.25,3.027,3.027,0,0,1,1.316.273,2.7,2.7,0,0,1,.98.8V11.813H33.3V24h-1.18l-.234-1.07a2.743,2.743,0,0,1-1.023.922,3.058,3.058,0,0,1-1.414.313,2.9,2.9,0,0,1-2.422-1.121,4.659,4.659,0,0,1-.875-2.949Zm1.539.164a3.588,3.588,0,0,0,.523,2.051,1.828,1.828,0,0,0,1.625.77A2.039,2.039,0,0,0,31,22.6a2.334,2.334,0,0,0,.766-.875V17.781a2.37,2.37,0,0,0-.77-.832,2.033,2.033,0,0,0-1.137-.309,1.759,1.759,0,0,0-1.637.914,4.718,4.718,0,0,0-.527,2.375Zm11.531-.164a5.641,5.641,0,0,1,.871-3.289,2.807,2.807,0,0,1,2.441-1.25,3.027,3.027,0,0,1,1.316.273,2.7,2.7,0,0,1,.98.8V11.813h1.539V24h-1.18l-.234-1.07a2.743,2.743,0,0,1-1.023.922,3.058,3.058,0,0,1-1.414.313A2.9,2.9,0,0,1,40.1,23.043a4.659,4.659,0,0,1-.875-2.949Zm1.539.164a3.588,3.588,0,0,0,.523,2.051,1.828,1.828,0,0,0,1.625.77,2.039,2.039,0,0,0,1.156-.312,2.334,2.334,0,0,0,.766-.875V17.781a2.37,2.37,0,0,0-.77-.832,2.033,2.033,0,0,0-1.137-.309,1.759,1.759,0,0,0-1.637.914,4.718,4.718,0,0,0-.527,2.375Zm11.57,4.07A3.8,3.8,0,0,1,49.375,23a4.36,4.36,0,0,1-1.066-3.059v-.344a4.386,4.386,0,0,1,1.051-3.012,3.3,3.3,0,0,1,2.566-1.191,3.067,3.067,0,0,1,2.543,1.055,4.345,4.345,0,0,1,.848,2.8v.813H49.91l-.016.039a3.281,3.281,0,0,0,.6,2.063,2.164,2.164,0,0,0,1.84.8,3.76,3.76,0,0,0,1.219-.16,8.108,8.108,0,0,0,1.07-.488L55,23.4a4.459,4.459,0,0,1-1.027.535A4.749,4.749,0,0,1,52.332,24.164ZM51.926,16.6a1.673,1.673,0,0,0-1.332.621,2.938,2.938,0,0,0-.645,1.59l.016.039h3.813v-.125a2.462,2.462,0,0,0-.453-1.523A1.638,1.638,0,0,0,51.926,16.6Z" transform="translate(-12293.805 -7358.785)" fill="#12263f"/>
    <path id="Trazado_875205" data-name="Trazado 875205" d="M6.914-2.133h.047l3.633-9.242h1.914V0H10.969V-8.523l-.047-.008L7.477,0H6.406L2.859-8.812,2.813-8.8V0H1.273V-11.375H3.3ZM16.57,0H15.031V-8.453H16.57Zm0-10.617H15.031v-1.57H16.57ZM18.586-4.07a5.641,5.641,0,0,1,.871-3.289A2.807,2.807,0,0,1,21.9-8.609a3.027,3.027,0,0,1,1.316.273,2.7,2.7,0,0,1,.98.8v-4.648h1.539V0h-1.18L24.32-1.07A2.743,2.743,0,0,1,23.3-.148a3.058,3.058,0,0,1-1.414.313A2.9,2.9,0,0,1,19.461-.957a4.659,4.659,0,0,1-.875-2.949Zm1.539.164a3.588,3.588,0,0,0,.523,2.051,1.828,1.828,0,0,0,1.625.77A2.039,2.039,0,0,0,23.43-1.4a2.334,2.334,0,0,0,.766-.875V-6.219a2.37,2.37,0,0,0-.77-.832,2.033,2.033,0,0,0-1.137-.309,1.759,1.759,0,0,0-1.637.914,4.718,4.718,0,0,0-.527,2.375ZM31.7.164A3.8,3.8,0,0,1,28.738-1a4.36,4.36,0,0,1-1.066-3.059v-.344a4.386,4.386,0,0,1,1.051-3.012,3.3,3.3,0,0,1,2.566-1.191,3.067,3.067,0,0,1,2.543,1.055,4.345,4.345,0,0,1,.848,2.8v.813H29.273l-.016.039a3.281,3.281,0,0,0,.6,2.063,2.164,2.164,0,0,0,1.84.8,3.76,3.76,0,0,0,1.219-.16,8.108,8.108,0,0,0,1.07-.488L34.367-.6a4.459,4.459,0,0,1-1.027.535A4.749,4.749,0,0,1,31.7.164ZM31.289-7.4a1.673,1.673,0,0,0-1.332.621,2.938,2.938,0,0,0-.645,1.59l.016.039h3.813v-.125A2.462,2.462,0,0,0,32.688-6.8,1.638,1.638,0,0,0,31.289-7.4Z" transform="translate(-11614.702 -7359.5)" fill="#12263f"/>
    <path id="Trazado_875202" data-name="Trazado 875202" d="M1.32,0V-11.375H4.9A4.812,4.812,0,0,1,8.48-10,4.824,4.824,0,0,1,9.836-6.461v1.555A4.808,4.808,0,0,1,8.48-1.363,4.827,4.827,0,0,1,4.9,0ZM2.859-10.164V-1.2H4.9A3.137,3.137,0,0,0,7.387-2.242,3.9,3.9,0,0,0,8.3-4.906v-1.57a3.873,3.873,0,0,0-.91-2.648A3.137,3.137,0,0,0,4.9-10.164ZM15.641.164A3.8,3.8,0,0,1,12.684-1a4.36,4.36,0,0,1-1.066-3.059v-.344a4.386,4.386,0,0,1,1.051-3.012,3.3,3.3,0,0,1,2.566-1.191,3.067,3.067,0,0,1,2.543,1.055,4.345,4.345,0,0,1,.848,2.8v.813H13.219L13.2-3.9a3.281,3.281,0,0,0,.6,2.063,2.164,2.164,0,0,0,1.84.8,3.76,3.76,0,0,0,1.219-.16,8.108,8.108,0,0,0,1.07-.488L18.313-.6a4.459,4.459,0,0,1-1.027.535A4.749,4.749,0,0,1,15.641.164ZM15.234-7.4a1.673,1.673,0,0,0-1.332.621,2.938,2.938,0,0,0-.645,1.59l.016.039h3.813v-.125A2.462,2.462,0,0,0,16.633-6.8,1.638,1.638,0,0,0,15.234-7.4Zm7.078-3.094v2.039h1.6v1.141h-1.6V-2.18a1.149,1.149,0,0,0,.246.836.89.89,0,0,0,.652.242,1.54,1.54,0,0,0,.293-.031,1.793,1.793,0,0,0,.285-.078L24-.156a1.446,1.446,0,0,1-.516.23,2.562,2.562,0,0,1-.664.09A2,2,0,0,1,21.332-.4a2.449,2.449,0,0,1-.559-1.777V-7.312H19.438V-8.453h1.336v-2.039ZM29.117.164A3.8,3.8,0,0,1,26.16-1a4.36,4.36,0,0,1-1.066-3.059v-.344a4.386,4.386,0,0,1,1.051-3.012,3.3,3.3,0,0,1,2.566-1.191,3.067,3.067,0,0,1,2.543,1.055,4.345,4.345,0,0,1,.848,2.8v.813H26.7L26.68-3.9a3.281,3.281,0,0,0,.6,2.063,2.164,2.164,0,0,0,1.84.8,3.76,3.76,0,0,0,1.219-.16,8.108,8.108,0,0,0,1.07-.488L31.789-.6a4.459,4.459,0,0,1-1.027.535A4.749,4.749,0,0,1,29.117.164ZM28.711-7.4a1.673,1.673,0,0,0-1.332.621,2.938,2.938,0,0,0-.645,1.59l.016.039h3.813v-.125A2.462,2.462,0,0,0,30.109-6.8,1.638,1.638,0,0,0,28.711-7.4Zm9.117.3-.789-.047a1.762,1.762,0,0,0-1.027.289,1.855,1.855,0,0,0-.645.813V0H33.828V-8.453H35.2l.109,1.313A2.968,2.968,0,0,1,36.2-8.219a2.074,2.074,0,0,1,1.25-.391,1.9,1.9,0,0,1,.328.027,2.175,2.175,0,0,1,.258.059ZM40.8-8.453l.109,1.109a2.871,2.871,0,0,1,1.051-.934,3.158,3.158,0,0,1,1.48-.332,2.615,2.615,0,0,1,1.449.391,2.363,2.363,0,0,1,.91,1.172,3.162,3.162,0,0,1,1.059-1.145,2.769,2.769,0,0,1,1.527-.418,2.531,2.531,0,0,1,2.039.887,4.051,4.051,0,0,1,.75,2.668V0H49.641V-5.07a2.81,2.81,0,0,0-.43-1.77,1.567,1.567,0,0,0-1.281-.52,1.631,1.631,0,0,0-1.277.547,2.381,2.381,0,0,0-.574,1.383V0H44.531V-5.07a2.772,2.772,0,0,0-.441-1.738,1.532,1.532,0,0,0-1.27-.551,2.115,2.115,0,0,0-1.156.289,1.867,1.867,0,0,0-.7.813V0H39.43V-8.453ZM55.078,0H53.539V-8.453h1.539Zm0-10.617H53.539v-1.57h1.539ZM58.82-8.453,58.93-7.2a3.069,3.069,0,0,1,1.059-1.043,2.824,2.824,0,0,1,1.449-.371,2.759,2.759,0,0,1,2.117.8,3.515,3.515,0,0,1,.75,2.473V0H62.766V-5.3a2.287,2.287,0,0,0-.441-1.586,1.768,1.768,0,0,0-1.348-.469,2.386,2.386,0,0,0-1.207.285,2.072,2.072,0,0,0-.785.8V0H57.445V-8.453ZM71.734,0q-.078-.383-.121-.676a4.96,4.96,0,0,1-.051-.59,3.589,3.589,0,0,1-1.121,1.02,2.867,2.867,0,0,1-1.488.41,2.763,2.763,0,0,1-2.012-.676,2.486,2.486,0,0,1-.691-1.863,2.183,2.183,0,0,1,.98-1.895,4.579,4.579,0,0,1,2.66-.684h1.672v-.836a1.551,1.551,0,0,0-.453-1.176A1.779,1.779,0,0,0,69.828-7.4a1.859,1.859,0,0,0-1.211.375,1.125,1.125,0,0,0-.461.9L66.7-6.109l-.016-.047a2.023,2.023,0,0,1,.863-1.687,3.578,3.578,0,0,1,2.371-.766,3.49,3.49,0,0,1,2.313.73A2.588,2.588,0,0,1,73.1-5.773V-1.7a7.923,7.923,0,0,0,.047.875A4.5,4.5,0,0,0,73.32,0ZM69.18-1.125a2.739,2.739,0,0,0,1.508-.43,2.042,2.042,0,0,0,.875-.984V-3.914H69.836a2.24,2.24,0,0,0-1.488.469,1.4,1.4,0,0,0-.559,1.1,1.159,1.159,0,0,0,.352.891A1.472,1.472,0,0,0,69.18-1.125Z" transform="translate(-12000.543 -7374)" fill="#12263f"/>
    <g id="Grupo_1100389" data-name="Grupo 1100389" transform="translate(-13070.193 -8493.633)">
      <rect id="Rectángulo_401222" data-name="Rectángulo 401222" width="276.109" height="159.5" rx="11" transform="translate(968.595 1173.133)" fill="#99f2ce"/>
      <text id="La_evaluación_financiera_de_proyectos_determina_su_viabilidad_usando_indicadores_como_VPN_TIR_y_relación_Costo-Beneficio." data-name="La evaluación financiera de proyectos determina su viabilidad usando indicadores como VPN, TIR y relación Costo-Beneficio." transform="translate(988.898 1196.633)" fill="#12263f" font-size="16" font-family="Roboto-Regular, Roboto"><tspan x="-97.77" y="15">La evaluación financiera de </tspan><tspan x="-84.105" y="39">proyectos determina su </tspan><tspan x="-107.098" y="63">viabilidad usando indicadores </tspan><tspan x="-116.91" y="87">como VPN, TIR y relación Costo-</tspan><tspan x="-35.324" y="111">Beneficio.</tspan></text>
    </g>
    <g id="Grupo_1100390" data-name="Grupo 1100390" transform="translate(-12703.852 -8481.133)">
      <rect id="Rectángulo_401222-2" data-name="Rectángulo 401222" width="276.109" height="159.5" rx="11" transform="translate(968.595 1173.133)" fill="#99f2ce"/>
      <text id="La_evolución_economía_y_social_mide_el_impacto_de_un_proyecto_en_el_bienestar_del_país_mientras_la_evaluación_financiera_se_centra_en_su_rentabilidad._" data-name="La evolución economía y social mide el impacto de un proyecto en el bienestar del país, mientras la evaluación financiera se centra en su rentabilidad. " transform="translate(988.898 1196.633)" fill="#12263f" font-size="16" font-family="Roboto-Regular, Roboto"><tspan x="-112.023" y="15">La evolución economía y social </tspan><tspan x="-111.941" y="39">mide el impacto de un proyecto </tspan><tspan x="-117.641" y="63">en el bienestar del país, mientras </tspan><tspan x="-95.035" y="87">la evaluación financiera se </tspan><tspan x="-90.664" y="111">centra en su rentabilidad. </tspan></text>
    </g>
  </g>
</svg>
