<svg xmlns="http://www.w3.org/2000/svg" xmlns:xlink="http://www.w3.org/1999/xlink" width="1600" height="220" viewBox="0 0 1600 220">
  <defs>
    <clipPath id="clip-path">
      <path id="Recurso_1" data-name="Recurso 1" d="M0,0H1600V220H0Z" transform="translate(-9719 -12667)" fill="#fff" opacity="0.41"/>
    </clipPath>
    <clipPath id="clip-path-2">
      <rect id="Rectángulo_401199" data-name="Rectángulo 401199" width="1511.383" height="1369.591" fill="#01927f" stroke="#165b7a" stroke-width="1"/>
    </clipPath>
    <clipPath id="clip-path-3">
      <path id="Trazado_873019" data-name="Trazado 873019" d="M868.68,17.212c-286.372,56.015-556.035,204.762-745.137,426.7-48.15,56.535-91.811,119.04-112.1,190.452S-2.844,787.676,41.5,847.3c57.238,76.983,160.654,99.969,268.517,123.444-33.291,15.127-48.011,58.145-37.633,93.194,22.175,74.914,110.086,90.593,183.348,88.376,244.164-7.4,470.914-129.021,666.2-275.524,102.6-76.969,200.575-162.864,272.583-268.964,47.311-69.706,86.023-171.8,18.9-237.194-30.963-30.172-85.017-37.232-119.453-4.6,55.081-59.752,56.622-157.028,15.14-226.967S1190.683,25.277,1110.954,9.1a456.589,456.589,0,0,0-90.8-8.658C969.482.421,918.518,7.463,868.68,17.212" fill="#01927f"/>
    </clipPath>
    <clipPath id="clip-path-4">
      <path id="Trazado_873503" data-name="Trazado 873503" d="M0,0,1213.43.643l.583,1099.757L.583,1099.757Z" fill="#01927f" stroke="#165b7a" stroke-width="1"/>
    </clipPath>
    <clipPath id="clip-path-5">
      <path id="Trazado_873019-2" data-name="Trazado 873019" d="M697.7,13.895C467.7,58.873,251.127,178.351,99.261,356.633,60.592,402.048,25.529,452.259,9.237,509.627S-2.223,632.792,33.393,680.7c45.978,61.85,129.042,80.324,215.676,99.191-26.737,12.15-38.557,46.708-30.218,74.866,17.816,60.185,88.426,72.788,147.267,71.013,196.106-5.928,378.217-103.615,535.058-221.3,82.4-61.826,161.085-130.824,218.911-216.055,37.994-56,69.079-138.009,15.162-190.552-24.871-24.242-68.286-29.918-95.942-3.708,44.235-48,45.466-126.147,12.143-182.337S956.331,20.4,892.293,7.4A366.659,366.659,0,0,0,819.366.434c-40.7-.022-81.634,5.632-121.662,13.46" fill="#01927f"/>
    </clipPath>
    <clipPath id="clip-path-6">
      <rect id="Rectángulo_401509" data-name="Rectángulo 401509" width="610.406" height="544.941" fill="#ff9751"/>
    </clipPath>
    <clipPath id="clip-path-7">
      <path id="Trazado_874723" data-name="Trazado 874723" d="M159.857,383.436C388.719,527.142,532.429,266.343,532.429,266.343L80.019,16.184S-69.007,239.729,159.857,383.436" transform="translate(-32.336 -16.184)" fill="none"/>
    </clipPath>
    <clipPath id="clip-path-8">
      <path id="Trazado_873026" data-name="Trazado 873026" d="M236.6,172.259c-53.764-4.594-110.123,1.8-156.472,27.094S-.711,271.048.266,320.478C1.4,377.852,46.939,425.769,92.914,464.816,227.1,578.782,389.078,665.989,564.645,713.178c55.773,14.988,118.74,25.3,169.664-.257,48.671-24.426,74.146-77.817,73.156-128.66s-24.634-99.253-54.516-142.145-66.241-81.736-98.376-121.455c28.843.9,58.027,1.782,86.24-3.742s55.8-18.2,72.681-39.611c20.147-25.557,22.213-60.52,11.6-90.535s-32.482-55.69-56.951-77.918c-50.5-45.862-113.928-79.688-182.4-97.265C559.155,4.764,531.351.406,503.8.389a220.779,220.779,0,0,0-60.272,7.888" transform="translate(-0.246 -0.389)" fill="#ff9751"/>
    </clipPath>
    <clipPath id="clip-path-9">
      <rect id="Rectángulo_401502" data-name="Rectángulo 401502" width="235.071" height="235" fill="none" stroke="#fff" stroke-width="2"/>
    </clipPath>
    <clipPath id="clip-path-14">
      <rect id="Rectángulo_401606" data-name="Rectángulo 401606" width="223" height="223.254" fill="#00483f"/>
    </clipPath>
    <clipPath id="clip-path-15">
      <rect id="Rectángulo_401509-2" data-name="Rectángulo 401509" width="610.406" height="544.941" fill="#43c0ff"/>
    </clipPath>
    <clipPath id="clip-path-17">
      <rect id="Rectángulo_401607" data-name="Rectángulo 401607" width="218.782" height="43.489" fill="none" stroke="#fff" stroke-width="3"/>
    </clipPath>
    <clipPath id="clip-path-18">
      <rect id="Rectángulo_401608" data-name="Rectángulo 401608" width="50.304" height="83.48" fill="#02dd84"/>
    </clipPath>
    <clipPath id="clip-path-19">
      <rect id="Rectángulo_401508" data-name="Rectángulo 401508" width="48.922" height="73.415" fill="#b80fff"/>
    </clipPath>
  </defs>
  <g id="Grupo_1100368" data-name="Grupo 1100368" transform="translate(9719 12667)">
    <g id="Enmascarar_grupo_1098760" data-name="Enmascarar grupo 1098760" clip-path="url(#clip-path)">
      <path id="Trazado_870126" data-name="Trazado 870126" d="M23.031,0H1577.05a23.017,23.017,0,0,1,23.031,23v567.8a23.017,23.017,0,0,1-23.031,23H23.031A23.017,23.017,0,0,1,0,590.806V23A23.017,23.017,0,0,1,23.031,0Z" transform="translate(-9654 -12766.865)" fill="#01927f"/>
      <g id="Grupo_1099032" data-name="Grupo 1099032" transform="matrix(-0.927, 0.375, -0.375, -0.927, -7077.35, -12174.441)" opacity="0.33" style="mix-blend-mode: multiply;isolation: isolate">
        <g id="Grupo_1099028" data-name="Grupo 1099028">
          <g id="Grupo_1099027" data-name="Grupo 1099027" clip-path="url(#clip-path-2)">
            <path id="Trazado_873014" data-name="Trazado 873014" d="M1293.96,366.035c55.081-59.752,56.608-157.028,15.14-226.967S1190.67,25.28,1110.954,9.1,948.492,1.6,868.68,17.2C582.308,73.231,312.631,221.978,123.543,443.915c-48.15,56.521-91.825,119.04-112.1,190.452S-2.844,787.665,41.5,847.294c57.224,76.983,160.654,99.983,268.517,123.457-33.3,15.127-48.011,58.131-37.633,93.194,22.175,74.914,110.072,90.593,183.334,88.376,244.178-7.4,470.928-129.035,666.2-275.524,102.6-76.969,200.575-162.864,272.583-268.964,47.325-69.72,86.037-171.8,18.914-237.208-30.963-30.158-85.017-37.218-119.453-4.59" transform="translate(61.612 126.137)" fill="#01927f" stroke="#165b7a" stroke-width="1"/>
          </g>
        </g>
        <g id="Grupo_1099030" data-name="Grupo 1099030" transform="translate(61.612 126.14)">
          <g id="Grupo_1099029" data-name="Grupo 1099029" transform="translate(0 0)" clip-path="url(#clip-path-3)">
            <path id="Trazado_873015" data-name="Trazado 873015" d="M.262,602.825S758.012,749.784,623.455.271" transform="translate(-54.6 25.624)" fill="#01927f" stroke="#00b0ad" stroke-linecap="round" stroke-linejoin="round" stroke-width="1"/>
            <path id="Trazado_873016" data-name="Trazado 873016" d="M.408,937.72S677.247,1162.49,948.539.412" transform="translate(-54.619 -17.816)" fill="#01927f" stroke="#00b0ad" stroke-linecap="round" stroke-linejoin="round" stroke-width="1"/>
            <path id="Trazado_873017" data-name="Trazado 873017" d="M.589,1354.084s438.5,47.253,699.175-513.822S949.442.412,949.442.412" transform="translate(194.477 -119.093)" fill="#01927f" stroke="#00b0ad" stroke-linecap="round" stroke-linejoin="round" stroke-width="1"/>
            <path id="Trazado_873018" data-name="Trazado 873018" d="M555.3.241S532.908,503.49.365,839.972" transform="translate(835.626 256.649)" fill="#01927f" stroke="#00b0ad" stroke-linecap="round" stroke-linejoin="round" stroke-width="1"/>
          </g>
        </g>
      </g>
      <ellipse id="Elipse_11441" data-name="Elipse 11441" cx="403.5" cy="403" rx="403.5" ry="403" transform="translate(-9603 -13156.865)" fill="#01927f" opacity="0.37" style="mix-blend-mode: multiply;isolation: isolate"/>
      <circle id="Elipse_11485" data-name="Elipse 11485" cx="403.5" cy="403.5" r="403.5" transform="translate(-9833 -12960.057)" fill="#01927f" opacity="0.37" style="mix-blend-mode: multiply;isolation: isolate"/>
      <ellipse id="Elipse_11486" data-name="Elipse 11486" cx="404" cy="403" rx="404" ry="403" transform="translate(-9026 -12634.865)" fill="#01927f" opacity="0.37" style="mix-blend-mode: multiply;isolation: isolate"/>
      <g id="Grupo_1099031" data-name="Grupo 1099031" transform="matrix(0.875, -0.485, 0.485, 0.875, -9972.2, -12757.456)" opacity="0.11" style="mix-blend-mode: multiply;isolation: isolate">
        <g id="Grupo_1099028-2" data-name="Grupo 1099028" transform="translate(0 0)">
          <g id="Grupo_1099027-2" data-name="Grupo 1099027" clip-path="url(#clip-path-4)">
            <path id="Trazado_873014-2" data-name="Trazado 873014" d="M1039.307,294.16c44.235-48,45.454-126.147,12.143-182.337S956.32,20.4,892.293,7.4,761.807,1.354,697.7,13.886c-230,44.99-446.589,164.467-598.444,342.75-38.669,45.4-73.743,95.626-90.024,152.994S-2.223,632.784,33.393,680.691c45.967,61.85,129.042,80.335,215.676,99.2-26.748,12.15-38.557,46.7-30.218,74.866,17.816,60.185,88.414,72.788,147.256,71.013,196.117-5.928,378.228-103.626,535.058-221.3,82.4-61.826,161.085-130.824,218.911-216.055,38.005-56.007,69.09-138.009,15.173-190.564-24.871-24.23-68.286-29.906-95.942-3.7" transform="translate(49.495 101.339)" fill="#01927f" stroke="#165b7a" stroke-width="1"/>
          </g>
        </g>
        <g id="Grupo_1099030-2" data-name="Grupo 1099030" transform="translate(49.495 101.342)">
          <g id="Grupo_1099029-2" data-name="Grupo 1099029" transform="translate(0 0)" clip-path="url(#clip-path-5)">
            <path id="Trazado_873015-2" data-name="Trazado 873015" d="M.257,484.29S608.875,602.41,500.744.265" transform="translate(-43.852 20.582)" fill="#01927f" stroke="#00b0ad" stroke-linecap="round" stroke-linejoin="round" stroke-width="1"/>
            <path id="Trazado_873016-2" data-name="Trazado 873016" d="M.4,753.334S544.038,933.958,761.844.4" transform="translate(-43.87 -14.317)" fill="#01927f" stroke="#00b0ad" stroke-linecap="round" stroke-linejoin="round" stroke-width="1"/>
            <path id="Trazado_873017-2" data-name="Trazado 873017" d="M.577,1087.827s352.2,38,561.521-412.734S762.569.4,762.569.4" transform="translate(156.19 -95.66)" fill="#01927f" stroke="#00b0ad" stroke-linecap="round" stroke-linejoin="round" stroke-width="1"/>
            <path id="Trazado_873018-2" data-name="Trazado 873018" d="M446.007.236S428.058,404.528.358,674.806" transform="translate(671.175 206.247)" fill="#01927f" stroke="#00b0ad" stroke-linecap="round" stroke-linejoin="round" stroke-width="1"/>
          </g>
        </g>
      </g>
      <g id="Grupo_1099923" data-name="Grupo 1099923" transform="matrix(0.985, -0.174, 0.174, 0.985, -8635.893, -12966.27)">
        <g id="Grupo_1099920" data-name="Grupo 1099920">
          <g id="Grupo_1099919" data-name="Grupo 1099919" clip-path="url(#clip-path-6)">
            <path id="Trazado_874721" data-name="Trazado 874721" d="M80.02,16.185S-69.009,239.727,159.856,383.433,532.427,266.341,532.427,266.341Z" transform="translate(69.327 34.701)" fill="#ff9751"/>
          </g>
        </g>
        <g id="Grupo_1099922" data-name="Grupo 1099922" transform="translate(101.664 50.883)">
          <g id="Grupo_1099921" data-name="Grupo 1099921" clip-path="url(#clip-path-7)">
            <path id="Trazado_874722" data-name="Trazado 874722" d="M266.942,27.4C239.63,75.586,205.119,119.152,168.7,160.719c-36.458,41.608-74.944,81.389-111.251,123.132C37.345,306.963,17.934,330.7.1,355.619c-.494.692,1.025.528,1.283.418,28.2-11.969,46-36.235,66.3-57.925,23.737-25.353,47.116-50.826,72.391-74.7,25.561-24.143,52.165-47.157,79.2-69.63,27.1-22.527,55.127-43.916,80.518-68.4C328.766,57.442,355.745,27.473,386.028.9L384.286.859C355.179,65.3,311.226,121.715,264.424,174.2c-48.616,54.517-101.1,105.419-150.079,159.593C88.048,362.876,62.736,392.929,40.124,425c-.478.679,1.009.553,1.283.418,62.644-30.88,118.862-73.378,169.751-120.947,52.6-49.166,99.829-103.856,144.128-160.527,24.363-31.167,47.842-63.009,70.894-95.153-.6-.013-1.2-.028-1.8-.041-29.739,52.989-66.087,101.882-103.212,149.859-37.3,48.21-75.711,95.666-109.993,146.115-18.682,27.488-36.065,55.888-50.967,85.611-.462.918,1.38.4,1.676.182,55.441-41.265,114.536-77.283,172.575-114.706C393.19,277.94,451.386,238.618,503.7,192.09c29.032-25.822,56.1-53.876,79.921-84.6.572-.739-1.254-.45-1.5-.308-42.479,24.724-82.389,53.659-120.689,84.4C422.986,222.436,385.7,255,349.79,288.768c-25.476,23.951-51.769,47-77.563,70.6-29.469,26.969-58.469,54.627-84.819,84.687-23.008,26.249-45.384,55.011-58.23,87.787q-2.07,5.282-3.729,10.705c-.072.239.195.365.374.406,25.819,5.684,52.951-6.159,75.073-18.386,31.824-17.588,60.466-40.869,87.576-64.924,27.953-24.8,54.429-51.232,80.248-78.236,21.769-22.769,42.73-46.358,65.175-68.473,37.194-36.643,77.883-70.567,109.433-112.48q5.725-7.607,10.935-15.575c-.6-.016-1.2-.028-1.8-.041-23.272,43.246-51.816,83.354-81.524,122.368C441.1,346.4,409.932,384.595,380.972,424.461c-15.821,21.779-30.95,44.07-44.651,67.247-.374.632.717.572,1.031.506,45.519-9.5,84.14-40.479,116.762-72.083,38.483-37.278,71.768-79.559,104.928-121.516,16.789-21.244,33.484-42.6,51.26-63.034.56-.645-1.324-.538-1.676-.182-12.139,12.268-21.452,26.708-32.147,40.165-.528.67,1.409.541,1.8.044,10.617-13.359,19.845-27.708,31.9-39.888l-1.676-.179c-32.471,37.335-61.777,77.314-93.342,115.407-32.83,39.624-67.863,79.264-110.282,108.921-20.505,14.337-43.136,26.23-67.785,31.377l1.031.5c24.624-41.655,53.794-80.383,83.429-118.557,30.315-39.052,61.314-77.629,89.434-118.322a741.953,741.953,0,0,0,43.277-69.989c.446-.83-1.471-.544-1.8-.041-26.7,40.847-63.625,73.824-98.763,107.195-24,22.8-46.632,46.711-69.275,70.825-22.206,23.652-44.764,46.99-68.209,69.42-25.746,24.63-52.517,48.452-81.477,69.266-23.483,16.874-49.65,33.647-78.311,39.816a78.533,78.533,0,0,1-17.849,1.89,58.434,58.434,0,0,1-8.212-.7,6.605,6.605,0,0,1-1.971-.352c-.965-.55-.626.05-.638-1.116-.016-1.786,1.481-4.487,2.1-6.169,6.062-16.591,14.94-32.069,24.813-46.663,23.13-34.2,51.958-64.418,81.458-93.141,28.966-28.2,59.327-54.9,89.29-82.024,33.154-30.019,65.625-60.714,99.659-89.765,40.309-34.408,82.109-67.282,126.619-96.115q15.582-10.092,31.622-19.443c-.5-.1-1-.2-1.5-.308-43.114,55.6-96.685,101.932-153.346,143.225-56.4,41.1-115.989,77.5-174.546,115.376-31.758,20.546-63.245,41.551-93.6,64.141.56.06,1.119.119,1.676.182,26.784-53.414,61.437-102.391,97.5-149.862,37.068-48.8,75.94-96.244,111.593-146.115,19.741-27.617,38.461-55.995,55.083-85.611.465-.827-1.462-.512-1.8-.041-40.948,57.1-83.285,113.3-129.429,166.34-46.575,53.533-97.115,104.123-153.833,146.951-31.531,23.81-65.015,45.1-100.473,62.581.428.138.855.28,1.283.418,41.532-58.906,91.811-110.993,141.656-162.806,50.018-52,100.665-103.96,143.439-162.243C349.875,68.848,370.3,35.861,386.22.617c.321-.711-1.531-.223-1.742-.038-26.721,23.445-50.9,49.518-76.091,74.548-12.416,12.331-25.114,24.4-38.511,35.666-13.375,11.249-27.142,22.046-40.639,33.154-53.313,43.875-105.173,89.673-151.331,141.147-11.686,13.032-23.42,26.142-35.38,38.929-12.082,12.909-25.495,24.25-41.91,31.22.428.138.855.277,1.283.418,32.144-44.915,69.325-85.894,106.629-126.524,37.194-40.507,74.771-80.82,108.358-124.43a662.417,662.417,0,0,0,51.857-77.264c.446-.789-1.487-.6-1.8-.041" transform="translate(-101.664 -50.361)" fill="#fff"/>
          </g>
        </g>
      </g>
      <g id="Grupo_1099041" data-name="Grupo 1099041" transform="matrix(0.259, -0.966, 0.966, 0.259, -8079.298, -12306.529)" style="isolation: isolate">
        <g id="Grupo_1099036" data-name="Grupo 1099036" transform="translate(96.463 46.233)">
          <g id="Grupo_1099035" data-name="Grupo 1099035" transform="translate(0 0)" clip-path="url(#clip-path-8)">
            <path id="Trazado_873023" data-name="Trazado 873023" d="M711.43.549C688.481,185.7,627.575,205.511,504.7,215.263s-99.905,138.627-296.661,46.7S.043,55.719.043,55.719" transform="translate(106.357 40.904)" fill="#ff9751"/>
            <path id="Trazado_873024" data-name="Trazado 873024" d="M208.155.161s123.45,119.882,44.25,182.874S.057,73.469.057,73.469" transform="translate(336.321 -44.588)" fill="#ff9751"/>
          </g>
        </g>
      </g>
      <path id="Trazado_874714" data-name="Trazado 874714" d="M111.909,251.449c0-.185.974-.363,2.754-.527q.445-.04.957-.082a5.371,5.371,0,0,1,1.086-.079c.383.246.788-.454,1.213-.075a3.186,3.186,0,0,0,1.333-.073c.462-.087.946.155,1.447-.072.5-.476,1.023.531,1.561-.068a5.85,5.85,0,0,1,1.666-.062c.574.364,1.163,0,1.769-.062a1.7,1.7,0,0,0,1.868-.057,1.317,1.317,0,0,0,1.959-.055,5.758,5.758,0,0,0,2.049-.049,10.309,10.309,0,0,1,2.133-.046,2.31,2.31,0,0,1,2.208-.041,1.928,1.928,0,0,1,.568-.221,2.045,2.045,0,0,1,.283-.042c.046,0,.1-.006.144-.006l.241,0a12.787,12.787,0,0,1,2.041.229,7.89,7.89,0,0,0,2.162-.057,5.616,5.616,0,0,1,2.107.023c.408.009.848,0,1.3-.007l.335-.006.243.012.5.018c-.51.378-1.213.891-1.944,1.382-.492.308-.989.618-1.481.923l-.661.431a6.433,6.433,0,0,0-.572.4,10.647,10.647,0,0,0-.871.781c-.064.07-.13.138-.2.208-.048.066-.083.132-.125.2-.079.138-.153.28-.224.432l-.318.411-.079.1-.04.05-.017.031-.071.125c-.094.166-.192.329-.3.485a5.1,5.1,0,0,1-.325.466c-.061.073-.124.145-.193.215s-.132.143-.206.213a3.324,3.324,0,0,1-1,2.1,3.048,3.048,0,0,1-.2.553c-.075.183-.151.369-.226.552a2.586,2.586,0,0,0-.175.571,1.956,1.956,0,0,0-.03.607,4.047,4.047,0,0,0-.094.592,1.928,1.928,0,0,0-.015.3l-.009.474a16.065,16.065,0,0,1-.186,2.468l-.009.072c0,.009,0,.028-.01.03l-.042,0-.167-.013-.329-.025-.642-.046c-.421-.028-.825-.049-1.222-.058-.2,0-.395-.006-.59,0l-.1,0-.084.006-.165.013a3.6,3.6,0,0,0-.667.134c-.886.295-1.766-.123-2.638-.009-.872-.431-1.736.142-2.592-.013a11.466,11.466,0,0,0-2.537-.02,7.746,7.746,0,0,1-2.485-.023c-.817.664-1.625-.171-2.421-.028-.8-.281-1.582.042-2.357-.033-.774.124-1.535-.307-2.285-.036a8.245,8.245,0,0,1-2.211-.042c-.725.329-1.438-.28-2.133-.047a20.261,20.261,0,0,1-2.048-.049c-.669-.519-1.324-.089-1.961-.055-.637-.055-1.261.295-1.867-.057a4.224,4.224,0,0,0-1.77-.061c-.572.076-1.127-.755-1.666-.064-.539.123-1.06-.531-1.561-.068-.5.427-.984-.053-1.447-.069l-1.333-.074c-3.82-.225-6.006-.487-6.006-.764,0-.31,2.7-.6,7.34-.839.463-.024.946-.386,1.447-.072.5,0,1.022-.275,1.561-.066.538-.481,1.093-.089,1.666-.064a6.321,6.321,0,0,0,1.77-.063c.606-.279,1.23.14,1.867-.057a2.37,2.37,0,0,0,1.961-.053c.667.287,1.351-.062,2.048-.051.7.444,1.409.132,2.133-.046.724-.162,1.46.066,2.211-.041.75.084,1.511-.114,2.285-.038a4.113,4.113,0,0,1,2.357-.034,14.042,14.042,0,0,1,2.421-.028,15.764,15.764,0,0,1,2.485-.022c.836-.094,1.683.472,2.537-.02.855-.062,1.72.078,2.592-.013a11.886,11.886,0,0,0,2.638-.007,2.072,2.072,0,0,0,.667.228,2.531,2.531,0,0,0,.316.032.2.2,0,0,0,.087-.012.174.174,0,0,0,.1-.26c-.064-.119-.08-.134-.067-.183l0-.016.025-.177a3.249,3.249,0,0,1,.065-.364l.164-.719a11.391,11.391,0,0,1,.793-2.8,22.952,22.952,0,0,1,1.255-2.563,2.535,2.535,0,0,1,.137-.33,3.526,3.526,0,0,1,.189-.3,6.767,6.767,0,0,1,.448-.543c.307-.316.729-.783.661-.839l.02-.1.009-.044-.009-.016c-.012-.019-.024-.03-.017-.04a1.723,1.723,0,0,1,.351-.128,4.534,4.534,0,0,1,.422-.2l.2-.1.077-.041c.01-.01-.015-.006-.031-.006a2.3,2.3,0,0,0-.559.176,2.581,2.581,0,0,0-.582.271c-.105.064.022.032.2-.306-.126.085-.124,0-.216-.061l-.015-.013-.01-.006-.033-.006-.144-.021c-.094-.011-.189-.018-.283-.02a1.507,1.507,0,0,0-.568.091c-.748-.493-1.485-.024-2.208-.042a4.969,4.969,0,0,0-2.133-.045c-.7.236-1.382-.128-2.049-.05-.669.282-1.321-.369-1.959-.054-.638-.064-1.262.043-1.868-.057-.606.664-1.195,0-1.769-.061-.574-.1-1.13.442-1.666-.063-.538.5-1.059.068-1.561-.068s-.985.211-1.447-.07c-.465.354-.91-.2-1.333-.075-.425-.233-.83-.013-1.213-.075a1.9,1.9,0,0,1-1.086-.079l-.957-.079c-1.78-.167-2.754-.344-2.754-.531" transform="translate(-8966.208 -13045.85)" fill="#fff"/>
      <g id="Grupo_1099914" data-name="Grupo 1099914" transform="translate(-8587.03 -12828.189)">
        <g id="Grupo_1099901" data-name="Grupo 1099901">
          <g id="Grupo_1099900" data-name="Grupo 1099900" clip-path="url(#clip-path-9)">
            <line id="Línea_882" data-name="Línea 882" y1="77.561" transform="translate(117.552 0)" fill="none" stroke="#fff" stroke-miterlimit="10" stroke-width="2"/>
            <line id="Línea_883" data-name="Línea 883" y1="77.019" x2="9.153" transform="translate(122.271 0.822)" fill="none" stroke="#fff" stroke-miterlimit="10" stroke-width="2"/>
          </g>
        </g>
        <line id="Línea_884" data-name="Línea 884" y1="75.401" x2="18.176" transform="translate(126.924 3.274)" fill="none" stroke="#fff" stroke-miterlimit="10" stroke-width="2"/>
        <line id="Línea_885" data-name="Línea 885" y1="72.73" x2="26.946" transform="translate(131.447 7.322)" fill="none" stroke="#fff" stroke-miterlimit="10" stroke-width="2"/>
        <line id="Línea_886" data-name="Línea 886" y1="69.042" x2="35.34" transform="translate(135.775 12.912)" fill="none" stroke="#fff" stroke-miterlimit="10" stroke-width="2"/>
        <line id="Línea_887" data-name="Línea 887" y1="64.389" x2="43.24" transform="translate(139.848 19.964)" fill="none" stroke="#fff" stroke-miterlimit="10" stroke-width="2"/>
        <line id="Línea_888" data-name="Línea 888" y1="58.837" x2="50.535" transform="translate(143.61 28.378)" fill="none" stroke="#fff" stroke-miterlimit="10" stroke-width="2"/>
        <line id="Línea_889" data-name="Línea 889" y1="52.464" x2="57.125" transform="translate(147.008 38.039)" fill="none" stroke="#fff" stroke-miterlimit="10" stroke-width="2"/>
        <line id="Línea_890" data-name="Línea 890" y1="45.356" x2="62.916" transform="translate(149.995 48.812)" fill="none" stroke="#fff" stroke-miterlimit="10" stroke-width="2"/>
        <line id="Línea_891" data-name="Línea 891" y1="37.615" x2="67.829" transform="translate(152.528 60.543)" fill="none" stroke="#fff" stroke-miterlimit="10" stroke-width="2"/>
        <line id="Línea_892" data-name="Línea 892" y1="29.349" x2="71.794" transform="translate(154.572 73.072)" fill="none" stroke="#fff" stroke-miterlimit="10" stroke-width="2"/>
        <line id="Línea_893" data-name="Línea 893" y1="20.673" x2="74.754" transform="translate(156.099 86.223)" fill="none" stroke="#fff" stroke-miterlimit="10" stroke-width="2"/>
        <g id="Grupo_1099903" data-name="Grupo 1099903">
          <g id="Grupo_1099902" data-name="Grupo 1099902" clip-path="url(#clip-path-9)">
            <line id="Línea_894" data-name="Línea 894" y1="11.707" x2="76.672" transform="translate(157.088 99.812)" fill="none" stroke="#fff" stroke-miterlimit="10" stroke-width="2"/>
            <line id="Línea_895" data-name="Línea 895" y1="2.578" x2="77.519" transform="translate(157.524 113.648)" fill="none" stroke="#fff" stroke-miterlimit="10" stroke-width="2"/>
            <line id="Línea_896" data-name="Línea 896" x2="77.281" y2="6.586" transform="translate(157.401 120.952)" fill="none" stroke="#fff" stroke-miterlimit="10" stroke-width="2"/>
            <line id="Línea_897" data-name="Línea 897" x2="75.963" y2="15.658" transform="translate(156.722 125.63)" fill="none" stroke="#fff" stroke-miterlimit="10" stroke-width="2"/>
          </g>
        </g>
        <line id="Línea_898" data-name="Línea 898" x2="73.585" y2="24.513" transform="translate(155.496 130.195)" fill="none" stroke="#fff" stroke-miterlimit="10" stroke-width="2"/>
        <line id="Línea_899" data-name="Línea 899" x2="70.178" y2="33.024" transform="translate(153.739 134.584)" fill="none" stroke="#fff" stroke-miterlimit="10" stroke-width="2"/>
        <line id="Línea_900" data-name="Línea 900" x2="65.792" y2="41.074" transform="translate(151.477 138.735)" fill="none" stroke="#fff" stroke-miterlimit="10" stroke-width="2"/>
        <line id="Línea_901" data-name="Línea 901" x2="60.484" y2="48.551" transform="translate(148.741 142.591)" fill="none" stroke="#fff" stroke-miterlimit="10" stroke-width="2"/>
        <line id="Línea_902" data-name="Línea 902" x2="54.334" y2="55.349" transform="translate(145.569 146.096)" fill="none" stroke="#fff" stroke-miterlimit="10" stroke-width="2"/>
        <line id="Línea_903" data-name="Línea 903" x2="47.424" y2="61.373" transform="translate(142.005 149.203)" fill="none" stroke="#fff" stroke-miterlimit="10" stroke-width="2"/>
        <line id="Línea_904" data-name="Línea 904" x2="39.85" y2="66.541" transform="translate(138.1 151.867)" fill="none" stroke="#fff" stroke-miterlimit="10" stroke-width="2"/>
        <line id="Línea_905" data-name="Línea 905" x2="31.72" y2="70.779" transform="translate(133.908 154.052)" fill="none" stroke="#fff" stroke-miterlimit="10" stroke-width="2"/>
        <line id="Línea_906" data-name="Línea 906" x2="23.146" y2="74.027" transform="translate(129.487 155.727)" fill="none" stroke="#fff" stroke-miterlimit="10" stroke-width="2"/>
        <g id="Grupo_1099905" data-name="Grupo 1099905">
          <g id="Grupo_1099904" data-name="Grupo 1099904" clip-path="url(#clip-path-9)">
            <line id="Línea_907" data-name="Línea 907" x2="14.25" y2="76.24" transform="translate(124.9 156.869)" fill="none" stroke="#fff" stroke-miterlimit="10" stroke-width="2"/>
            <line id="Línea_908" data-name="Línea 908" x2="5.153" y2="77.389" transform="translate(120.21 157.461)" fill="none" stroke="#fff" stroke-miterlimit="10" stroke-width="2"/>
            <line id="Línea_909" data-name="Línea 909" x1="4.014" y2="77.456" transform="translate(111.468 157.496)" fill="none" stroke="#fff" stroke-miterlimit="10" stroke-width="2"/>
            <line id="Línea_910" data-name="Línea 910" x1="13.125" y2="76.441" transform="translate(97.659 156.973)" fill="none" stroke="#fff" stroke-miterlimit="10" stroke-width="2"/>
          </g>
        </g>
        <line id="Línea_911" data-name="Línea 911" x1="22.054" y2="74.36" transform="translate(84.126 155.899)" fill="none" stroke="#fff" stroke-miterlimit="10" stroke-width="2"/>
        <line id="Línea_912" data-name="Línea 912" x1="30.674" y2="71.238" transform="translate(71.061 154.289)" fill="none" stroke="#fff" stroke-miterlimit="10" stroke-width="2"/>
        <line id="Línea_913" data-name="Línea 913" x1="38.865" y2="67.12" transform="translate(58.646 152.166)" fill="none" stroke="#fff" stroke-miterlimit="10" stroke-width="2"/>
        <line id="Línea_914" data-name="Línea 914" x1="46.513" y2="62.066" transform="translate(47.054 149.559)" fill="none" stroke="#fff" stroke-miterlimit="10" stroke-width="2"/>
        <line id="Línea_915" data-name="Línea 915" x1="53.512" y2="56.144" transform="translate(36.446 146.506)" fill="none" stroke="#fff" stroke-miterlimit="10" stroke-width="2"/>
        <line id="Línea_916" data-name="Línea 916" x1="59.763" y2="49.437" transform="translate(26.972 143.047)" fill="none" stroke="#fff" stroke-miterlimit="10" stroke-width="2"/>
        <line id="Línea_917" data-name="Línea 917" x1="65.178" y2="42.04" transform="translate(18.764 139.233)" fill="none" stroke="#fff" stroke-miterlimit="10" stroke-width="2"/>
        <line id="Línea_918" data-name="Línea 918" x1="69.685" y2="34.056" transform="translate(11.934 135.116)" fill="none" stroke="#fff" stroke-miterlimit="10" stroke-width="2"/>
        <line id="Línea_919" data-name="Línea 919" x1="73.215" y2="25.595" transform="translate(6.583 130.753)" fill="none" stroke="#fff" stroke-miterlimit="10" stroke-width="2"/>
        <g id="Grupo_1099907" data-name="Grupo 1099907">
          <g id="Grupo_1099906" data-name="Grupo 1099906" clip-path="url(#clip-path-9)">
            <line id="Línea_920" data-name="Línea 920" x1="75.725" y2="16.778" transform="translate(2.779 126.206)" fill="none" stroke="#fff" stroke-miterlimit="10" stroke-width="2"/>
            <line id="Línea_921" data-name="Línea 921" x1="77.176" y2="7.724" transform="translate(0.58 121.538)" fill="none" stroke="#fff" stroke-miterlimit="10" stroke-width="2"/>
            <line id="Línea_922" data-name="Línea 922" x1="77.548" y1="1.436" transform="translate(0.016 115.378)" fill="none" stroke="#fff" stroke-miterlimit="10" stroke-width="2"/>
            <line id="Línea_923" data-name="Línea 923" x1="76.835" y1="10.576" transform="translate(1.096 101.525)" fill="none" stroke="#fff" stroke-miterlimit="10" stroke-width="2"/>
          </g>
        </g>
        <line id="Línea_924" data-name="Línea 924" x1="75.051" y1="19.57" transform="translate(3.801 87.895)" fill="none" stroke="#fff" stroke-miterlimit="10" stroke-width="2"/>
        <line id="Línea_925" data-name="Línea 925" x1="72.219" y1="28.288" transform="translate(8.094 74.68)" fill="none" stroke="#fff" stroke-miterlimit="10" stroke-width="2"/>
        <line id="Línea_926" data-name="Línea 926" x1="68.375" y1="36.611" transform="translate(13.919 62.065)" fill="none" stroke="#fff" stroke-miterlimit="10" stroke-width="2"/>
        <line id="Línea_927" data-name="Línea 927" x1="63.577" y1="44.425" transform="translate(21.191 50.223)" fill="none" stroke="#fff" stroke-miterlimit="10" stroke-width="2"/>
        <line id="Línea_928" data-name="Línea 928" x1="57.892" y1="51.616" transform="translate(29.808 39.324)" fill="none" stroke="#fff" stroke-miterlimit="10" stroke-width="2"/>
        <line id="Línea_929" data-name="Línea 929" x1="51.398" y1="58.086" transform="translate(39.651 29.517)" fill="none" stroke="#fff" stroke-miterlimit="10" stroke-width="2"/>
        <line id="Línea_930" data-name="Línea 930" x1="44.183" y1="63.745" transform="translate(50.585 20.94)" fill="none" stroke="#fff" stroke-miterlimit="10" stroke-width="2"/>
        <line id="Línea_931" data-name="Línea 931" x1="36.353" y1="68.514" transform="translate(62.453 13.712)" fill="none" stroke="#fff" stroke-miterlimit="10" stroke-width="2"/>
        <line id="Línea_932" data-name="Línea 932" x1="28.015" y1="72.325" transform="translate(75.091 7.936)" fill="none" stroke="#fff" stroke-miterlimit="10" stroke-width="2"/>
        <line id="Línea_933" data-name="Línea 933" x1="19.286" y1="75.124" transform="translate(88.322 3.693)" fill="none" stroke="#fff" stroke-miterlimit="10" stroke-width="2"/>
        <g id="Grupo_1099909" data-name="Grupo 1099909">
          <g id="Grupo_1099908" data-name="Grupo 1099908" clip-path="url(#clip-path-9)">
            <line id="Línea_934" data-name="Línea 934" x1="10.285" y1="76.876" transform="translate(101.963 1.039)" fill="none" stroke="#fff" stroke-miterlimit="10" stroke-width="2"/>
          </g>
        </g>
      </g>
      <g id="Grupo_1100362" data-name="Grupo 1100362" transform="translate(-8969.973 -12615.863)">
        <g id="Grupo_1100361" data-name="Grupo 1100361" transform="translate(0 0)" clip-path="url(#clip-path-14)">
          <path id="Trazado_875174" data-name="Trazado 875174" d="M8.078,65.348c0,.035-.085.064-.254.092a3.517,3.517,0,0,1-.783.035,6.434,6.434,0,0,1-2.958-.96,7.023,7.023,0,0,1-3.028-4.129,7.5,7.5,0,0,1-.24-1.623C.8,58.24.78,57.7.765,57.138.73,56.023.7,54.83.667,53.567c-.042-1.68-.078-3.487-.12-5.421-.071-1.934-.155-3.988-.12-6.162C.8,39.81-.258,37.523.314,35.109c.007-.134.021-.311.042-.487L.405,34.1a10.136,10.136,0,0,1,.212-1.045,7.774,7.774,0,0,1,.8-2,7.973,7.973,0,0,1,3.134-3.176,6.5,6.5,0,0,1,2.238-.748,8.4,8.4,0,0,1,1.193-.085c.367,0,.692.014,1.038.021a27.866,27.866,0,0,0,4.186-.134c2.845-.72,5.8.8,8.844-.1,3.056-.2,6.2-.141,9.451-.1,3.254.551,6.6.007,10.037-.092a33.338,33.338,0,0,0,10.588-.085,23.663,23.663,0,0,0,11.11-.085c3.79-.028,7.666.325,11.618-.071,3.953-.064,7.983-.226,12.091-.071a46.907,46.907,0,0,1,12.543-.064,56.861,56.861,0,0,1,12.967-.056c4.383.367,8.851-.572,13.362-.049,4.517.042,9.1-.148,13.729-.042a75.7,75.7,0,0,0,14.082-.035,134.17,134.17,0,0,1,14.4-.028,68.118,68.118,0,0,1,14.689-.021c4.948-.113,9.931.374,14.964-.014,5.026.113,10.094-.3,15.2,0a9.114,9.114,0,0,1,2.5.445,8.871,8.871,0,0,1,5.393,4.892,8.686,8.686,0,0,1,.678,2.372,10.286,10.286,0,0,1,.1,1.221l.021.939c.035,1.263.1,2.527.2,3.783.445,5.026-.184,10.016-.014,14.957a31.09,31.09,0,0,0-.247,3.7l-.007.48-.021.593a11.355,11.355,0,0,1-.155,1.186,10.035,10.035,0,0,1-.769,2.273,8.778,8.778,0,0,1-3.219,3.536,7.646,7.646,0,0,1-2.238.953,6.905,6.905,0,0,1-1.2.219c-.2.028-.4.021-.607.035s-.431.007-.558,0c-4.849.056-9.649-.381-14.4-.035-4.743.12-9.437.247-14.075-.028-4.637,1-9.218-.261-13.736-.042-4.517-.424-8.978.056-13.362-.056-4.39.191-8.71-.459-12.967-.056-4.256-.085-8.435.325-12.543-.064-4.108.5-8.138-.416-12.091-.064-3.953-.007-7.828.028-11.611-.078-3.79-.776-7.5-.134-11.117-.085-3.621-.078-7.15.445-10.588-.085a88.448,88.448,0,0,0-10.03-.092c-3.254.12-6.4-1.136-9.458-.092-3.042.184-6-.8-8.837-.106-2.852.642-5.583-.078-8.223-.106s-5.146-.071-7.553-.113c-10.821-.162-19.34-.346-25.15-.544s-8.915-.4-8.915-.607c0-.233,3.833-.459,10.948-.671s17.526-.409,30.669-.593c2.64-.035,5.372-.579,8.223-.1,2.838,0,5.8-.424,8.837-.106,3.056-.72,6.2-.134,9.458-.092,3.247-.042,6.593.2,10.03-.1,3.438-.416,6.967.212,10.588-.085a48.074,48.074,0,0,0,11.117-.085c3.783.438,7.659-.085,11.611-.071,3.953.671,7.983.2,12.091-.071,4.108-.247,8.287.1,12.543-.056,4.256.127,8.576-.176,12.967-.064a86.1,86.1,0,0,1,13.362-.049c4.517-.219,9.1-.042,13.736-.042,4.63-.261,9.331.035,14.075-.035,4.75-.141,9.55.713,14.4-.028a3.444,3.444,0,0,0,.346-.021,1.363,1.363,0,0,0,.3-.028,4.088,4.088,0,0,0,.586-.113,4.215,4.215,0,0,0,1.094-.452,4.353,4.353,0,0,0,2.1-2.809c.035-.2.078-.4.092-.6l.021-.311v-.445c0-1.228-.014-2.463-.049-3.7.092-4.941.191-9.931-.014-14.957a35.873,35.873,0,0,0,.346-3.783l.035-.939a5.422,5.422,0,0,0-.035-.685,3.923,3.923,0,0,0-.388-1.285,4.311,4.311,0,0,0-1.821-1.885,4.47,4.47,0,0,0-1.214-.438,5.374,5.374,0,0,0-1.256-.078c-5.1.212-10.171.106-15.2,0-5.033.071-10.016.035-14.964-.014-4.941.212-9.84-.311-14.689-.021-4.849.311-9.649-.332-14.4-.028a114.257,114.257,0,0,1-14.082-.035c-4.63,0-9.211-.663-13.729-.042-4.51.141-8.978.967-13.362-.049-4.39.254-8.717-.487-12.967-.056-4.249-.741-8.435-.035-12.543-.064A103.309,103.309,0,0,0,74.852,30.2c-3.953.353-7.828-.2-11.618-.078-3.79.424-7.5-.558-11.11-.085-3.621-.092-7.15.071-10.588-.085-3.438,1-6.783,0-10.037-.092-3.247-.148-6.4.663-9.451-.1-3.042.762-6,.106-8.844-.1a35.952,35.952,0,0,0-4.186.021l-1,.042c-.268.021-.529.028-.791.071a10.9,10.9,0,0,0-1.539.332,14.463,14.463,0,0,0-2.167,2.139A4.484,4.484,0,0,0,2.8,33.6a3.764,3.764,0,0,0-.176.727c-.014.127-.014.254-.021.381s0,.247.014.4c-.353,2.414-.021,4.7-.113,6.875a39.322,39.322,0,0,1-.12,6.162q-.064,2.9-.12,5.421c-.035,1.263-.064,2.456-.1,3.572l-.042,1.616A6.9,6.9,0,0,0,2.234,60.1a6.3,6.3,0,0,0,2.322,3.734A7.077,7.077,0,0,0,7.1,65.058c.318.1.565.127.734.176s.247.078.247.113" transform="translate(0.851 155.327)" fill="#00483f"/>
          <path id="Trazado_875175" data-name="Trazado 875175" d="M8.078,60.089c0,.035-.085.064-.254.092a4.011,4.011,0,0,1-.783.035,6.434,6.434,0,0,1-2.958-.96,7.018,7.018,0,0,1-3.028-4.136A7.373,7.373,0,0,1,.815,53.5C.8,52.981.78,52.437.765,51.879.73,50.757.7,49.571.667,48.308c-.042-1.68-.078-3.494-.12-5.421C.476,40.953.391,38.9.427,36.725.8,34.551-.258,32.264.314,29.85c.007-.141.021-.311.042-.487l.049-.529c.071-.346.106-.7.212-1.045a7.978,7.978,0,0,1,.8-2,8,8,0,0,1,3.134-3.169,6.5,6.5,0,0,1,2.238-.748,6.736,6.736,0,0,1,1.193-.085c.367,0,.692.014,1.038.021a28.832,28.832,0,0,0,4.186-.134c2.845-.72,5.8.8,8.844-.1,3.056-.2,6.2-.141,9.451-.1,3.254.551,6.6.007,10.037-.092a33.546,33.546,0,0,0,10.588-.085,23.756,23.756,0,0,0,11.11-.085c3.79-.028,7.666.325,11.618-.071,3.953-.064,7.983-.233,12.091-.071a46.907,46.907,0,0,1,12.543-.064,56.861,56.861,0,0,1,12.967-.056c4.383.36,8.851-.572,13.362-.049,4.517.042,9.1-.148,13.729-.042a76.316,76.316,0,0,0,14.082-.035,134.178,134.178,0,0,1,14.4-.028,68.116,68.116,0,0,1,14.689-.021c4.948-.113,9.931.374,14.964-.014,5.026.106,10.094-.3,15.2,0a9.377,9.377,0,0,1,2.5.438,9.225,9.225,0,0,1,2.259,1.115,9.019,9.019,0,0,1,3.134,3.783,8.687,8.687,0,0,1,.678,2.372,10.29,10.29,0,0,1,.1,1.214l.021.946c.035,1.263.1,2.527.2,3.783.445,5.026-.184,10.009-.014,14.957a31.09,31.09,0,0,0-.247,3.7l-.007.473-.021.6a11.355,11.355,0,0,1-.155,1.186,9.864,9.864,0,0,1-.769,2.266,8.8,8.8,0,0,1-3.219,3.543,8.043,8.043,0,0,1-2.238.953,7.637,7.637,0,0,1-1.2.219,5.733,5.733,0,0,1-.607.028,4.866,4.866,0,0,1-.558,0c-4.849.064-9.649-.374-14.4-.028-4.743.12-9.437.247-14.075-.035-4.637,1-9.218-.254-13.736-.035-4.517-.424-8.978.056-13.362-.056-4.39.191-8.71-.459-12.967-.056-4.256-.085-8.435.325-12.543-.064-4.108.5-8.138-.416-12.091-.064-3.953-.007-7.828.028-11.611-.078-3.79-.783-7.5-.134-11.117-.085-3.621-.085-7.15.445-10.588-.085a88.448,88.448,0,0,0-10.03-.092c-3.254.12-6.4-1.136-9.458-.1-3.042.191-6-.8-8.837-.1-2.852.642-5.583-.078-8.223-.106s-5.146-.071-7.553-.113c-10.821-.169-19.34-.353-25.15-.544s-8.915-.4-8.915-.607c0-.233,3.833-.459,10.948-.671s17.526-.409,30.669-.593c2.64-.035,5.372-.579,8.223-.106,2.838.007,5.8-.416,8.837-.1,3.056-.727,6.2-.134,9.458-.1,3.247-.035,6.593.2,10.03-.092,3.438-.416,6.967.212,10.588-.085a48.469,48.469,0,0,0,11.117-.085c3.783.438,7.659-.085,11.611-.071,3.953.671,7.983.2,12.091-.071,4.108-.247,8.287.1,12.543-.064,4.256.134,8.576-.169,12.967-.056a86.1,86.1,0,0,1,13.362-.049c4.517-.219,9.1-.042,13.736-.042,4.63-.261,9.331.035,14.075-.035,4.75-.141,9.55.713,14.4-.028a3.447,3.447,0,0,0,.346-.021,1.363,1.363,0,0,0,.3-.028,5.362,5.362,0,0,0,.586-.113,4.237,4.237,0,0,0,1.094-.459,4.465,4.465,0,0,0,1.673-1.687,4.562,4.562,0,0,0,.431-1.115,6,6,0,0,0,.092-.607l.021-.3v-.445c0-1.228-.014-2.463-.049-3.7.092-4.948.191-9.931-.014-14.957a35.874,35.874,0,0,0,.346-3.783l.035-.946a5.379,5.379,0,0,0-.035-.678,3.923,3.923,0,0,0-.388-1.285,4.274,4.274,0,0,0-1.821-1.885,4.487,4.487,0,0,0-1.214-.445,5.367,5.367,0,0,0-1.256-.071c-5.1.212-10.171.106-15.2,0-5.033.071-10.016.028-14.964-.014-4.941.212-9.84-.311-14.689-.021-4.849.311-9.649-.332-14.4-.028a114.254,114.254,0,0,1-14.082-.035c-4.63,0-9.211-.664-13.729-.042-4.51.141-8.978.967-13.362-.049-4.39.254-8.717-.487-12.967-.056-4.249-.741-8.435-.035-12.543-.064a101.788,101.788,0,0,0-12.091-.064c-3.953.346-7.828-.2-11.618-.085-3.79.431-7.5-.551-11.11-.078-3.621-.1-7.15.064-10.588-.085-3.438,1-6.783-.007-10.037-.092-3.247-.148-6.4.663-9.451-.1-3.042.755-6,.106-8.844-.1a35.945,35.945,0,0,0-4.186.021l-1,.042c-.268.021-.529.028-.791.071a10.892,10.892,0,0,0-1.539.332,14.462,14.462,0,0,0-2.167,2.139,4.535,4.535,0,0,0-.72,1.32,3.964,3.964,0,0,0-.176.734c-.014.127-.014.254-.021.381s0,.247.014.4c-.353,2.414-.021,4.7-.113,6.875a39.321,39.321,0,0,1-.12,6.162c-.042,1.927-.085,3.741-.12,5.421-.035,1.263-.064,2.449-.1,3.572L2.121,53.5a6.952,6.952,0,0,0,.113,1.348,6.3,6.3,0,0,0,2.322,3.734A7.078,7.078,0,0,0,7.1,59.8c.318.092.565.127.734.176s.247.078.247.113" transform="translate(0.851 123.466)" fill="#00483f"/>
          <path id="Trazado_875176" data-name="Trazado 875176" d="M8.078,54.83c0,.035-.085.064-.254.092a3.61,3.61,0,0,1-.783.028,6.267,6.267,0,0,1-2.958-.96A6.978,6.978,0,0,1,1.055,49.86a7.438,7.438,0,0,1-.24-1.623C.8,47.722.78,47.178.765,46.62.73,45.5.7,44.312.667,43.049c-.042-1.687-.078-3.494-.12-5.421C.476,35.694.391,33.64.427,31.466.8,29.292-.258,27,.314,24.591c.007-.141.021-.311.042-.494l.049-.522c.071-.346.106-.7.212-1.045a7.979,7.979,0,0,1,.8-2,8,8,0,0,1,3.134-3.169,6.5,6.5,0,0,1,2.238-.748,7.482,7.482,0,0,1,1.193-.092c.367,0,.692.021,1.038.028A28.832,28.832,0,0,0,13.2,16.41c2.845-.72,5.8.8,8.844-.1,3.056-.2,6.2-.148,9.451-.1,3.254.551,6.6.007,10.037-.092a33.55,33.55,0,0,0,10.588-.092,23.661,23.661,0,0,0,11.11-.078c3.79-.028,7.666.325,11.618-.078,3.953-.056,7.983-.226,12.091-.064a46.907,46.907,0,0,1,12.543-.064,56.861,56.861,0,0,1,12.967-.056c4.383.36,8.851-.572,13.362-.056,4.517.042,9.1-.141,13.729-.035a76.318,76.318,0,0,0,14.082-.035,134.174,134.174,0,0,1,14.4-.028,68.117,68.117,0,0,1,14.689-.021c4.948-.113,9.931.374,14.964-.014,5.026.106,10.094-.3,15.2-.007a9.677,9.677,0,0,1,2.5.445,9.225,9.225,0,0,1,2.259,1.115,8.976,8.976,0,0,1,3.134,3.783,8.687,8.687,0,0,1,.678,2.372,10.17,10.17,0,0,1,.1,1.214l.021.946c.035,1.263.1,2.527.2,3.783.445,5.026-.184,10.009-.014,14.957a31.09,31.09,0,0,0-.247,3.7l-.007.473-.021.6a11.356,11.356,0,0,1-.155,1.186,9.865,9.865,0,0,1-.769,2.266,8.8,8.8,0,0,1-3.219,3.543,8.044,8.044,0,0,1-2.238.953,8.546,8.546,0,0,1-1.2.219,5.733,5.733,0,0,1-.607.028c-.191.007-.431.007-.558,0-4.849.064-9.649-.374-14.4-.028-4.743.12-9.437.247-14.075-.035-4.637,1-9.218-.254-13.736-.042-4.517-.424-8.978.064-13.362-.049-4.39.191-8.717-.466-12.967-.056-4.256-.085-8.435.325-12.543-.064-4.108.494-8.138-.416-12.091-.064-3.953-.007-7.828.028-11.611-.078-3.79-.784-7.5-.134-11.117-.085-3.621-.085-7.15.445-10.588-.085a88.447,88.447,0,0,0-10.03-.092c-3.254.12-6.4-1.136-9.458-.1-3.042.191-6-.8-8.837-.1-2.852.642-5.583-.085-8.223-.106-2.626-.042-5.146-.071-7.553-.113-10.821-.169-19.34-.353-25.15-.544s-8.915-.4-8.915-.607c0-.233,3.833-.459,10.948-.671s17.526-.409,30.669-.593c2.64-.035,5.372-.579,8.223-.106,2.838,0,5.8-.416,8.837-.1,3.056-.727,6.2-.134,9.458-.1,3.247-.035,6.593.2,10.03-.092,3.438-.424,6.967.212,10.588-.085A48.469,48.469,0,0,0,107.949,53c3.783.438,7.659-.085,11.611-.071,3.953.671,7.983.2,12.091-.071,4.108-.247,8.287.1,12.543-.064,4.249.127,8.576-.169,12.967-.056a86.1,86.1,0,0,1,13.362-.049c4.517-.219,9.1-.042,13.736-.042,4.63-.261,9.331.035,14.075-.035,4.75-.141,9.55.706,14.4-.028a3.443,3.443,0,0,0,.346-.021,2.011,2.011,0,0,0,.3-.028,4.106,4.106,0,0,0,.586-.12,4.215,4.215,0,0,0,1.094-.452,4.353,4.353,0,0,0,2.1-2.809,5.581,5.581,0,0,0,.092-.6l.021-.3v-.445c0-1.228-.014-2.463-.049-3.7.092-4.948.191-9.931-.014-14.957a35.873,35.873,0,0,0,.346-3.783l.035-.946a5.379,5.379,0,0,0-.035-.678,3.923,3.923,0,0,0-.388-1.285,4.334,4.334,0,0,0-3.035-2.322,5.018,5.018,0,0,0-1.256-.078c-5.1.212-10.171.106-15.2,0-5.033.071-10.016.028-14.964-.014-4.941.212-9.84-.311-14.689-.021-4.849.311-9.649-.332-14.4-.028a114.254,114.254,0,0,1-14.082-.035c-4.63,0-9.211-.664-13.729-.042-4.51.141-8.978.967-13.362-.049-4.39.254-8.717-.487-12.967-.056-4.249-.748-8.435-.042-12.543-.064a103.307,103.307,0,0,0-12.091-.064c-3.953.346-7.828-.2-11.618-.085-3.79.431-7.5-.551-11.11-.078-3.621-.1-7.15.064-10.588-.085-3.438,1-6.783-.007-10.037-.092-3.247-.148-6.4.663-9.451-.1-3.042.755-6,.106-8.844-.106a37.556,37.556,0,0,0-4.186.028c-.339.014-.671.028-1,.035-.268.021-.529.035-.791.078a10.9,10.9,0,0,0-1.539.332,14.463,14.463,0,0,0-2.167,2.139,4.535,4.535,0,0,0-.72,1.32,3.964,3.964,0,0,0-.176.734c-.014.127-.014.254-.021.381s0,.247.014.4c-.353,2.407-.021,4.7-.113,6.875a39.321,39.321,0,0,1-.12,6.162q-.064,2.89-.12,5.421c-.035,1.263-.064,2.449-.1,3.572l-.042,1.616a7,7,0,0,0,.113,1.348,6.3,6.3,0,0,0,2.322,3.734A7.2,7.2,0,0,0,7.1,54.54c.318.092.565.127.734.176s.247.078.247.113" transform="translate(0.851 91.604)" fill="#00483f"/>
          <path id="Trazado_875177" data-name="Trazado 875177" d="M22.964,73.342c-.275,0-.544-1.842-.8-5.223-.035-.565-.078-1.172-.12-1.814a12.9,12.9,0,0,1-.12-2.061c.367-.727-.685-1.5-.113-2.3a7.556,7.556,0,0,0-.113-2.534c-.127-.882.233-1.793-.106-2.746-.72-.953.8-1.941-.1-2.965a13.838,13.838,0,0,1-.1-3.162c.551-1.087.007-2.209-.092-3.353a3.96,3.96,0,0,0-.085-3.55,2.957,2.957,0,0,0-.085-3.72c-.021-1.271.332-2.562-.071-3.889a24.1,24.1,0,0,1-.071-4.045,5.417,5.417,0,0,1-.064-4.2,6.54,6.54,0,0,1-.056-4.341c.367-1.468-.572-2.965-.049-4.475.042-1.518-.148-3.049-.042-4.6a18.57,18.57,0,0,0,.311-2.336q.011-.3,0-.593l-.014-.3L21.065,11l-.021-.042a.3.3,0,0,0-.3-.184.249.249,0,0,0-.127-.085.821.821,0,0,1-.24.092l-.035-.021-.021-.007-.007-.014c-.014-.007.007-.007-.042-.014a6.3,6.3,0,0,1-.889-.141,7.769,7.769,0,0,1-4.92.021c-1.659.12-3.325-.374-5.012.014a10.779,10.779,0,0,0-1.263,0l-.635.035-.318.021-.155.014H7l-.021.007c-.106.056-.106.078-.367-.071-.106.007-.212.155-.233.36l-.007.028v.558c.007.2.021.416.035.628a8.791,8.791,0,0,0,.2,1.271c.445,1.68-.184,3.346-.014,5-.649,1.652.212,3.289-.021,4.913.064,1.631-.374,3.233-.028,4.821a18.478,18.478,0,0,1-.035,4.715c1,1.56-.254,3.085-.042,4.6-.424,1.511.064,3-.042,4.468.184,1.468-.466,2.922-.056,4.348-.085,1.419.318,2.816-.064,4.193.494,1.376-.424,2.725-.071,4.052-.007,1.32.028,2.619-.078,3.889-.783,1.263-.134,2.506-.078,3.72C6,63.4,6.518,64.59,5.988,65.74A10.17,10.17,0,0,0,5.9,69.1a4.417,4.417,0,0,1-.4,1.6.787.787,0,0,0-.113.487c.028.148.148.268.409.233.064.12-.021.325-.12.607a.479.479,0,0,0,.332.226.692.692,0,0,0,.607-.247.9.9,0,0,1,.353-.254,2.23,2.23,0,0,1,.671.056,7.512,7.512,0,0,0,1.348.3c.882.042,1.729.085,2.534.113,7.249.339,11.4.734,11.4,1.151,0,.466-5.124.9-13.934,1.263a10.682,10.682,0,0,0-1.348.247,2.9,2.9,0,0,1-.713.049,3.618,3.618,0,0,1-1.087-.191c-.918,0-2,.169-3.092.212a8.573,8.573,0,0,1,.106-1.814A4.5,4.5,0,0,1,2.529,70.7c.056-.529.219-1.066.233-1.6a14.538,14.538,0,0,0-.085-3.36c-.424-1.151.2-2.336-.092-3.543a5.569,5.569,0,0,0-.078-3.72c.431-1.271-.092-2.569-.078-3.889.671-1.327.2-2.675-.071-4.052-.24-1.376.106-2.774-.064-4.193.134-1.426-.169-2.88-.056-4.348A9.649,9.649,0,0,1,2.2,37.527a32.251,32.251,0,0,1-.042-4.6A36.177,36.177,0,0,1,2.12,28.21c-.141-1.588.706-3.19-.028-4.821-.1-1.623.113-3.261-.028-4.913a27.565,27.565,0,0,0-.007-5A4.736,4.736,0,0,0,2.4,12.2a4.776,4.776,0,0,0,.042-.628v-.325l-.014-.367c-.056-1.461-.24-3.056-.381-4.814V6.06c1.5-.106,3.176-.127,4.807-.113l.7.014.635.028,1.263.078c1.687-.078,3.353-.035,5.012.014,1.652-.212,3.289.311,4.92.014a6.22,6.22,0,0,1,.889-.085h.4l.416.007.84.028c1.1.049,2.132.134,3.176.162A18.7,18.7,0,0,0,25.18,8.5c.056.706.1,1.447.134,2.2l.014.282.007.162.021.3q.021.3.021.593a9.655,9.655,0,0,1-.233,2.336c0,1.553-.664,3.085-.042,4.6.141,1.511.967,3.007-.049,4.475.254,1.468-.487,2.915-.056,4.341-.741,1.419-.035,2.823-.064,4.2a11.818,11.818,0,0,0-.071,4.045c.36,1.327-.191,2.619-.071,3.889.424,1.263-.558,2.506-.085,3.72-.092,1.207.064,2.393-.085,3.55,1,1.143,0,2.266-.092,3.353-.148,1.087.663,2.139-.092,3.162.755,1.023.1,2.012-.106,2.965s.318,1.863-.106,2.746c.536.882-.3,1.729-.113,2.534-.353.8-.021,1.574-.113,2.3a4.476,4.476,0,0,1-.12,2.061c-.042.642-.078,1.249-.12,1.814-.247,3.381-.515,5.223-.8,5.223" transform="translate(11.835 36.006)" fill="#00483f"/>
          <path id="Trazado_875178" data-name="Trazado 875178" d="M47.292,73.342c-.282,0-.551-1.842-.8-5.223-.042-.565-.078-1.172-.12-1.814a12.132,12.132,0,0,1-.12-2.061c.367-.727-.685-1.5-.113-2.3a7.744,7.744,0,0,0-.113-2.534c-.127-.882.233-1.793-.106-2.746-.72-.953.8-1.941-.106-2.965a13.843,13.843,0,0,1-.092-3.162c.551-1.087,0-2.209-.092-3.353a3.96,3.96,0,0,0-.085-3.55,2.966,2.966,0,0,0-.085-3.72c-.028-1.271.325-2.562-.078-3.889a24.879,24.879,0,0,1-.064-4.045,5.386,5.386,0,0,1-.064-4.2,6.5,6.5,0,0,1-.056-4.341c.36-1.468-.572-2.965-.056-4.475.042-1.518-.141-3.049-.035-4.6a17.339,17.339,0,0,0,.3-2.336,5.538,5.538,0,0,0,.007-.593l-.021-.3L45.386,11l-.014-.042a.3.3,0,0,0-.3-.184.249.249,0,0,0-.127-.085.914.914,0,0,1-.247.092l-.028-.021-.021-.007-.014-.014c-.007-.007.014-.007-.042-.014a6.644,6.644,0,0,1-.889-.141,7.747,7.747,0,0,1-4.913.021c-1.659.12-3.325-.374-5.012.014a10.779,10.779,0,0,0-1.263,0l-.635.035-.318.021-.162.014h-.078l-.014.007c-.113.056-.113.078-.374-.071-.106.007-.2.155-.233.36v.106l-.007.155.007.325c0,.2.014.416.028.628a7.935,7.935,0,0,0,.2,1.271c.445,1.68-.184,3.346-.014,5-.649,1.652.212,3.289-.021,4.913.064,1.631-.374,3.233-.028,4.821a18.479,18.479,0,0,1-.035,4.715c1,1.56-.254,3.085-.042,4.6-.424,1.511.064,3-.049,4.468.191,1.468-.466,2.922-.056,4.348-.085,1.419.325,2.816-.064,4.193.494,1.376-.416,2.725-.071,4.052,0,1.32.035,2.619-.071,3.889-.784,1.263-.134,2.506-.085,3.72-.085,1.207.445,2.393-.085,3.543a10.174,10.174,0,0,0-.092,3.36,4.148,4.148,0,0,1-.4,1.6.787.787,0,0,0-.113.487c.035.148.148.268.409.233.071.12-.014.325-.12.607a.513.513,0,0,0,.332.226.7.7,0,0,0,.614-.247.85.85,0,0,1,.353-.254,2.248,2.248,0,0,1,.671.056,7.379,7.379,0,0,0,1.348.3c.875.042,1.722.085,2.527.113,7.249.339,11.407.734,11.407,1.151,0,.466-5.132.9-13.934,1.263a10.457,10.457,0,0,0-1.348.247,2.938,2.938,0,0,1-.72.049,3.658,3.658,0,0,1-1.087-.191c-.918,0-2,.169-3.092.212a8.6,8.6,0,0,1,.113-1.814A4.5,4.5,0,0,1,26.85,70.7c.064-.529.219-1.066.24-1.6A14.949,14.949,0,0,0,27,65.74c-.416-1.151.212-2.336-.085-3.543a5.569,5.569,0,0,0-.078-3.72c.431-1.271-.1-2.569-.078-3.889.664-1.327.2-2.675-.071-4.052-.247-1.376.1-2.774-.064-4.193.127-1.426-.169-2.88-.056-4.348a9.649,9.649,0,0,1-.049-4.468,33.321,33.321,0,0,1-.042-4.6,36.177,36.177,0,0,1-.035-4.715c-.141-1.588.713-3.19-.028-4.821-.092-1.623.113-3.261-.021-4.913a28.906,28.906,0,0,0-.007-5,4.716,4.716,0,0,0,.339-1.271,4.8,4.8,0,0,0,.049-.628v-.325l-.014-.367c-.056-1.461-.24-3.056-.381-4.814V6.06c1.5-.106,3.169-.127,4.807-.113l.7.014.635.028,1.263.078c1.687-.078,3.353-.035,5.012.014,1.652-.212,3.289.311,4.913.014a6.419,6.419,0,0,1,.889-.085h.4l.424.007.833.028c1.108.049,2.139.134,3.183.162A16.251,16.251,0,0,0,49.508,8.5c.049.706.1,1.447.127,2.2l.021.282.007.162.021.3.021.593a10.019,10.019,0,0,1-.233,2.336c0,1.553-.663,3.085-.042,4.6.141,1.511.967,3.007-.049,4.475.254,1.468-.494,2.915-.056,4.341-.748,1.419-.042,2.823-.064,4.2a11.818,11.818,0,0,0-.071,4.045c.353,1.327-.2,2.619-.071,3.889.424,1.263-.558,2.506-.085,3.72-.1,1.207.064,2.393-.085,3.55,1,1.143-.007,2.266-.092,3.353-.148,1.087.663,2.139-.1,3.162.755,1.023.1,2.012-.1,2.965-.226.953.318,1.863-.106,2.746.529.882-.3,1.729-.113,2.534-.353.8-.021,1.574-.12,2.3A4.477,4.477,0,0,1,48.21,66.3c-.042.642-.085,1.249-.12,1.814-.254,3.381-.522,5.223-.8,5.223" transform="translate(159.205 36.006)" fill="#00483f"/>
          <path id="Trazado_875179" data-name="Trazado 875179" d="M214.346,44.42c0-.035.085-.071.254-.113s.409-.085.72-.184a6.188,6.188,0,0,0,2.485-1.3,5.7,5.7,0,0,0,1.969-3.875,2.563,2.563,0,0,0-.014-.572c-.071-.2-.141-.424-.219-.635-.169-.487-.346-1-.522-1.518q-.54-1.567-1.143-3.339-.8-2.372-1.722-5.082c-.635-1.807-1.32-3.72-1.927-5.781-.289-2.167-1.969-4.016-2.139-6.459-.275-1.158-.635-2.322-1.038-3.5-.212-.586-.416-1.179-.635-1.779-.106-.3-.212-.607-.325-.9l-.106-.3a1,1,0,0,1-.085-.339l-.049-.551a5.549,5.549,0,0,0-1.278-2.845A3.768,3.768,0,0,0,205.657,4c-.134.014-.275.056-.409.078l-.212.021-.268.028a8.954,8.954,0,0,1-1.066.021c-.72-.028-1.44-.12-2.167-.212a10.676,10.676,0,0,0-4.454.12c-3.021.2-6.134.141-9.353.092-3.212-.544-6.522,0-9.924.1a32.838,32.838,0,0,0-10.475.085,23.25,23.25,0,0,0-10.99.078c-3.755.035-7.581-.318-11.5.078-3.9.056-7.891.226-11.957.071a45.582,45.582,0,0,1-12.4.056,55.691,55.691,0,0,1-12.832.064c-4.334-.367-8.746.572-13.214.049-4.468-.042-9,.148-13.581.035a74.728,74.728,0,0,0-13.934.042,131.294,131.294,0,0,1-14.244.028,66.687,66.687,0,0,1-14.534.021c-4.884.113-9.818-.381-14.795.007-1.242-.028-2.492-.021-3.734,0L17.738,4.9a3.445,3.445,0,0,0-.346.021,1.9,1.9,0,0,0-.289.042c-.092.014-.191.028-.282.049l-.275.085a4.49,4.49,0,0,0-1.023.515,4.029,4.029,0,0,0-.826.8,3.819,3.819,0,0,0-.579,1,4.6,4.6,0,0,0-.191.551l-.064.282a3.813,3.813,0,0,0-.049.48,2.11,2.11,0,0,1-.056.424l-.141.416-.169.473-.318.9L12.5,12.713c-.416,1.179-.819,2.372-1.207,3.565-.769,2.386-1.468,4.786-2.012,7.221-1.066,4.87-3.134,9.395-4.433,14.117-.127.275-.254.558-.367.84l-.042.1-.021.014-.028.042a.149.149,0,0,0-.035.092l-.014.056.014.134a2.108,2.108,0,0,0,.028.3,2.937,2.937,0,0,0,.155.593,3.5,3.5,0,0,0,1.525,1.828,4.25,4.25,0,0,0,1.087.445,4.853,4.853,0,0,0,1.151.106c1.186-.042,2.407-.049,3.6.007,4.8-.056,9.543.381,14.244.028,4.694-.12,9.338-.247,13.926.035,4.588-1,9.12.261,13.588.042,4.468.424,8.873-.064,13.214.049,4.348-.184,8.618.466,12.825.064,4.207.078,8.35-.332,12.409.056,4.066-.494,8.047.424,11.964.071,3.9,0,7.736-.035,11.484.078,3.755.776,7.419.127,11,.078,3.579.085,7.073-.445,10.468.085a85.126,85.126,0,0,0,9.931.092c3.212-.113,6.331,1.143,9.345.1,3.021-.184,5.936.8,8.753.106,2.816-.649,5.527.078,8.124.1q3.907.064,7.475.113c10.708.169,19.136.353,24.881.551s8.816.4,8.816.6c0,.233-3.79.459-10.828.671s-17.336.416-30.345.593c-2.6.035-5.308.586-8.124.106-2.816,0-5.732.416-8.753.106-3.014.72-6.134.127-9.345.092-3.219.035-6.529-.2-9.924.092-3.4.424-6.9-.2-10.475.085a47.825,47.825,0,0,0-11,.085c-3.748-.438-7.581.092-11.484.078-3.917-.671-7.9-.2-11.964.071-4.059.24-8.2-.106-12.409.056-4.207-.127-8.477.176-12.825.064a85.07,85.07,0,0,1-13.214.049c-4.468.212-9,.042-13.588.042-4.588.261-9.233-.035-13.926.028-4.7.141-9.444-.706-14.244.035-1.207.021-2.393.021-3.614.021a8.852,8.852,0,0,1-2.463-.4,8.778,8.778,0,0,1-2.23-1.108,8.425,8.425,0,0,1-3.021-3.9,8.706,8.706,0,0,1-.36-1.2c-.042-.2-.071-.416-.106-.621-.014-.106-.035-.191-.042-.325l-.028-.424-.021-.424L0,38.081a1.107,1.107,0,0,1,.056-.2l.219-.734.254-.882c1.546-4.637,3.113-9.317,4.4-14.124A45.455,45.455,0,0,0,7.524,15.1c.346-1.207.664-2.421.967-3.642L8.95,9.621,9.183,8.7l.106-.431L9.268,8.2a2.937,2.937,0,0,1,.014-.466l.078-.649a8.071,8.071,0,0,1,.325-1.278A7.666,7.666,0,0,1,10.92,3.487,8.162,8.162,0,0,1,15.2.544l.642-.162c.212-.049.431-.071.642-.106s.445-.042.656-.056.473-.021.6-.014l1.878.028c1.242.028,2.492.049,3.734.078C28.326.24,33.26.275,38.144.325c4.892-.219,9.741.311,14.534.021,4.8-.311,9.55.332,14.244.028A111.862,111.862,0,0,1,80.855.41c4.581,0,9.113.664,13.581.042,4.468-.141,8.88-.967,13.214.042,4.348-.247,8.626.494,12.832.056,4.2.748,8.336.042,12.4.064a101.061,101.061,0,0,0,11.957.071c3.917-.353,7.743.2,11.5.078,3.748-.424,7.411.558,10.99.078,3.579.1,7.073-.064,10.475.092,3.4-1,6.713.007,9.924.085,3.219.148,6.331-.656,9.353.106a14.034,14.034,0,0,1,4.447-.311c.734.042,1.454.127,2.174.2.353.042.713.078,1.066.113l.268.028.318.042a4.958,4.958,0,0,1,.649.092,8.619,8.619,0,0,1,4.482,2.252,6.02,6.02,0,0,1,1.878,4.412l.064.289.042.12a.291.291,0,0,0,.049.106l.071.127c.12.3.226.607.325.911.191.607.332,1.221.466,1.835a21.7,21.7,0,0,0,.9,3.543c.381,2.379,1.369,4.44,1.92,6.522a39.134,39.134,0,0,1,1.708,5.852q.794,2.753,1.482,5.16c.339,1.193.656,2.336.96,3.4.155.529.3,1.045.431,1.546.085.275.155.551.24.819a.522.522,0,0,1,.014.233l-.021.226c-.014.155-.021.311-.035.452a6.667,6.667,0,0,1-1.031,2.7,6.382,6.382,0,0,1-1.638,1.694,5.83,5.83,0,0,1-2.922,1.066,3.686,3.686,0,0,1-.783-.021c-.176-.028-.261-.064-.261-.1" transform="translate(0 -0.003)" fill="#00483f"/>
          <path id="Trazado_875180" data-name="Trazado 875180" d="M14.243,13.107a1.1,1.1,0,0,1-.438.8l-.155.12c-.049.071-.106.155-.169.12-.056-.367-.12.685-.191.113-.064-.162-.134-.007-.212.113s-.148-.233-.226.106c-.085.72-.162-.8-.247.106-.085.191-.176.134-.268.092-.085-.551-.184-.007-.282.092-.092-.664-.191-.374-.289.085-.1-.9-.2-.769-.311.085-.106.028-.219-.325-.325.071-.106.064-.219.233-.339.071-.113.607-.226.579-.346.064-.12.649-.24.4-.367.056-.12-.36-.247.572-.367.049-.127-.042-.254.148-.388.042-.127-.268-.261-.565-.4.035-.127.162-.261.381-.4.028-.134.7-.275.388-.409.021-.141.113-.282-.374-.424.014-.134-.113-.275.3-.416,0-.141-.2-.289-.409-.431,0-.134.445-.275-.184-.416-.014-.134-.649-.268.212-.4-.021-.141.064-.275-.374-.409-.028-.127.12-.261.247-.388-.035-.134,1-.261-.254-.381-.042-.127-.416-.254.064-.374-.049-.127.184-.247-.459-.36-.056-.127-.085-.24.325-.353-.064-.113.5-.226-.416-.339-.071-.113,0-.219.035-.325-.071-.106-.776-.2-.134-.311-.085-.1-.085-.2.445-.3-.085-.1-.064-.184-.409-.275-.092-.092.12-.184-1.136-.268-.092-.085.184-.162-.8-.247-.106-.078.642-.155-.078-.226-.106s-.141-.071-.212-.113c-.607-.339-.946-.727-.946-1.151,0-.466.424-.9,1.158-1.263.071-.035.148-.586.226-.106.085.007.162-.416.247-.1.085-.727.176-.134.268-.1.092-.035.176.2.275-.092.1-.424.2.212.3-.085.106.445.2.332.311-.085.106.438.212-.085.325-.071.113.671.226.2.339-.071.113-.247.226.1.353-.064.113.127.233-.169.36-.056.12-.311.247-.431.374-.049.12-.219.247-.042.381-.042.127-.268.261.035.388-.035.134-.141.268.713.409-.028.134-.092.268.12.4-.014.141.092.282.184.416-.014.141.727.289.275.431-.007.141-.212.282-.106.416.007a.472.472,0,0,1,.424.014c.134-.219.275.311.409.014s.268.332.4.028c.134-.212.268-.325.4.035.134,0,.261.663.388.042.12-.141.247-.967.367.049.127-.254.247.487.367.056.12.741.233.042.346.064.12.141.233.4.339.071.106-.353.219.191.325.071.106-.424.212.558.311.085.1.092.2-.064.289.085.1-1,.2.007.282.092.092.148.184-.664.268.1.085-.762.162-.1.247.1.078.226.155-.318.226.106.078-.529.148.3.212.113.071.353.134.021.191.113.064-.12.12-.078.169.12l.155.127a1.073,1.073,0,0,1,.438.791" transform="translate(1.963 63.722)" fill="#00483f"/>
          <path id="Trazado_875181" data-name="Trazado 875181" d="M43.211,36.165c-.282,0-.551-.409-.8-1.158-.042-.127-.085-.261-.12-.4a.7.7,0,0,1-.12-.459c.367-.162-.685-.339-.113-.515.162-.176.007-.367-.113-.558s.233-.4-.106-.614c-.72-.212.8-.431-.1-.656a.733.733,0,0,1-.1-.706c.551-.24,0-.487-.092-.748.663-.254.374-.515-.085-.783.9-.268.762-.544-.085-.826-.028-.282.325-.572-.078-.861-.056-.3-.226-.6-.064-.9-.607-.3-.586-.621-.064-.932-.656-.318-.4-.642-.056-.967.36-.325-.572-.656-.049-1,.042-.332-.148-.678-.042-1.016.268-.346.565-.7-.035-1.052-.162-.353-.381-.706-.028-1.073-.7-.36-.388-.727-.021-1.087-.113-.374.381-.741-.014-1.115.113-.374-.3-.755,0-1.136.2-.374.409-.755,0-1.129a.4.4,0,0,1-.092-.558c.035-.092.085-.184.113-.275l.021-.064-.028-.021c.325-.056.275-.127.169-.134s-.268.042-.148-.035c-.035-.014.056-.092.12-.176s.078-.148-.092-.021l-.078.035c-.12.078-.141.106-.035-.113-.374.5-.289.438-.233.275.078-.162.127-.424.056-.318.028-.212-.035-.2-.085-.141l-.064.085-.092.021a.227.227,0,0,1-.12-.014c-.325.191-.649-.459-.967-.056-.318-.085-.628.325-.932-.064-.3.5-.607-.416-.9-.071a2.391,2.391,0,0,1-.868-.071c-.282-.776-.558-.134-.826-.078-.268-.092-.536.438-.791-.092-.254-.064-.5-.4-.741-.092-.247.12-.48-1.136-.706-.092-.226.184-.452-.8-.656-.106-.212.642-.416-.078-.614-.106s-.381-.078-.565-.113c-1.6-.339-2.534-.727-2.534-1.151,0-.466,1.143-.9,3.1-1.256.2-.042.4-.593.614-.113.2.007.431-.416.656-.1.226-.727.459-.134.706-.1.24-.035.487.2.741-.092.254-.424.522.212.791-.085.268.445.544.332.826-.078.282.431.572-.092.868-.078.289.671.593.2.9-.071.3-.24.614.1.932-.064.318.127.642-.169.967-.056a.859.859,0,0,1,.12-.106.32.32,0,0,1,.155-.085,2.231,2.231,0,0,1,.48-.1,1.35,1.35,0,0,1,.889.24,5.756,5.756,0,0,1,1.9-.042,3.26,3.26,0,0,1,1.539-.028,2.12,2.12,0,0,0,0,.424,2.974,2.974,0,0,1-.212,1.143c-.106.4-.134.692.24.84.092.642-.12,1.376.021,2.033l-.035.261a1.759,1.759,0,0,1-.035.219,1.835,1.835,0,0,0-.035.275,1.045,1.045,0,0,0,.113.558c-.72.374-.275.755.007,1.129a1.415,1.415,0,0,1-.007,1.136,3.693,3.693,0,0,1-.007,1.115c.212.36-.318.727-.021,1.087s-.332.72-.028,1.073c.212.353.325.706-.035,1.052,0,.339-.663.685-.042,1.016.141.339.967.671-.049,1,.254.325-.494.649-.056.967-.741.311-.042.628-.064.932-.141.3-.4.6-.071.9.353.289-.191.579-.071.861.424.282-.558.558-.085.826-.1.268.064.529-.085.783,1,.261-.007.508-.092.748-.148.247.663.473-.1.706.755.226.1.445-.1.656-.226.212.318.416-.106.614.529.191-.3.381-.113.558-.36.176-.021.353-.12.515.127.155.078.311-.113.459l-.127.4c-.247.748-.515,1.158-.791,1.158" transform="translate(177.206 63.901)" fill="#00483f"/>
          <path id="Trazado_875182" data-name="Trazado 875182" d="M42.047,13.107c0,.282-.409.544-1.165.8-.12.042-.254.078-.4.12a.747.747,0,0,1-.466.12c-.155-.367-.332.685-.508.113-.176-.162-.367-.007-.565.113s-.4-.233-.607.106c-.212.72-.431-.8-.663.106a.755.755,0,0,1-.7.092c-.24-.551-.494-.007-.748.092-.261-.664-.515-.374-.784.085-.275-.9-.551-.769-.833.085-.275.028-.565-.325-.868.071-.289.064-.586.233-.9.071-.3.607-.614.579-.932.064-.311.649-.635.4-.967.056-.325-.36-.649.572-.988.049-.339-.042-.678.148-1.023.042-.346-.268-.692-.565-1.045.035-.353.162-.713.381-1.073.028-.36.7-.727.388-1.094.021-.367.113-.734-.374-1.115.014-.367-.113-.748.3-1.129,0-.374-.2-.755-.409-1.129,0-.374.445-.748-.184-1.115-.014-.367-.649-.727.212-1.087-.021-.367.064-.72-.374-1.073-.028-.353.12-.706.247-1.052-.035-.339,1-.685-.254-1.016-.042-.339-.416-.671.064-1-.049-.325.184-.649-.459-.967-.056-.311-.085-.628.325-.932-.064-.3.5-.607-.416-.9-.071a2.365,2.365,0,0,1-.861-.071c-.275-.776-.558-.134-.826-.085-.268-.085-.536.445-.791-.085-.254-.064-.5-.409-.741-.092-.247.12-.48-1.136-.706-.092-.226.184-.445-.8-.656-.106-.212.642-.416-.078-.614-.106s-.381-.078-.558-.113c-1.616-.339-2.534-.727-2.534-1.151,0-.466,1.136-.9,3.092-1.263.2-.035.4-.586.614-.106.212.007.431-.416.656-.1.226-.727.459-.134.706-.1.24-.035.487.2.741-.092.254-.424.522.212.791-.085.268.445.551.332.826-.085.282.438.572-.085.861-.071.3.671.6.2.9-.071.3-.247.621.1.932-.064.318.127.642-.169.967-.056.325-.311.656-.431,1-.049.332-.219.678-.042,1.016-.042.346-.268.7.035,1.052-.035.353-.141.706.713,1.073-.028.36-.092.72.12,1.087-.014a1.488,1.488,0,0,0,1.115-.014c.374.727.755.275,1.129-.007a1.37,1.37,0,0,1,1.129.007,3.113,3.113,0,0,1,1.115.014c.367-.219.734.311,1.094.014s.72.332,1.073.028c.353-.212.7-.325,1.045.035.346,0,.685.663,1.023.042.339-.141.664-.967.988.049.332-.254.656.487.967.056.318.741.628.042.932.064.311.141.607.4.9.071.3-.353.593.191.868.071.282-.424.558.558.833.085.268.092.522-.064.784.085.254-1,.508.007.748.092.24.148.473-.664.7.1.233-.762.452-.1.663.1.212.226.416-.318.607.106.2-.529.388.3.565.113.176.353.353.021.508.113.162-.12.318-.078.466.12.141.042.275.085.4.127.755.247,1.165.508,1.165.791" transform="translate(29.844 63.722)" fill="#00483f"/>
          <path id="Trazado_875183" data-name="Trazado 875183" d="M58.482,13.107c0,.282-.409.544-1.165.8-.12.042-.254.078-.4.12a.707.707,0,0,1-.452.12c-.169-.367-.339.685-.515.113-.176-.162-.367-.007-.565.113s-.4-.233-.607.106c-.212.72-.431-.8-.656.106a.771.771,0,0,1-.706.092c-.24-.551-.494-.007-.748.092-.254-.664-.515-.374-.791.085-.268-.9-.544-.769-.826.085-.275.028-.565-.325-.861.071-.3.064-.593.233-.9.071-.311.607-.621.579-.932.064-.325.649-.642.4-.967.056-.325-.36-.656.572-1,.049-.339-.042-.678.148-1.016.042-.353-.268-.7-.565-1.052.035-.353.162-.713.381-1.073.028-.36.7-.727.388-1.094.021-.367.113-.734-.374-1.108.014-.374-.113-.755.3-1.136,0-.374-.2-.755-.409-1.129,0-.374.445-.748-.184-1.108-.014-.367-.649-.734.212-1.1-.021-.353.064-.713-.374-1.066-.028a.993.993,0,0,1-1.052-.035c-.346,1-.685-.254-1.016-.042-.339-.416-.671.064-1-.049-.325.184-.649-.459-.967-.056-.318-.085-.621.325-.932-.064-.3.5-.607-.416-.9-.071a2.391,2.391,0,0,1-.868-.071c-.282-.776-.558-.134-.826-.085-.268-.085-.529.445-.783-.085-.261-.064-.508-.409-.748-.092-.24.12-.48-1.136-.706-.092-.226.184-.445-.8-.656-.106-.212.642-.416-.078-.614-.106s-.381-.078-.558-.113c-1.609-.339-2.534-.727-2.534-1.151,0-.466,1.136-.9,3.092-1.263.2-.035.4-.586.614-.106.212.007.431-.416.656-.1.226-.727.466-.134.706-.1.24-.035.487.2.748-.092.254-.424.515.212.783-.085.268.445.544.332.826-.085.282.438.572-.085.868-.071.289.671.593.2.9-.071.311-.247.614.1.932-.064.318.127.642-.169.967-.056.325-.311.656-.431,1-.049.332-.219.671-.042,1.016-.042.353-.268.7.035,1.052-.035.353-.141.713.713,1.066-.028.367-.092.734.12,1.1-.014a1.47,1.47,0,0,0,1.108-.014c.374.727.755.275,1.129-.007a1.387,1.387,0,0,1,1.136.007,3.076,3.076,0,0,1,1.108.014c.367-.219.734.311,1.094.014s.72.332,1.073.028c.353-.212.7-.325,1.052.035.339,0,.678.663,1.016.042.339-.141.671-.967,1,.049.325-.254.642.487.967.056.311.741.621.042.932.064.3.141.6.4.9.071.3-.353.586.191.861.071.282-.424.558.558.826.085.275.092.536-.064.791.085.254-1,.508.007.748.092.24.148.473-.664.706.1.226-.762.445-.1.656.1.212.226.409-.318.607.106.2-.529.388.3.565.113.176.353.346.021.515.113.155-.12.311-.078.452.12q.222.064.4.127c.755.247,1.165.508,1.165.791" transform="translate(129.416 63.722)" fill="#00483f"/>
          <path id="Trazado_875184" data-name="Trazado 875184" d="M83.471,39.046c0-.071.134-.148.4-.226s.635-.191,1.122-.346a7.843,7.843,0,0,0,3.487-2.435,6.638,6.638,0,0,0,1-1.666,11.679,11.679,0,0,0,.5-2.1c.459-.692-.621-1.666-.049-2.626a10.531,10.531,0,0,0-.106-3.035c-.127-1.059.226-2.153-.113-3.3-.72-1.136.8-2.322-.1-3.55-.049-.3-.078-.614-.106-.925-.021-.282-.049-.515-.071-.769-.049-.24-.056-.5-.127-.741l-.078-.381-.12-.367a1.631,1.631,0,0,0-.12-.826,2.247,2.247,0,0,0-.48-.671,7.17,7.17,0,0,0-1.334-.988A2.008,2.008,0,0,0,85.906,12.9a3.228,3.228,0,0,0-1.793.014A1.9,1.9,0,0,0,83.7,12.6a1.423,1.423,0,0,0-.226-.127,1.978,1.978,0,0,0-.268-.092,3.671,3.671,0,0,0-1.1-.127,5,5,0,0,0-2.259.7c-1.525.028-3.085-.325-4.673.078a34.725,34.725,0,0,1-4.856.064,7.684,7.684,0,0,1-5.033.064,9.272,9.272,0,0,1-5.209.056c-1.772-.36-3.557.572-5.372.049-1.807-.035-3.649.148-5.513.049a12.342,12.342,0,0,0-5.654.035,22.008,22.008,0,0,1-5.781.021,11.088,11.088,0,0,1-5.9.021c-1.983.12-4-.374-6.014.014-2.019-.106-4.052.3-6.1,0a4.441,4.441,0,0,0-2.188.219A3.139,3.139,0,0,0,15.9,15.054c-.325.663-.713,1.2-1.045,1.814a4.431,4.431,0,0,0-.381.974,2.7,2.7,0,0,0-.092.522v.409l.014.184c-.649,1.983.212,3.953-.021,5.9.064,1.948-.374,3.875-.028,5.788l.042.706c.021.219.056.346.064.529a8.63,8.63,0,0,0,.226.96,14.735,14.735,0,0,0,.72,1.835A3.124,3.124,0,0,1,17,35.792,2.628,2.628,0,0,0,18.652,36.8a4.721,4.721,0,0,0,.473.191,3.991,3.991,0,0,0,.494.078l.134.007h.5c.226-.007.452-.014.678-.028a21,21,0,0,1,2.661-.092c1.758-.191,3.5.459,5.209.056,1.708.085,3.388-.325,5.033.064,1.652-.494,3.275.416,4.856.064,1.588.007,3.148-.028,4.666.078,1.525.783,3.014.134,4.468.085,1.454.078,2.873-.445,4.249.085a14.351,14.351,0,0,0,4.03.092c1.3-.113,2.569,1.136,3.8.1,1.228-.191,2.407.8,3.55.1,1.136-.642,2.238.085,3.3.106,1.045.035,2.068.078,3.028.113,8.7.339,13.686.727,13.686,1.151,0,.466-6.162.9-16.715,1.263-1.066.035-2.167.579-3.3.106-1.143-.007-2.322.416-3.55.1-1.228.727-2.5.134-3.8.1a21.517,21.517,0,0,0-4.03.092c-1.376.416-2.8-.212-4.249.085a7.966,7.966,0,0,0-4.468.085c-1.518-.438-3.078.085-4.666.071-1.581-.671-3.2-.2-4.856.071-1.645.247-3.325-.1-5.033.064-1.708-.127-3.452.169-5.209.056a17.822,17.822,0,0,1-2.661.282q-.339.011-.678,0l-.339-.014-.162-.007-.219-.021c-.3-.035-.593-.071-.882-.134s-.572-.155-.847-.254a7.589,7.589,0,0,1-3.31-1.228A10.348,10.348,0,0,1,11.9,37.3a7.283,7.283,0,0,1-1.68-3.219,9.959,9.959,0,0,1-.275-1.821l-.028-.9c.007-.233,0-.473-.007-.706-.141-1.913.713-3.84-.028-5.788-.1-1.948.113-3.917-.021-5.9l.014-.184.014-.24.035-.48a7.438,7.438,0,0,1,.155-.953,9.483,9.483,0,0,1,.544-1.856A12.42,12.42,0,0,1,12.617,11.9c1.172-.692,2.23-1.334,3.381-1.9a11.2,11.2,0,0,1,3.748-1.143,39.09,39.09,0,0,1,6.1,0c2.019-.078,4.03-.035,6.014.007,1.983-.212,3.953.318,5.9.021s3.875.332,5.781.028a18.736,18.736,0,0,1,5.654.035c1.863,0,3.706.663,5.513.049,1.814-.141,3.6-.967,5.372.042,1.758-.247,3.5.494,5.209.064,1.7.741,3.388.035,5.033.056a16.747,16.747,0,0,0,4.856.071c1.588-.353,3.148.191,4.673.078a4.889,4.889,0,0,1,2.259.056,7.362,7.362,0,0,0,1.1.148c.1.007.176.007.275.007a2.71,2.71,0,0,0,.339,0,6.168,6.168,0,0,0,.685-.078,13.148,13.148,0,0,1,2.548.685A7.092,7.092,0,0,1,89.237,11.5a2.658,2.658,0,0,1,2.012,1.581,6.885,6.885,0,0,1,.459,1.2c.085.416.226.791.325,1.179a5.189,5.189,0,0,0,.191.558c.056.191.127.374.184.558a7.237,7.237,0,0,1,.36,1.129,3.705,3.705,0,0,1,.1,1.136,1.989,1.989,0,0,1-.318.925c.762,1.228.113,2.414-.1,3.55s.318,2.245-.1,3.3c.522,1.052-.3,2.068-.12,3.035a3.372,3.372,0,0,0-.148,1.412l.021.346v.381a2.692,2.692,0,0,1-.071.755,4.2,4.2,0,0,1-.9,2.64,8.077,8.077,0,0,1-1.475,1.934A7.954,7.954,0,0,1,87.2,38.75a7.1,7.1,0,0,1-2.04.522,4.3,4.3,0,0,1-1.271-.042c-.289-.049-.424-.113-.424-.184" transform="translate(59.726 51.773)" fill="#00483f"/>
          <path id="Trazado_875185" data-name="Trazado 875185" d="M83.471,39.046c0-.071.134-.148.4-.226s.635-.191,1.122-.346a7.843,7.843,0,0,0,3.487-2.435,6.638,6.638,0,0,0,1-1.666,11.679,11.679,0,0,0,.5-2.1c.459-.692-.621-1.666-.049-2.626a10.531,10.531,0,0,0-.106-3.035c-.127-1.059.226-2.153-.113-3.3-.72-1.136.8-2.322-.1-3.55-.049-.3-.078-.614-.106-.925-.021-.282-.049-.515-.071-.769-.049-.24-.056-.5-.127-.741l-.078-.381-.12-.367a1.631,1.631,0,0,0-.12-.826,2.247,2.247,0,0,0-.48-.671,7.17,7.17,0,0,0-1.334-.988A2.008,2.008,0,0,0,85.906,12.9a3.228,3.228,0,0,0-1.793.014A1.9,1.9,0,0,0,83.7,12.6a1.423,1.423,0,0,0-.226-.127,1.978,1.978,0,0,0-.268-.092,3.671,3.671,0,0,0-1.1-.127,5,5,0,0,0-2.259.7c-1.525.028-3.085-.325-4.673.078a34.725,34.725,0,0,1-4.856.064,7.684,7.684,0,0,1-5.033.064,9.272,9.272,0,0,1-5.209.056c-1.772-.36-3.557.572-5.372.049-1.807-.035-3.649.148-5.513.049a12.342,12.342,0,0,0-5.654.035,22.008,22.008,0,0,1-5.781.021,11.088,11.088,0,0,1-5.9.021c-1.983.12-4-.374-6.014.014-2.019-.106-4.052.3-6.1,0a4.441,4.441,0,0,0-2.188.219A3.139,3.139,0,0,0,15.9,15.054c-.325.663-.713,1.2-1.045,1.814a4.431,4.431,0,0,0-.381.974,2.7,2.7,0,0,0-.092.522v.409l.014.184c-.649,1.983.212,3.953-.021,5.9.064,1.948-.374,3.875-.028,5.788l.042.706c.021.219.056.346.064.529a8.63,8.63,0,0,0,.226.96,14.735,14.735,0,0,0,.72,1.835A3.124,3.124,0,0,1,17,35.792,2.628,2.628,0,0,0,18.652,36.8a4.721,4.721,0,0,0,.473.191,3.991,3.991,0,0,0,.494.078l.134.007h.5c.226-.007.452-.014.678-.028a21,21,0,0,1,2.661-.092c1.758-.191,3.5.459,5.209.056,1.708.085,3.388-.325,5.033.064,1.652-.494,3.275.416,4.856.064,1.588.007,3.148-.028,4.666.078,1.525.783,3.014.134,4.468.085,1.454.078,2.873-.445,4.249.085a14.351,14.351,0,0,0,4.03.092c1.3-.113,2.569,1.136,3.8.1,1.228-.191,2.407.8,3.55.1,1.136-.642,2.238.085,3.3.106,1.045.035,2.068.078,3.028.113,8.7.339,13.686.727,13.686,1.151,0,.466-6.162.9-16.715,1.263-1.066.035-2.167.579-3.3.106-1.143-.007-2.322.416-3.55.1-1.228.727-2.5.134-3.8.1a21.517,21.517,0,0,0-4.03.092c-1.376.416-2.8-.212-4.249.085a7.966,7.966,0,0,0-4.468.085c-1.518-.438-3.078.085-4.666.071-1.581-.671-3.2-.2-4.856.071-1.645.247-3.325-.1-5.033.064-1.708-.127-3.452.169-5.209.056a17.822,17.822,0,0,1-2.661.282q-.339.011-.678,0l-.339-.014-.162-.007-.219-.021c-.3-.035-.593-.071-.882-.134s-.572-.155-.847-.254a7.589,7.589,0,0,1-3.31-1.228A10.348,10.348,0,0,1,11.9,37.3a7.283,7.283,0,0,1-1.68-3.219,9.959,9.959,0,0,1-.275-1.821l-.028-.9c.007-.233,0-.473-.007-.706-.141-1.913.713-3.84-.028-5.788-.1-1.948.113-3.917-.021-5.9l.014-.184.014-.24.035-.48a7.438,7.438,0,0,1,.155-.953,9.483,9.483,0,0,1,.544-1.856A12.42,12.42,0,0,1,12.617,11.9c1.172-.692,2.23-1.334,3.381-1.9a11.2,11.2,0,0,1,3.748-1.143,39.09,39.09,0,0,1,6.1,0c2.019-.078,4.03-.035,6.014.007,1.983-.212,3.953.318,5.9.021s3.875.332,5.781.028a18.736,18.736,0,0,1,5.654.035c1.863,0,3.706.663,5.513.049,1.814-.141,3.6-.967,5.372.042,1.758-.247,3.5.494,5.209.064,1.7.741,3.388.035,5.033.056a16.747,16.747,0,0,0,4.856.071c1.588-.353,3.148.191,4.673.078a4.889,4.889,0,0,1,2.259.056,7.362,7.362,0,0,0,1.1.148c.1.007.176.007.275.007a2.71,2.71,0,0,0,.339,0,6.168,6.168,0,0,0,.685-.078,13.148,13.148,0,0,1,2.548.685A7.092,7.092,0,0,1,89.237,11.5a2.658,2.658,0,0,1,2.012,1.581,6.885,6.885,0,0,1,.459,1.2c.085.416.226.791.325,1.179a5.189,5.189,0,0,0,.191.558c.056.191.127.374.184.558a7.237,7.237,0,0,1,.36,1.129,3.705,3.705,0,0,1,.1,1.136,1.989,1.989,0,0,1-.318.925c.762,1.228.113,2.414-.1,3.55s.318,2.245-.1,3.3c.522,1.052-.3,2.068-.12,3.035a3.372,3.372,0,0,0-.148,1.412l.021.346v.381a2.692,2.692,0,0,1-.071.755,4.2,4.2,0,0,1-.9,2.64,8.077,8.077,0,0,1-1.475,1.934A7.954,7.954,0,0,1,87.2,38.75a7.1,7.1,0,0,1-2.04.522,4.3,4.3,0,0,1-1.271-.042c-.289-.049-.424-.113-.424-.184" transform="translate(59.726 51.773)" fill="#00483f"/>
          <path id="Trazado_875186" data-name="Trazado 875186" d="M20.948,12.863c.282,0,.551.2.8.579.042.064.078.127.12.2.078.071.155.148.12.226-.367.078.685.162.113.254-.162.092-.014.191.113.282s-.233.2.106.3c.72.113-.8.219.1.332.2.113.141.233.1.346-.551.127-.007.247.092.381-.663.127-.374.254.085.4-.9.127-.762.268.085.409.028.141-.325.282.071.431.064.148.233.3.071.452.607.155.586.311.064.466.656.155.4.318.056.48-.367.162.572.332.049.5-.042.169.148.339.042.508-.268.176-.565.346.035.529.162.176.381.353.028.529.692.184.388.36.021.551.113.184-.381.367.007.551-.106.191.311.381.007.565-.2.2-.409.381-.007.572.452.184-.184.367-.007.558-.649.184.212.36-.021.544.064.176-.374.36-.028.536.12.176.247.346-.035.522,1,.176-.254.346-.042.515-.424.162.064.332-.049.494.184.162-.459.325-.056.48-.085.162.325.311-.064.466.5.155-.416.3-.071.452a.614.614,0,0,1-.071.431c-.784.141-.134.275-.085.416-.078.134.445.268-.085.388-.064.134-.409.254-.092.374.12.127-1.136.24-.1.353.191.113-.8.226-.1.332.642.106-.078.2-.106.3s-.078.191-.113.282c-.332.8-.727,1.263-1.151,1.263-.466,0-.9-.565-1.263-1.546-.035-.1-.579-.2-.106-.3,0-.106-.416-.219-.106-.332-.72-.113-.127-.226-.092-.353-.035-.12.2-.24-.092-.374-.424-.12.212-.254-.085-.388.445-.141.325-.275-.085-.416.438-.134-.085-.282-.071-.431.664-.148.2-.3-.071-.452-.247-.155.1-.3-.064-.466.127-.155-.169-.318-.056-.48-.318-.162-.431-.332-.049-.494-.219-.169-.042-.339-.042-.515-.261-.176.035-.346-.035-.522-.141-.176.713-.36-.028-.536-.092-.184.12-.36-.021-.544.092-.191.191-.374-.014-.558.727-.191.282-.374,0-.572-.212-.184-.106-.374,0-.565a.917.917,0,0,1,.014-.551c-.212-.191.318-.367.021-.551s.332-.353.028-.529c-.212-.184-.325-.353.035-.529,0-.169.664-.339.042-.508-.141-.169-.967-.339.049-.5-.254-.162.494-.325.056-.48.741-.155.042-.311.064-.466.141-.155.4-.3.071-.452-.36-.148.191-.289.071-.431-.424-.141.558-.282.085-.409.1-.141-.064-.268.085-.4-1-.134.007-.254.092-.381.148-.113-.664-.233.092-.346-.755-.113-.1-.219.106-.332s-.318-.2.106-.3c-.529-.092.3-.191.113-.282.353-.092.021-.176.113-.254-.12-.078-.071-.155.12-.226.042-.078.078-.141.12-.2.247-.374.515-.579.8-.579" transform="translate(111.23 77.928)" fill="#00483f"/>
          <path id="Trazado_875187" data-name="Trazado 875187" d="M9.184,34.831c-.275,0-.544-.212-.791-.607l-.127-.2c-.071-.078-.148-.155-.12-.24.367-.085-.685-.176-.113-.268.162-.092.014-.191-.113-.3s.233-.2-.106-.318c-.72-.106.8-.226-.1-.339-.2-.12-.141-.24-.1-.367.551-.127.007-.254-.092-.388.664-.134.374-.268-.085-.409.911-.141.762-.282-.085-.431-.021-.148.332-.3-.071-.452-.064-.148-.233-.311-.071-.466-.607-.162-.586-.325-.064-.487-.649-.169-.4-.332-.056-.5.367-.176-.572-.346-.049-.522.042-.176-.148-.353-.042-.529.268-.176.565-.367-.035-.544-.162-.191-.381-.374-.028-.558-.692-.191-.388-.381-.021-.572-.113-.191.381-.388-.007-.579.106-.2-.311-.4-.007-.593.212-.2.409-.388.007-.586-.452-.2.184-.388.007-.579.649-.191-.212-.381.021-.565-.064-.2.374-.381.028-.565-.12-.184-.247-.367.035-.544-1-.184.261-.36.042-.536.424-.176-.064-.346.049-.515-.184-.169.466-.339.056-.5.085-.162-.325-.332.064-.487-.5-.155.416-.318.071-.466a.679.679,0,0,1,.071-.452c.783-.148.134-.289.085-.431.085-.141-.445-.275.085-.409.064-.134.409-.261.092-.388-.113-.134,1.136-.247.1-.367-.184-.12.8-.233.1-.346-.642-.106.078-.212.106-.318s.078-.2.113-.289c.339-.84.727-1.327,1.151-1.327.466,0,.9.6,1.263,1.616.035.106.586.212.106.318,0,.113.416.226.106.346.72.12.127.233.092.367.035.127-.2.254.092.388.424.134-.2.268.085.409-.445.141-.325.282.085.431-.438.148.092.3.071.452-.664.148-.2.311.071.466.247.155-.1.325.064.487-.127.162.169.332.056.5.318.169.431.339.049.515.219.176.042.353.042.536.268.176-.028.36.035.544.141.184-.706.367.035.565.085.184-.127.374.014.565-.092.191-.191.381.014.579-.727.2-.282.388,0,.586.212.2.106.4,0,.593a.954.954,0,0,1-.014.579c.212.191-.318.381-.014.572s-.339.367-.035.558c.212.176.325.367-.035.544.007.176-.664.353-.042.529.141.176.967.346-.049.522.254.169-.487.332-.056.5-.741.162-.035.325-.064.487-.141.155-.4.318-.071.466.36.155-.191.3-.071.452.424.148-.558.289-.085.431-.092.141.064.275-.085.409,1,.134,0,.261-.092.388-.148.127.664.247-.092.367.755.113.1.233-.106.339s.325.219-.106.318c.536.106-.3.2-.113.3-.353.092-.021.184-.113.268.12.085.078.162-.12.24a1.946,1.946,0,0,1-.12.2c-.247.4-.515.607-.8.607" transform="translate(39.534 93.85)" fill="#00483f"/>
          <path id="Trazado_875188" data-name="Trazado 875188" d="M26.932,38.693c-.275,0-.544-.254-.8-.72-.035-.085-.078-.169-.12-.254-.071-.092-.148-.191-.113-.289.367-.1-.692-.2-.12-.318.169-.113.014-.226-.106-.353s.233-.247-.113-.381c-.72-.134.8-.268-.1-.409-.2-.141-.141-.289-.092-.445.544-.148,0-.3-.1-.466.663-.155.374-.325-.085-.487.911-.169.769-.346-.085-.522-.021-.176.332-.353-.071-.536-.056-.184-.233-.374-.071-.558-.607-.2-.579-.388-.056-.586-.656-.2-.4-.4-.064-.607.367-.2-.572-.409-.049-.621.042-.2-.148-.424-.042-.642.268-.212.572-.431-.035-.649-.162-.219-.381-.445-.028-.671-.692-.219-.381-.452-.021-.678-.113-.233.381-.466-.007-.7.106-.233-.311-.466-.007-.706.212-.24.409-.473.007-.706-.445-.233.184-.466.007-.7.656-.233-.212-.459.021-.685-.064-.219.374-.445.028-.663-.12-.226-.247-.445.035-.656-1-.212.261-.431.042-.635.424-.212-.064-.424.049-.628-.184-.2.466-.4.064-.6.078-.2-.332-.388.056-.586-.494-.191.416-.374.071-.558a.934.934,0,0,1,.071-.536c.784-.176.134-.353.085-.522.085-.169-.445-.332.085-.494.064-.162.409-.311.1-.466-.12-.148,1.129-.3.092-.438-.184-.141.8-.275.1-.409-.642-.134.085-.261.113-.381l.106-.353c.339-1.009.734-1.588,1.151-1.588.466,0,.9.713,1.263,1.941.035.12.586.247.106.381,0,.134.424.268.1.409.727.141.134.289.1.438.035.155-.2.3.092.466.424.162-.2.325.085.494-.445.169-.325.346.085.522-.438.169.092.353.078.536-.671.184-.2.367.064.558.247.2-.1.388.064.586-.127.2.169.4.056.6.318.2.431.416.049.628.219.2.049.424.049.635.261.212-.035.431.028.656.141.219-.706.445.028.663.1.226-.113.452.021.685-.092.233-.191.466.014.7-.727.233-.282.466,0,.706.219.24.106.473,0,.706a1.38,1.38,0,0,1-.014.7c.219.226-.311.459-.021.678.311.226-.332.452-.028.671.212.219.332.438-.028.649,0,.219-.671.438-.049.642.141.212.967.416-.049.621.254.2-.487.4-.056.607-.741.2-.035.388-.064.586-.141.184-.388.374-.064.558.353.184-.2.36-.078.536.424.176-.558.353-.085.522-.092.162.071.332-.085.487,1,.162,0,.318-.092.466-.141.155.663.3-.1.445.762.141.106.275-.1.409s.318.261-.106.381c.536.127-.3.24-.113.353-.353.113-.021.219-.113.318.12.1.078.2-.12.289-.035.085-.078.169-.12.254-.247.466-.515.72-.8.72" transform="translate(147.074 93.856)" fill="#00483f"/>
          <path id="Trazado_875189" data-name="Trazado 875189" d="M9.184,47.316c-.275,0-.544-.212-.791-.607L8.267,46.5c-.071-.071-.148-.148-.12-.24.367-.078-.685-.169-.113-.261.162-.092.014-.191-.113-.3s.233-.2-.106-.318c-.72-.106.8-.219-.1-.339-.2-.12-.141-.24-.1-.367.551-.127.007-.261-.092-.388.664-.134.374-.268-.085-.409.911-.141.762-.282-.085-.431-.021-.148.332-.3-.071-.452-.064-.155-.233-.311-.071-.466-.607-.162-.586-.325-.064-.487-.649-.169-.4-.332-.056-.5.367-.169-.572-.346-.049-.522.042-.169-.148-.353-.042-.529.268-.184.565-.36-.035-.544-.162-.191-.381-.374-.028-.558-.692-.191-.388-.381-.021-.572-.113-.2.381-.388-.007-.579.106-.2-.311-.4-.007-.593.212-.2.409-.388.007-.586-.452-.2.184-.388.007-.579.649-.2-.212-.381.021-.572-.064-.184.374-.374.028-.558-.12-.184-.247-.36.035-.544-1-.184.261-.36.042-.529.424-.176-.064-.353.049-.522-.184-.169.466-.339.056-.5.085-.162-.325-.325.064-.487-.5-.162.416-.318.071-.466a.679.679,0,0,1,.071-.452c.783-.148.134-.289.085-.431.085-.141-.445-.275.085-.409.064-.134.409-.268.092-.388-.113-.127,1.136-.247.1-.367-.184-.12.8-.233.1-.346-.642-.106.078-.212.106-.318s.078-.2.113-.289c.339-.84.727-1.32,1.151-1.32.466,0,.9.593,1.263,1.609.035.106.586.212.106.318,0,.113.416.226.106.346.72.12.127.24.092.367.035.12-.2.254.092.388.424.134-.2.268.085.409-.445.141-.325.282.085.431-.438.148.092.3.071.452-.664.148-.2.3.071.466.247.162-.1.325.064.487-.127.162.169.332.056.5.318.169.431.346.049.522.219.169.042.346.042.529.268.184-.028.36.035.544.141.184-.706.374.035.558.085.191-.127.374.014.572-.092.191-.191.381.014.579-.727.2-.282.388,0,.586.212.2.106.4,0,.593a.955.955,0,0,1-.014.579c.212.191-.318.381-.014.572s-.339.367-.035.558c.212.184.325.36-.035.544.007.176-.664.36-.042.529.141.176.967.353-.049.522.254.169-.487.332-.056.5-.741.162-.035.325-.064.487-.141.155-.4.311-.071.466.36.155-.191.3-.071.452.424.148-.558.289-.085.431-.092.141.064.275-.085.409,1,.127,0,.261-.092.388-.148.127.664.247-.092.367.755.12.1.233-.106.339s.325.219-.106.318c.536.106-.3.2-.113.3-.353.092-.021.184-.113.261.12.092.078.169-.12.24a1.507,1.507,0,0,1-.12.212c-.247.4-.515.607-.8.607" transform="translate(39.534 169.533)" fill="#00483f"/>
          <path id="Trazado_875190" data-name="Trazado 875190" d="M26.932,51.184c-.275,0-.544-.254-.8-.727l-.12-.254c-.071-.085-.148-.184-.113-.282.367-.1-.692-.212-.12-.318.169-.113.014-.233-.106-.353s.233-.247-.113-.381c-.72-.134.8-.268-.1-.416-.2-.141-.141-.282-.092-.438.544-.148,0-.3-.1-.466.663-.162.374-.325-.085-.494.911-.162.769-.339-.085-.515-.021-.176.332-.353-.071-.536-.056-.191-.233-.374-.071-.565-.607-.191-.579-.381-.056-.586-.656-.191-.4-.4-.064-.6.367-.2-.572-.416-.049-.621.042-.212-.148-.424-.042-.635.268-.219.572-.438-.035-.656-.162-.219-.381-.445-.028-.671-.692-.226-.381-.452-.021-.685-.113-.233.381-.459-.007-.7.106-.226-.311-.466-.007-.7.212-.24.409-.48.007-.713-.445-.233.184-.459.007-.692.656-.233-.212-.459.021-.685-.064-.226.374-.452.028-.671-.12-.219-.247-.438.035-.649-1-.219.261-.431.042-.642.424-.212-.064-.416.049-.621-.184-.2.466-.4.064-.6.078-.2-.332-.4.056-.586-.494-.191.416-.381.071-.565a.941.941,0,0,1,.071-.536c.784-.176.134-.353.085-.515.085-.169-.445-.339.085-.494.064-.162.409-.318.1-.466-.12-.148,1.129-.3.092-.445-.184-.141.8-.275.1-.409-.642-.134.085-.261.113-.381l.106-.353c.339-1,.734-1.581,1.151-1.581.466,0,.9.713,1.263,1.934.035.12.586.247.106.381,0,.134.424.268.1.409.727.141.134.3.1.445.035.148-.2.3.092.466.424.155-.2.325.085.494-.445.162-.325.339.085.515-.438.176.092.353.078.536-.671.184-.2.374.064.565.247.191-.1.381.064.586-.127.2.169.4.056.6.318.2.431.409.049.621.219.212.049.424.049.642.261.212-.035.431.028.649.141.219-.706.445.028.671.1.226-.113.452.021.685-.092.233-.191.459.014.692-.727.233-.282.473,0,.713.219.233.106.473,0,.7a1.378,1.378,0,0,1-.014.7c.219.233-.311.459-.021.685.311.226-.332.452-.028.671.212.219.332.438-.028.656,0,.212-.671.424-.049.635.141.2.967.416-.049.621.254.2-.487.409-.056.6-.741.2-.035.4-.064.586-.141.191-.388.374-.064.565.353.184-.2.36-.078.536.424.176-.558.353-.085.515-.092.169.071.332-.085.494,1,.162,0,.318-.092.466-.141.155.663.3-.1.438.762.148.106.282-.1.416s.318.254-.106.381c.536.12-.3.24-.113.353-.353.106-.021.219-.113.318.12.1.078.2-.12.282a2.122,2.122,0,0,1-.12.254c-.247.473-.515.727-.8.727" transform="translate(147.074 169.533)" fill="#00483f"/>
          <path id="Trazado_875191" data-name="Trazado 875191" d="M6.555,42.605c-.275,0-.544-.212-.8-.607l-.12-.212c-.071-.071-.155-.148-.12-.24.367-.078-.685-.169-.113-.261.162-.092.014-.191-.113-.3s.233-.2-.106-.318c-.72-.106.8-.219-.1-.339-.2-.12-.141-.247-.1-.367.551-.127.007-.261-.092-.388.663-.134.374-.268-.085-.409.911-.141.762-.289-.085-.431-.021-.148.332-.3-.071-.452-.064-.155-.233-.311-.071-.466-.607-.162-.586-.325-.064-.487-.649-.169-.4-.339-.056-.5.367-.176-.572-.346-.049-.522.042-.176-.148-.353-.042-.529.268-.184.565-.36-.035-.544-.162-.191-.381-.374-.028-.558-.692-.191-.388-.381-.021-.572-.113-.2.381-.388-.007-.579.106-.2-.311-.4-.007-.593.212-.2.409-.388.007-.586-.452-.2.184-.388.007-.579.649-.2-.212-.381.021-.572-.064-.191.374-.374.028-.558-.12-.184-.247-.367.035-.551-1-.176.261-.353.042-.529.424-.169-.064-.346.049-.515-.184-.169.466-.339.056-.508.085-.155-.325-.325.064-.48-.5-.162.416-.318.071-.473a.665.665,0,0,1,.071-.445c.783-.148.134-.289.085-.431.085-.141-.445-.275.085-.409.064-.134.409-.268.092-.388-.12-.127,1.136-.247.1-.367-.184-.12.8-.233.1-.346-.642-.106.078-.212.106-.318s.078-.2.113-.289c.339-.84.727-1.32,1.151-1.32.466,0,.9.593,1.263,1.609.035.106.579.212.106.318,0,.113.416.226.106.346.72.12.127.24.092.367.035.12-.2.254.092.388.424.134-.2.268.085.409-.445.141-.325.282.085.431-.438.148.092.3.071.445-.663.155-.2.311.071.473.247.155-.1.325.064.48-.127.169.169.339.056.508.318.169.431.346.049.515.219.176.042.353.042.529.261.184-.028.367.035.551.141.184-.706.367.028.558.092.191-.12.374.021.572-.092.191-.191.381.014.579-.734.2-.282.388,0,.586.212.2.106.4,0,.593a.955.955,0,0,1-.014.579c.212.191-.318.381-.021.572s-.332.367-.028.558c.212.184.325.36-.035.544,0,.176-.664.353-.042.529.141.176.967.346-.049.522.254.162-.487.332-.056.5-.741.162-.035.325-.064.487-.141.155-.4.311-.071.466.36.148-.191.3-.071.452.424.141-.558.289-.085.431-.092.141.064.275-.085.409,1,.127,0,.261-.092.388-.148.12.664.247-.092.367.755.12.1.233-.106.339s.318.219-.106.318c.536.106-.3.2-.113.3-.353.092-.021.184-.113.261.12.092.078.169-.12.24-.042.078-.078.148-.12.212-.247.4-.515.607-.8.607" transform="translate(23.606 140.991)" fill="#00483f"/>
          <path id="Trazado_875192" data-name="Trazado 875192" d="M24.3,45.925c-.275,0-.551-.254-.8-.727l-.12-.254c-.071-.085-.148-.184-.12-.282.367-.106-.685-.212-.113-.325.162-.113.014-.226-.113-.346s.24-.254-.106-.381c-.72-.134.8-.275-.1-.416-.2-.141-.141-.282-.1-.438.551-.155.007-.3-.092-.466.663-.162.374-.325-.085-.494.911-.169.769-.339-.085-.515-.021-.176.332-.353-.071-.544-.056-.184-.233-.367-.071-.558-.607-.191-.579-.388-.064-.586-.649-.2-.4-.4-.056-.6.367-.2-.572-.416-.049-.621.042-.212-.148-.424-.042-.642.268-.212.572-.431-.035-.649-.162-.226-.381-.452-.028-.671-.692-.226-.381-.452-.021-.685-.113-.233.381-.459-.007-.7.106-.233-.311-.466-.007-.706.212-.233.409-.473.007-.706-.445-.233.184-.466.007-.692.649-.233-.212-.459.021-.685-.064-.226.374-.452.028-.671-.12-.219-.247-.438.035-.649-1-.219.261-.431.042-.642.424-.212-.064-.416.049-.621-.184-.2.466-.4.056-.607.085-.2-.325-.388.064-.586-.494-.184.416-.374.071-.558a.941.941,0,0,1,.071-.536c.783-.176.134-.353.085-.515.085-.169-.445-.339.085-.494.064-.162.409-.318.092-.466-.113-.155,1.136-.3.1-.445-.184-.141.8-.275.1-.409-.642-.134.085-.261.106-.381l.113-.353c.339-1,.734-1.581,1.151-1.581.466,0,.9.713,1.263,1.934.035.12.586.247.106.381,0,.134.416.268.1.409.727.141.134.289.1.445.035.148-.2.3.092.466.424.155-.212.325.085.494-.445.162-.325.339.085.515-.438.176.092.353.078.536-.671.184-.2.374.064.558.247.2-.1.388.064.586-.127.2.169.4.056.607.318.2.431.409.049.621.219.212.042.424.049.642.261.212-.035.431.028.649.141.219-.706.445.028.671.1.226-.113.452.021.685-.092.226-.191.459.014.692-.727.233-.282.473.007.706.2.24.1.473-.007.706a1.378,1.378,0,0,1-.014.7c.219.233-.311.459-.021.685.311.219-.332.445-.028.671.212.219.332.438-.028.649,0,.219-.671.431-.049.642.141.2.967.416-.049.621.254.2-.487.4-.056.6-.741.2-.035.4-.064.586-.141.191-.388.374-.064.558.353.191-.2.367-.078.544.424.176-.558.346-.085.515-.092.169.071.332-.085.494,1,.162,0,.311-.092.466-.141.155.663.3-.1.438.762.141.106.282-.1.416s.318.254-.106.381c.536.12-.3.233-.113.346-.353.113-.021.219-.113.325.12.1.078.2-.12.282a2.121,2.121,0,0,1-.12.254c-.247.473-.515.727-.8.727" transform="translate(131.147 137.671)" fill="#00483f"/>
        </g>
      </g>
      <g id="Grupo_1099924" data-name="Grupo 1099924" transform="translate(-8959.959 -12227.492) rotate(165)">
        <g id="Grupo_1099920-2" data-name="Grupo 1099920">
          <g id="Grupo_1099919-2" data-name="Grupo 1099919" clip-path="url(#clip-path-15)">
            <path id="Trazado_874721-2" data-name="Trazado 874721" d="M80.02,16.185S-69.009,239.727,159.856,383.433,532.427,266.341,532.427,266.341Z" transform="translate(69.327 34.701)" fill="#43c0ff"/>
          </g>
        </g>
        <g id="Grupo_1099922-2" data-name="Grupo 1099922" transform="translate(101.664 50.883)">
          <g id="Grupo_1099921-2" data-name="Grupo 1099921" clip-path="url(#clip-path-7)">
            <path id="Trazado_874722-2" data-name="Trazado 874722" d="M266.942,27.4C239.63,75.586,205.119,119.152,168.7,160.719c-36.458,41.608-74.944,81.389-111.251,123.132C37.345,306.963,17.934,330.7.1,355.619c-.494.692,1.025.528,1.283.418,28.2-11.969,46-36.235,66.3-57.925,23.737-25.353,47.116-50.826,72.391-74.7,25.561-24.143,52.165-47.157,79.2-69.63,27.1-22.527,55.127-43.916,80.518-68.4C328.766,57.442,355.745,27.473,386.028.9L384.286.859C355.179,65.3,311.226,121.715,264.424,174.2c-48.616,54.517-101.1,105.419-150.079,159.593C88.048,362.876,62.736,392.929,40.124,425c-.478.679,1.009.553,1.283.418,62.644-30.88,118.862-73.378,169.751-120.947,52.6-49.166,99.829-103.856,144.128-160.527,24.363-31.167,47.842-63.009,70.894-95.153-.6-.013-1.2-.028-1.8-.041-29.739,52.989-66.087,101.882-103.212,149.859-37.3,48.21-75.711,95.666-109.993,146.115-18.682,27.488-36.065,55.888-50.967,85.611-.462.918,1.38.4,1.676.182,55.441-41.265,114.536-77.283,172.575-114.706C393.19,277.94,451.386,238.618,503.7,192.09c29.032-25.822,56.1-53.876,79.921-84.6.572-.739-1.254-.45-1.5-.308-42.479,24.724-82.389,53.659-120.689,84.4C422.986,222.436,385.7,255,349.79,288.768c-25.476,23.951-51.769,47-77.563,70.6-29.469,26.969-58.469,54.627-84.819,84.687-23.008,26.249-45.384,55.011-58.23,87.787q-2.07,5.282-3.729,10.705c-.072.239.195.365.374.406,25.819,5.684,52.951-6.159,75.073-18.386,31.824-17.588,60.466-40.869,87.576-64.924,27.953-24.8,54.429-51.232,80.248-78.236,21.769-22.769,42.73-46.358,65.175-68.473,37.194-36.643,77.883-70.567,109.433-112.48q5.725-7.607,10.935-15.575c-.6-.016-1.2-.028-1.8-.041-23.272,43.246-51.816,83.354-81.524,122.368C441.1,346.4,409.932,384.595,380.972,424.461c-15.821,21.779-30.95,44.07-44.651,67.247-.374.632.717.572,1.031.506,45.519-9.5,84.14-40.479,116.762-72.083,38.483-37.278,71.768-79.559,104.928-121.516,16.789-21.244,33.484-42.6,51.26-63.034.56-.645-1.324-.538-1.676-.182-12.139,12.268-21.452,26.708-32.147,40.165-.528.67,1.409.541,1.8.044,10.617-13.359,19.845-27.708,31.9-39.888l-1.676-.179c-32.471,37.335-61.777,77.314-93.342,115.407-32.83,39.624-67.863,79.264-110.282,108.921-20.505,14.337-43.136,26.23-67.785,31.377l1.031.5c24.624-41.655,53.794-80.383,83.429-118.557,30.315-39.052,61.314-77.629,89.434-118.322a741.953,741.953,0,0,0,43.277-69.989c.446-.83-1.471-.544-1.8-.041-26.7,40.847-63.625,73.824-98.763,107.195-24,22.8-46.632,46.711-69.275,70.825-22.206,23.652-44.764,46.99-68.209,69.42-25.746,24.63-52.517,48.452-81.477,69.266-23.483,16.874-49.65,33.647-78.311,39.816a78.533,78.533,0,0,1-17.849,1.89,58.434,58.434,0,0,1-8.212-.7,6.605,6.605,0,0,1-1.971-.352c-.965-.55-.626.05-.638-1.116-.016-1.786,1.481-4.487,2.1-6.169,6.062-16.591,14.94-32.069,24.813-46.663,23.13-34.2,51.958-64.418,81.458-93.141,28.966-28.2,59.327-54.9,89.29-82.024,33.154-30.019,65.625-60.714,99.659-89.765,40.309-34.408,82.109-67.282,126.619-96.115q15.582-10.092,31.622-19.443c-.5-.1-1-.2-1.5-.308-43.114,55.6-96.685,101.932-153.346,143.225-56.4,41.1-115.989,77.5-174.546,115.376-31.758,20.546-63.245,41.551-93.6,64.141.56.06,1.119.119,1.676.182,26.784-53.414,61.437-102.391,97.5-149.862,37.068-48.8,75.94-96.244,111.593-146.115,19.741-27.617,38.461-55.995,55.083-85.611.465-.827-1.462-.512-1.8-.041-40.948,57.1-83.285,113.3-129.429,166.34-46.575,53.533-97.115,104.123-153.833,146.951-31.531,23.81-65.015,45.1-100.473,62.581.428.138.855.28,1.283.418,41.532-58.906,91.811-110.993,141.656-162.806,50.018-52,100.665-103.96,143.439-162.243C349.875,68.848,370.3,35.861,386.22.617c.321-.711-1.531-.223-1.742-.038-26.721,23.445-50.9,49.518-76.091,74.548-12.416,12.331-25.114,24.4-38.511,35.666-13.375,11.249-27.142,22.046-40.639,33.154-53.313,43.875-105.173,89.673-151.331,141.147-11.686,13.032-23.42,26.142-35.38,38.929-12.082,12.909-25.495,24.25-41.91,31.22.428.138.855.277,1.283.418,32.144-44.915,69.325-85.894,106.629-126.524,37.194-40.507,74.771-80.82,108.358-124.43a662.417,662.417,0,0,0,51.857-77.264c.446-.789-1.487-.6-1.8-.041" transform="translate(-101.664 -50.361)" fill="#fff"/>
          </g>
        </g>
      </g>
      <path id="Trazado_875163" data-name="Trazado 875163" d="M387.1,76.833S180.689-95.175,56.842,166.279s247.7,433.461,378.424,261.453,75.685-261.453-48.162-350.9" transform="translate(-9864.935 -12775.169)" fill="#004550"/>
      <g id="Grupo_1100365" data-name="Grupo 1100365" transform="translate(-706.849 236.316)">
        <g id="Grupo_1100364" data-name="Grupo 1100364" transform="translate(-8971.934 -12709.413)">
          <g id="Grupo_1100363" data-name="Grupo 1100363" transform="translate(0 0)" clip-path="url(#clip-path-17)">
            <line id="Línea_935" data-name="Línea 935" y1="43.099" x2="11.772" transform="translate(0.734 0.195)" fill="none" stroke="#fff" stroke-miterlimit="10" stroke-width="3"/>
            <line id="Línea_936" data-name="Línea 936" y1="43.099" x2="11.772" transform="translate(13.58 0.195)" fill="none" stroke="#fff" stroke-miterlimit="10" stroke-width="3"/>
            <line id="Línea_937" data-name="Línea 937" y1="43.099" x2="11.772" transform="translate(26.427 0.195)" fill="none" stroke="#fff" stroke-miterlimit="10" stroke-width="3"/>
            <line id="Línea_938" data-name="Línea 938" y1="43.099" x2="11.772" transform="translate(39.273 0.195)" fill="none" stroke="#fff" stroke-miterlimit="10" stroke-width="3"/>
            <line id="Línea_939" data-name="Línea 939" y1="43.099" x2="11.772" transform="translate(52.119 0.195)" fill="none" stroke="#fff" stroke-miterlimit="10" stroke-width="3"/>
            <line id="Línea_940" data-name="Línea 940" y1="43.099" x2="11.772" transform="translate(64.966 0.195)" fill="none" stroke="#fff" stroke-miterlimit="10" stroke-width="3"/>
            <line id="Línea_941" data-name="Línea 941" y1="43.099" x2="11.772" transform="translate(77.812 0.195)" fill="none" stroke="#fff" stroke-miterlimit="10" stroke-width="3"/>
            <line id="Línea_942" data-name="Línea 942" y1="43.099" x2="11.772" transform="translate(90.659 0.195)" fill="none" stroke="#fff" stroke-miterlimit="10" stroke-width="3"/>
            <line id="Línea_943" data-name="Línea 943" y1="43.099" x2="11.772" transform="translate(103.505 0.195)" fill="none" stroke="#fff" stroke-miterlimit="10" stroke-width="3"/>
            <line id="Línea_944" data-name="Línea 944" y1="43.099" x2="11.772" transform="translate(116.351 0.195)" fill="none" stroke="#fff" stroke-miterlimit="10" stroke-width="3"/>
            <line id="Línea_945" data-name="Línea 945" y1="43.099" x2="11.772" transform="translate(129.198 0.195)" fill="none" stroke="#fff" stroke-miterlimit="10" stroke-width="3"/>
            <line id="Línea_946" data-name="Línea 946" y1="43.099" x2="11.772" transform="translate(142.044 0.195)" fill="none" stroke="#fff" stroke-miterlimit="10" stroke-width="3"/>
            <line id="Línea_947" data-name="Línea 947" y1="43.099" x2="11.772" transform="translate(154.89 0.195)" fill="none" stroke="#fff" stroke-miterlimit="10" stroke-width="3"/>
            <line id="Línea_948" data-name="Línea 948" y1="43.099" x2="11.772" transform="translate(167.737 0.195)" fill="none" stroke="#fff" stroke-miterlimit="10" stroke-width="3"/>
            <line id="Línea_949" data-name="Línea 949" y1="43.099" x2="11.772" transform="translate(180.583 0.195)" fill="none" stroke="#fff" stroke-miterlimit="10" stroke-width="3"/>
            <line id="Línea_950" data-name="Línea 950" y1="43.099" x2="11.772" transform="translate(193.43 0.195)" fill="none" stroke="#fff" stroke-miterlimit="10" stroke-width="3"/>
            <line id="Línea_951" data-name="Línea 951" y1="43.099" x2="11.772" transform="translate(206.276 0.195)" fill="none" stroke="#fff" stroke-miterlimit="10" stroke-width="3"/>
          </g>
        </g>
      </g>
      <g id="Grupo_1100367" data-name="Grupo 1100367" transform="translate(-8260.012 -12599.55)">
        <g id="Grupo_1100366" data-name="Grupo 1100366" clip-path="url(#clip-path-18)">
          <path id="Trazado_875193" data-name="Trazado 875193" d="M25.152,0h0A25.152,25.152,0,0,0,0,25.151V83.48H50.3V25.151A25.152,25.152,0,0,0,25.152,0m4.157,51.308c-2.452,3.518-3.068,7.935-3.542,11.656A25.719,25.719,0,0,0,21.3,51.084a15.863,15.863,0,0,0-10.457-6.778,24.962,24.962,0,0,0,10.9-7.82c2.758-3.567,3.675-6.663,4.343-12.044.511,4.864,1.379,9.045,3.882,12.851a17.164,17.164,0,0,0,10.366,7.324,14.826,14.826,0,0,0-11.03,6.689" transform="translate(0 0)" fill="#02dd84"/>
        </g>
      </g>
    </g>
    <g id="Grupo_1099918" data-name="Grupo 1099918" transform="translate(-9558.656 -12529) rotate(180)">
      <g id="Grupo_1099918-2" data-name="Grupo 1099918" transform="translate(0 0)" clip-path="url(#clip-path-19)">
        <path id="Trazado_874715" data-name="Trazado 874715" d="M24.5,0h0A24.5,24.5,0,0,0,0,24.5,24.5,24.5,0,0,0,24.5,0Z" transform="translate(0 0)" fill="#b80fff"/>
        <path id="Trazado_874716" data-name="Trazado 874716" d="M24.5,31.9h0A24.5,24.5,0,0,0,0,56.4,24.5,24.5,0,0,0,24.5,31.9Z" transform="translate(0 -7.441)" fill="#b80fff"/>
        <path id="Trazado_874717" data-name="Trazado 874717" d="M24.5,63.793h0A24.5,24.5,0,0,0,0,88.3,24.5,24.5,0,0,0,24.5,63.793Z" transform="translate(0 -14.883)" fill="#b80fff"/>
        <path id="Trazado_874718" data-name="Trazado 874718" d="M31.847,0h0a24.5,24.5,0,0,1,24.5,24.5A24.5,24.5,0,0,1,31.847,0Z" transform="translate(-7.43 0)" fill="#b80fff"/>
        <path id="Trazado_874719" data-name="Trazado 874719" d="M31.847,31.9h0a24.5,24.5,0,0,1,24.5,24.5A24.5,24.5,0,0,1,31.847,31.9Z" transform="translate(-7.43 -7.441)" fill="#b80fff"/>
        <path id="Trazado_874720" data-name="Trazado 874720" d="M31.847,63.793h0a24.5,24.5,0,0,1,24.5,24.5A24.5,24.5,0,0,1,31.847,63.793Z" transform="translate(-7.43 -14.883)" fill="#b80fff"/>
      </g>
    </g>
  </g>
</svg>
