<svg xmlns="http://www.w3.org/2000/svg" xmlns:xlink="http://www.w3.org/1999/xlink" width="1240" height="612.31" viewBox="0 0 1240 612.31">
  <defs>
    <clipPath id="clip-path">
      <path id="Trazado_872907" data-name="Trazado 872907" d="M17.848,0h1204.3C1232.009,0,1240,10.274,1240,22.947V589.364c0,12.673-7.991,22.946-17.849,22.946H17.848C7.991,612.31,0,602.037,0,589.364V22.947C0,10.274,7.991,0,17.848,0Z" fill="#02dd84"/>
    </clipPath>
    <clipPath id="clip-path-2">
      <path id="Trazado_874007" data-name="Trazado 874007" d="M75.259,87.29,1293.2-28.883,1187.843,1293.9-30.1,1410.074Z" fill="#02dd84"/>
    </clipPath>
    <clipPath id="clip-path-3">
      <path id="Trazado_873019" data-name="Trazado 873019" d="M738.436,9.6c-235.2,76.27-464.1,240.856-633.718,469.939C61.529,537.9,21.5,601.672-.384,672.248S-23.752,821.5,7.384,875.694c40.193,69.965,121.79,84.181,206.933,98.526-28.009,17.192-43.2,59.9-37.545,92.965,12.086,70.676,81.747,79.031,140.982,71.224,197.417-26.03,389.625-161.084,558.394-317.752,88.663-82.309,174.3-172.886,240.55-280.98,43.531-71.017,82.635-172.661,33.576-230.667-22.63-26.762-65.662-29.4-95.947,4.786,49.026-62,57.789-156.117,29.754-220.494S997.411-7.5,934.384-16.965c-23.666-3.559-47.961-3.69-72.531-1.347C821-14.415,779.369-3.669,738.436,9.6" fill="#02dd84"/>
    </clipPath>
    <clipPath id="clip-path-4">
      <path id="Trazado_874008" data-name="Trazado 874008" d="M73.852,84.719,1077.637-29.2,974.317,1010.273-29.469,1124.2Z" fill="#02dd84" stroke="#165b7a" stroke-width="1"/>
    </clipPath>
    <clipPath id="clip-path-5">
      <path id="Trazado_873019-2" data-name="Trazado 873019" d="M614.619,5.91C420.1,70.135,229.651,203.512,87.188,386.366,50.912,432.943,17.166,483.714-1.727,539.478S-22.833,656.981,2.11,698.9c32.2,54.123,99.172,63.746,169.062,73.4-23.266,14.008-36.306,47.79-32.066,73.618,9.059,55.207,66.282,60.456,115.129,53.224,162.794-24.113,322.671-133.64,463.53-259.68,74-66.218,145.61-138.864,201.494-224.887,36.717-56.516,70.174-136.971,30.529-181.549-18.287-20.567-53.668-21.834-79.021,5.551,41.125-49.545,49.519-123.53,27.256-173.5S827.961-12.353,776.212-18.6c-19.432-2.348-39.424-2-59.674.3C682.868-14.475,648.472-5.267,614.619,5.91" fill="#02dd84"/>
    </clipPath>
  </defs>
  <g id="fnd-1" transform="translate(718.912 6419.406)">
    <g id="Grupo_1099345" data-name="Grupo 1099345" transform="translate(-718.912 -6419.406)">
      <g id="Enmascarar_grupo_1098662" data-name="Enmascarar grupo 1098662" clip-path="url(#clip-path)">
        <path id="Trazado_870126" data-name="Trazado 870126" d="M17.848,0h1204.3C1232.009,0,1240,10.274,1240,22.947V589.364c0,12.673-7.991,22.946-17.849,22.946H17.848C7.991,612.31,0,602.037,0,589.364V22.947C0,10.274,7.991,0,17.848,0Z" fill="#02dd84"/>
        <g id="Grupo_1099032" data-name="Grupo 1099032" transform="matrix(-0.927, 0.375, -0.375, -0.927, 1938.089, 639.728)" opacity="0.33" style="mix-blend-mode: multiply;isolation: isolate">
          <g id="Grupo_1099028" data-name="Grupo 1099028" transform="translate(0 0)">
            <g id="Grupo_1099027" data-name="Grupo 1099027" clip-path="url(#clip-path-2)">
              <path id="Trazado_873014" data-name="Trazado 873014" d="M1054.327,313.8c49.026-62,57.778-156.116,29.754-220.494S997.4-7.5,934.384-16.964s-130.4,5.3-195.947,26.556c-235.2,76.283-464.117,240.87-633.719,469.952-43.189,58.34-83.233,122.13-105.1,192.7s-23.367,149.24,7.769,203.433c40.182,69.966,121.789,84.195,206.932,98.539-28.02,17.193-43.2,59.885-37.545,92.965,12.086,70.676,81.736,79.032,140.97,71.226,197.428-26.032,389.637-161.1,558.394-317.752,88.663-82.309,174.295-172.886,240.55-280.98,43.543-71.031,82.645-172.662,33.588-230.681-22.63-26.749-65.663-29.392-95.948,4.8" transform="translate(75.739 144.284)" fill="#02dd84"/>
            </g>
          </g>
          <g id="Grupo_1099030" data-name="Grupo 1099030" transform="translate(75.738 144.285)">
            <g id="Grupo_1099029" data-name="Grupo 1099029" transform="translate(0 0)" clip-path="url(#clip-path-3)">
              <path id="Trazado_873015" data-name="Trazado 873015" d="M-13.2,618.477S586.332,701.9,535.8-11.967" transform="translate(-39.754 53.143)" fill="#02dd84"/>
              <path id="Trazado_873016" data-name="Trazado 873016" d="M-20.51,960.814s528.288,164.87,836.849-979.046" transform="translate(-54.878 -7.565)" fill="#02dd84"/>
              <path id="Trazado_873017" data-name="Trazado 873017" d="M-29.089,1362.67s349.863,11.76,603.4-550.574S840.533-18.773,840.533-18.773" transform="translate(130.306 -124.219)" fill="#02dd84"/>
              <path id="Trazado_873018" data-name="Trazado 873018" d="M494.312-11.04S437.348,476.992-18,843.315" transform="translate(646.63 211.872)" fill="#02dd84"/>
            </g>
          </g>
        </g>
        <ellipse id="Elipse_11441" data-name="Elipse 11441" cx="312.566" cy="401.829" rx="312.566" ry="401.829" transform="translate(39.008 -388.581)" fill="#02dd84" opacity="0.37" style="mix-blend-mode: multiply;isolation: isolate"/>
        <ellipse id="Elipse_11485" data-name="Elipse 11485" cx="313.079" cy="401.829" rx="313.079" ry="401.829" transform="translate(-224.8 76.959)" fill="#02dd84" opacity="0.37" style="mix-blend-mode: hard-light;isolation: isolate"/>
        <ellipse id="Elipse_11486" data-name="Elipse 11486" cx="312.566" cy="401.829" rx="312.566" ry="401.829" transform="translate(320.266 415.076)" fill="#02dd84" opacity="0.37" style="mix-blend-mode: color-dodge;isolation: isolate"/>
        <ellipse id="Elipse_11502" data-name="Elipse 11502" cx="312.053" cy="401.829" rx="312.053" ry="401.829" transform="translate(-151.919 -417.599)" fill="#02dd84" opacity="0.37" style="mix-blend-mode: color-dodge;isolation: isolate"/>
        <g id="Grupo_1099031" data-name="Grupo 1099031" transform="matrix(0.875, -0.485, 0.485, 0.875, -518.099, -4.965)" opacity="0.11" style="mix-blend-mode: multiply;isolation: isolate">
          <g id="Grupo_1099028-2" data-name="Grupo 1099028" transform="translate(0 0)">
            <g id="Grupo_1099027-2" data-name="Grupo 1099027" clip-path="url(#clip-path-4)">
              <path id="Trazado_873014-2" data-name="Trazado 873014" d="M870.766,238.584c41.125-49.545,49.51-123.529,27.256-173.5S827.952-12.352,776.211-18.6,668.833-12,614.62,5.9C420.1,70.136,229.642,203.514,87.188,386.366c-36.276,46.567-70.032,97.35-88.916,153.113s-21.1,117.492,3.838,159.414c32.19,54.124,99.171,63.756,169.061,73.413-23.275,14.01-36.3,47.779-32.065,73.618,9.059,55.207,66.273,60.457,115.119,53.225,162.8-24.115,322.682-133.651,463.53-259.68,74-66.218,145.61-138.864,201.494-224.887,36.727-56.527,70.183-136.972,30.539-181.56-18.288-20.556-53.669-21.823-79.022,5.561" transform="translate(66.499 117.208)" fill="#02dd84" stroke="#165b7a" stroke-width="1"/>
            </g>
          </g>
          <g id="Grupo_1099030-2" data-name="Grupo 1099030" transform="translate(66.499 117.209)">
            <g id="Grupo_1099029-2" data-name="Grupo 1099029" transform="translate(0 0)" clip-path="url(#clip-path-5)">
              <path id="Trazado_873015-2" data-name="Trazado 873015" d="M-12.914,492.649S479.435,546.855,446.815-12.109" transform="translate(-32.071 47.321)" fill="#02dd84" stroke="#00b0ad" stroke-linecap="round" stroke-linejoin="round" stroke-width="1"/>
              <path id="Trazado_873016-2" data-name="Trazado 873016" d="M-20.056,765.115S412.637,884.536,680.938-18.454" transform="translate(-46.927 -3.834)" fill="#02dd84" stroke="#00b0ad" stroke-linecap="round" stroke-linejoin="round" stroke-width="1"/>
              <path id="Trazado_873017-2" data-name="Trazado 873017" d="M-28.328,1080.7s287.778,2.672,503.492-443.133S704.691-19.1,704.691-19.1" transform="translate(103.104 -99.03)" fill="#02dd84" stroke="#00b0ad" stroke-linecap="round" stroke-linejoin="round" stroke-width="1"/>
              <path id="Trazado_873018-2" data-name="Trazado 873018" d="M414.825-11.242S361.816,372.6-17.522,668.451" transform="translate(528.641 159.602)" fill="#02dd84" stroke="#00b0ad" stroke-linecap="round" stroke-linejoin="round" stroke-width="1"/>
            </g>
          </g>
        </g>
      </g>
    </g>
  </g>
</svg>
