<svg id="Grupo_1099345" data-name="Grupo 1099345" xmlns="http://www.w3.org/2000/svg" xmlns:xlink="http://www.w3.org/1999/xlink" width="1240" height="656.341" viewBox="0 0 1240 656.341">
  <defs>
    <clipPath id="clip-path">
      <path id="Trazado_872907" data-name="Trazado 872907" d="M17.848,0h1204.3C1232.009,0,1240,11.012,1240,24.6V631.745c0,13.584-7.991,24.6-17.849,24.6H17.848C7.991,656.341,0,645.329,0,631.745V24.6C0,11.012,7.991,0,17.848,0Z" fill="#43c0ff"/>
    </clipPath>
    <clipPath id="clip-path-2">
      <path id="Trazado_874007" data-name="Trazado 874007" d="M0,0,1143.005,69.305l62.855,906.441L62.854,906.441Z" fill="#ff9751"/>
    </clipPath>
    <clipPath id="clip-path-3">
      <path id="Trazado_873019" data-name="Trazado 873019" d="M618.456-7.766C404.357,16.269,207.127,102.466,74.18,240.8,40.329,276.035,10.147,315.431-1.949,361.79S-5.766,462.652,30.5,504.155c46.812,53.582,126.1,73.516,208.772,93.976-24.5,8.5-33.672,36.311-24.222,59.991,20.192,50.613,87.415,65,142.739,66.875,184.383,6.229,350.385-63.962,491.451-152.063,74.109-46.287,144.319-98.694,193.96-165.663,32.615-44,57.249-109.83,3.486-156.192-24.8-21.389-66.017-28.528-90.582-8.494,38.947-37.053,35.679-101.392,1.108-149.592S862.433,12.253,801.377-2.092a409.709,409.709,0,0,0-69.086-9.872c-38.339-2.325-76.575.015-113.835,4.2" fill="#ff9751"/>
    </clipPath>
    <clipPath id="clip-path-4">
      <path id="Trazado_874008" data-name="Trazado 874008" d="M0,0,902.964,67.964,964.6,809.85,61.638,741.886Z" fill="#ff9751"/>
    </clipPath>
    <clipPath id="clip-path-5">
      <path id="Trazado_873019-2" data-name="Trazado 873019" d="M481.359-8.65C312.714,8.89,158.207,77.432,55.124,189.243c-26.247,28.483-49.543,60.4-58.473,98.194s-1.673,82.445,27.5,116.743c37.655,44.28,100.492,61.365,166.007,78.913-19.219,6.708-26.091,29.362-18.319,48.82,16.607,41.59,69.849,54.021,113.535,56.1,145.595,6.915,275.669-48.846,385.827-119.5,57.871-37.12,112.584-79.284,150.871-133.56,25.155-35.658,43.722-89.251.678-127.7-19.856-17.737-52.478-23.981-71.6-7.841,30.245-29.916,26.811-82.563-1.112-122.322S674.167,10.13,625.793-2.2a316.807,316.807,0,0,0-54.653-8.755c-30.288-2.28-60.431-.744-89.781,2.309" fill="#ff9751"/>
    </clipPath>
  </defs>
  <g id="Enmascarar_grupo_1098662" data-name="Enmascarar grupo 1098662" transform="translate(0 0)" clip-path="url(#clip-path)">
    <path id="Trazado_870126" data-name="Trazado 870126" d="M19.787,0H1354.88c10.928,0,19.787,12.383,19.787,27.659V710.4c0,15.276-8.859,27.659-19.787,27.659H19.787C8.859,738.059,0,725.676,0,710.4V27.659C0,12.383,8.859,0,19.787,0Z" transform="translate(-67.333 -25.942)" fill="#ff9751"/>
    <g id="Grupo_1099032" data-name="Grupo 1099032" transform="matrix(-0.927, 0.375, -0.375, -0.927, 1835.61, 479.417)" opacity="0.33" style="mix-blend-mode: multiply;isolation: isolate">
      <g id="Grupo_1099028" data-name="Grupo 1099028" transform="translate(0 0)">
        <g id="Grupo_1099027" data-name="Grupo 1099027" clip-path="url(#clip-path-2)">
          <path id="Trazado_873014" data-name="Trazado 873014" d="M956.1,242.59C995.047,205.537,991.768,141.2,957.208,93S862.423,12.256,801.377-2.088,678.126-14.466,618.455-7.771C404.357,16.273,207.116,102.47,74.18,240.8,40.328,276.03,10.137,315.435-1.949,361.795S-5.767,462.647,30.5,504.151c46.8,53.581,126.1,73.525,208.772,93.985-24.507,8.5-33.672,36.3-24.222,59.991,20.192,50.613,87.4,65,142.729,66.874,184.393,6.23,350.395-63.97,491.451-152.063,74.109-46.286,144.319-98.694,193.959-165.663,32.625-44.007,57.259-109.829,3.5-156.2-24.8-21.38-66.016-28.519-90.581-8.485" transform="translate(91.884 145.088)" fill="#ff9751"/>
        </g>
      </g>
      <g id="Grupo_1099030" data-name="Grupo 1099030" transform="translate(91.884 145.093)">
        <g id="Grupo_1099029" data-name="Grupo 1099029" transform="translate(0 0)" clip-path="url(#clip-path-3)">
          <path id="Trazado_873015" data-name="Trazado 873015" d="M-6.463,362.46S573.506,494.308,437.541-8.1" transform="translate(-45.519 -7.584)" fill="#ff9751"/>
          <path id="Trazado_873016" data-name="Trazado 873016" d="M-10.076,565.1S512.228,744.777,664.5-12.3" transform="translate(-28.524 -17.233)" fill="#ff9751"/>
          <path id="Trazado_873017" data-name="Trazado 873017" d="M-15,841.183S318.9,892.46,490.533,532.838,641.139-11.871,641.139-11.871" transform="translate(179.351 -73.327)" fill="#ff9751"/>
          <path id="Trazado_873018" data-name="Trazado 873018" d="M372.214-6.892s6,332.2-381.555,530.714" transform="translate(652.272 181.631)" fill="#ff9751"/>
        </g>
      </g>
    </g>
    <ellipse id="Elipse_11441" data-name="Elipse 11441" cx="312.566" cy="259.295" rx="312.566" ry="259.295" transform="translate(39.008 -150.106)" fill="#ff9751" opacity="0.37" style="mix-blend-mode: multiply;isolation: isolate"/>
    <ellipse id="Elipse_11485" data-name="Elipse 11485" cx="313.079" cy="259.295" rx="313.079" ry="259.295" transform="translate(-224.8 150.302)" fill="#ff9751" opacity="0.37" style="mix-blend-mode: hard-light;isolation: isolate"/>
    <ellipse id="Elipse_11486" data-name="Elipse 11486" cx="312.566" cy="259.295" rx="312.566" ry="259.295" transform="translate(320.266 368.484)" fill="#ff9751" opacity="0.37" style="mix-blend-mode: color-dodge;isolation: isolate"/>
    <ellipse id="Elipse_11502" data-name="Elipse 11502" cx="312.053" cy="259.295" rx="312.053" ry="259.295" transform="translate(-151.919 -168.831)" fill="#01927f" opacity="0.37" style="mix-blend-mode: color-dodge;isolation: isolate"/>
    <g id="Grupo_1099031" data-name="Grupo 1099031" transform="matrix(0.875, -0.485, 0.485, 0.875, -412.434, 122.147)" opacity="0.11" style="mix-blend-mode: multiply;isolation: isolate">
      <g id="Grupo_1099028-2" data-name="Grupo 1099028" transform="translate(0 0)">
        <g id="Grupo_1099027-2" data-name="Grupo 1099027" clip-path="url(#clip-path-4)">
          <path id="Trazado_873014-2" data-name="Trazado 873014" d="M751.146,199.419c30.245-29.916,26.8-82.564-1.112-122.322S674.159,10.133,625.793-2.2,528.36-13.54,481.358-8.654C312.714,8.894,158.2,77.436,55.124,189.247c-26.247,28.475-49.551,60.4-58.474,98.194s-1.674,82.437,27.5,116.736c37.647,44.28,100.492,61.373,166.008,78.921-19.228,6.707-26.092,29.354-18.319,48.82,16.607,41.59,69.841,54.02,113.527,56.1,145.6,6.915,275.677-48.853,385.827-119.5,57.871-37.12,112.584-79.284,150.871-133.56,25.163-35.665,43.73-89.25.685-127.7-19.855-17.729-52.477-23.974-71.6-7.833" transform="translate(81.055 127.964)" fill="#ff9751"/>
        </g>
      </g>
      <g id="Grupo_1099030-2" data-name="Grupo 1099030" transform="translate(81.055 127.968)">
        <g id="Grupo_1099029-2" data-name="Grupo 1099029" transform="translate(0 0)" clip-path="url(#clip-path-5)">
          <path id="Trazado_873015-2" data-name="Trazado 873015" d="M-6.366,291.024S453.088,404.574,339.115-7.627" transform="translate(-36.561 -9.736)" fill="#ff9751"/>
          <path id="Trazado_873016-2" data-name="Trazado 873016" d="M-9.93,453.944s414.58,152.1,524.7-465.521" transform="translate(-19.874 -14.703)" fill="#ff9751"/>
          <path id="Trazado_873017-2" data-name="Trazado 873017" d="M-14.877,680.07S249.311,725.3,379.989,432.906,491.613-11.056,491.613-11.056" transform="translate(148.16 -58.921)" fill="#ff9751"/>
          <path id="Trazado_873018-2" data-name="Trazado 873018" d="M284.8-6.405S293.944,265.316-9.271,423.832" transform="translate(519.415 151.013)" fill="#ff9751"/>
        </g>
      </g>
    </g>
  </g>
</svg>
