<svg xmlns="http://www.w3.org/2000/svg" xmlns:xlink="http://www.w3.org/1999/xlink" width="103" height="103" viewBox="0 0 103 103">
  <defs>
    <filter id="Elipse_4909" x="0" y="0" width="103" height="103" filterUnits="userSpaceOnUse">
      <feOffset dy="3" input="SourceAlpha"/>
      <feGaussianBlur stdDeviation="3" result="blur"/>
      <feFlood flood-opacity="0.161"/>
      <feComposite operator="in" in2="blur"/>
      <feComposite in="SourceGraphic"/>
    </filter>
    <clipPath id="clip-path">
      <circle id="Elipse_7719" data-name="Elipse 7719" cx="34.5" cy="34.5" r="34.5" fill="#b3f1ff"/>
    </clipPath>
  </defs>
  <g id="img-5" transform="translate(2.051 10591.94)">
    <g id="Grupo_1100405" data-name="Grupo 1100405" transform="translate(6.949 -10602.94)">
      <g transform="matrix(1, 0, 0, 1, -9, 11)" filter="url(#Elipse_4909)">
        <circle id="Elipse_4909-2" data-name="Elipse 4909" cx="42.5" cy="42.5" r="42.5" transform="translate(9 6)" fill="#99f2ce"/>
      </g>
      <g id="Enmascarar_grupo_868571" data-name="Enmascarar grupo 868571" transform="translate(8 23.847)" clip-path="url(#clip-path)">
        <circle id="Elipse_7718" data-name="Elipse 7718" cx="34.5" cy="34.5" r="34.5" fill="#b3f1ff"/>
        <g id="cronografo" transform="translate(-8 3.959)">
          <path id="Trazado_663875" data-name="Trazado 663875" d="M382.71,295.947h-7.2l-8.536,10.45H382.71a5.225,5.225,0,0,0,0-10.45Z" transform="translate(-313.939 -259.632)" fill="#ffddce"/>
          <path id="Trazado_663876" data-name="Trazado 663876" d="M387.937,321.355a5.225,5.225,0,0,1-5.225,5.225H366.978l2.966-3.631h12.767a5.228,5.228,0,0,0,4.9-3.409A5.205,5.205,0,0,1,387.937,321.355Z" transform="translate(-313.941 -279.815)" fill="#ffcbbe"/>
          <path id="Trazado_663877" data-name="Trazado 663877" d="M377.5,223.642h-7.2l-8.536,10.45H377.5a5.225,5.225,0,0,0,0-10.45Z" transform="translate(-309.479 -197.777)" fill="#ffddce"/>
          <path id="Trazado_663878" data-name="Trazado 663878" d="M382.723,249.05a5.225,5.225,0,0,1-5.225,5.225H361.764l2.966-3.631H377.5a5.228,5.228,0,0,0,4.9-3.409A5.205,5.205,0,0,1,382.723,249.05Z" transform="translate(-309.48 -217.96)" fill="#ffcbbe"/>
          <path id="Trazado_663879" data-name="Trazado 663879" d="M351.425,151.337h-7.2l-8.536,10.45h15.734a5.225,5.225,0,0,0,0-10.45Z" transform="translate(-287.175 -135.922)" fill="#ffddce"/>
          <path id="Trazado_663880" data-name="Trazado 663880" d="M356.652,176.745a5.225,5.225,0,0,1-5.225,5.225H335.693l2.966-3.631h12.767a5.228,5.228,0,0,0,4.9-3.409A5.209,5.209,0,0,1,356.652,176.745Z" transform="translate(-287.177 -156.105)" fill="#ffcbbe"/>
          <path id="Trazado_663881" data-name="Trazado 663881" d="M93.827,105.962H69.572l-10.63-9.227L56.474,86.181l4.513-12.446L65.95,62.058a15.016,15.016,0,0,1,7.363-7.685l9.1-4.335a5.967,5.967,0,0,1,8.238,3.525,0,0,0,0,1,0,0,5.969,5.969,0,0,1-.627,5.049L86.276,64.55l5.566,30.523,1.873,10.276Z" transform="translate(-48.312 -48.766)" fill="#ffddce"/>
          <path id="Trazado_663882" data-name="Trazado 663882" d="M150.22,360.877q-.17.31-.336.613H126.076l-3.552-13.335c4.814,2.149,16.642,6.518,25.822,2.446a16.749,16.749,0,0,0,1.985-1.043C158.051,344.808,154,353.911,150.22,360.877Z" transform="translate(-104.816 -304.295)" fill="#ffcbbe"/>
          <path id="Trazado_663883" data-name="Trazado 663883" d="M117.366,53.565c-1.453-2.357-7.729.274-11.821,2.443-3.747,1.985-13.8,14.77-14.922,28.69L87.7,73.737l4.963-11.678a15.016,15.016,0,0,1,7.363-7.685l9.1-4.335a5.966,5.966,0,0,1,8.238,3.525Z" transform="translate(-75.028 -48.767)" fill="#ffcbbe"/>
          <g id="Grupo_1012933" data-name="Grupo 1012933" transform="translate(45.7)">
            <path id="Trazado_663884" data-name="Trazado 663884" d="M0,0H8.269V9.038H0Z" transform="translate(5.29 4.82) rotate(17.928)" fill="#ffd064"/>
            <path id="Trazado_663885" data-name="Trazado 663885" d="M330.891,55.1q-6.288-1.848-12.467-4.032a3.289,3.289,0,0,1-2.06-4.086l.02-.061a3.289,3.289,0,0,1,4.063-2.106q6.288,1.848,12.467,4.032a3.289,3.289,0,0,1,2.06,4.086l-.02.061A3.289,3.289,0,0,1,330.891,55.1Z" transform="translate(-316.209 -44.677)" fill="#f6e266"/>
            <path id="Trazado_663886" data-name="Trazado 663886" d="M323.956,52.944q-2.777-.907-5.533-1.88a3.29,3.29,0,0,1-2.06-4.086l.02-.061a3.289,3.289,0,0,1,4.062-2.106q2.805.825,5.586,1.715a3.4,3.4,0,0,0-3.823,2.273l-.021.063A3.405,3.405,0,0,0,323.956,52.944Z" transform="translate(-316.209 -44.676)" fill="#ffd064"/>
          </g>
          <path id="Trazado_663887" data-name="Trazado 663887" d="M330.667,368.121h-7.2l-8.536,10.45h15.734a5.225,5.225,0,0,0,0-10.45Z" transform="translate(-269.417 -321.375)" fill="#ffddce"/>
          <path id="Trazado_663888" data-name="Trazado 663888" d="M335.895,393.529a5.225,5.225,0,0,1-5.225,5.225H314.936l2.966-3.631h12.767a5.228,5.228,0,0,0,4.9-3.409A5.209,5.209,0,0,1,335.895,393.529Z" transform="translate(-269.42 -341.558)" fill="#ffcbbe"/>
          <g id="Grupo_1012941" data-name="Grupo 1012941" transform="translate(22.296 10.757)">
            <circle id="Elipse_7759" data-name="Elipse 7759" cx="23.219" cy="23.219" r="23.219" transform="translate(0 0)" fill="#f6e266"/>
            <path id="Trazado_663889" data-name="Trazado 663889" d="M178.983,165.5c-.493.03-.99.047-1.491.047a23.219,23.219,0,1,1,0-46.439c.5,0,1,.017,1.491.047a23.221,23.221,0,0,0,0,46.346Z" transform="translate(-154.273 -119.104)" fill="#ffd064"/>
            <circle id="Elipse_7760" data-name="Elipse 7760" cx="17.746" cy="17.746" r="17.746" transform="translate(5.473 5.473)" fill="#d3effb"/>
            <path id="Trazado_663890" data-name="Trazado 663890" d="M213.436,192.206a17.747,17.747,0,1,1,0-34.978,17.75,17.75,0,0,0,0,34.978Z" transform="translate(-187.116 -151.497)" fill="#9dc6fb"/>
            <path id="Trazado_663891" data-name="Trazado 663891" d="M301.551,234.474a2.261,2.261,0,0,1-2.261-2.261v-5.773a2.261,2.261,0,1,1,4.522,0v5.773A2.261,2.261,0,0,1,301.551,234.474Z" transform="translate(-278.331 -208.994)" fill="#2b4d66"/>
            <g id="Grupo_1012940" data-name="Grupo 1012940" transform="translate(4.962 4.962)">
              <g id="Grupo_1012934" data-name="Grupo 1012934" transform="translate(17.141)">
                <path id="Trazado_663892" data-name="Trazado 663892" d="M308.324,159.24a1.116,1.116,0,0,1-1.117-1.117v-3.568a1.117,1.117,0,1,1,2.233,0v3.568A1.116,1.116,0,0,1,308.324,159.24Z" transform="translate(-307.207 -153.439)" fill="#698ed5"/>
                <path id="Trazado_663893" data-name="Trazado 663893" d="M308.324,371.755a1.116,1.116,0,0,1-1.117-1.117v-3.568a1.117,1.117,0,0,1,2.233,0v3.568A1.117,1.117,0,0,1,308.324,371.755Z" transform="translate(-307.207 -335.24)" fill="#698ed5"/>
              </g>
              <g id="Grupo_1012935" data-name="Grupo 1012935" transform="translate(0 17.141)">
                <path id="Trazado_663894" data-name="Trazado 663894" d="M405.806,274.273h-3.568a1.117,1.117,0,1,1,0-2.233h3.568a1.117,1.117,0,0,1,0,2.233Z" transform="translate(-370.408 -272.04)" fill="#698ed5"/>
                <path id="Trazado_663895" data-name="Trazado 663895" d="M193.29,274.273h-3.568a1.117,1.117,0,1,1,0-2.233h3.568a1.117,1.117,0,0,1,0,2.233Z" transform="translate(-188.606 -272.04)" fill="#698ed5"/>
              </g>
              <g id="Grupo_1012936" data-name="Grupo 1012936" transform="translate(2.296 8.57)">
                <path id="Trazado_663896" data-name="Trazado 663896" d="M398.416,216.024a1.117,1.117,0,0,1-.559-2.084l1.824-1.053a1.117,1.117,0,1,1,1.117,1.934l-1.824,1.053A1.112,1.112,0,0,1,398.416,216.024Z" transform="translate(-369.434 -212.738)" fill="#698ed5"/>
                <path id="Trazado_663897" data-name="Trazado 663897" d="M205.612,327.339a1.117,1.117,0,0,1-.559-2.084l1.824-1.053a1.117,1.117,0,0,1,1.117,1.934l-1.824,1.053A1.112,1.112,0,0,1,205.612,327.339Z" transform="translate(-204.494 -307.965)" fill="#698ed5"/>
              </g>
              <g id="Grupo_1012937" data-name="Grupo 1012937" transform="translate(8.57 2.296)">
                <path id="Trazado_663898" data-name="Trazado 663898" d="M360.336,173.385a1.117,1.117,0,0,1-.966-1.675l1.053-1.824A1.117,1.117,0,1,1,362.357,171l-1.053,1.824A1.116,1.116,0,0,1,360.336,173.385Z" transform="translate(-343.133 -169.327)" fill="#698ed5"/>
                <path id="Trazado_663899" data-name="Trazado 663899" d="M249.021,366.188a1.117,1.117,0,0,1-.966-1.675l1.053-1.824a1.117,1.117,0,1,1,1.934,1.117l-1.053,1.824A1.116,1.116,0,0,1,249.021,366.188Z" transform="translate(-247.905 -334.265)" fill="#698ed5"/>
              </g>
              <g id="Grupo_1012938" data-name="Grupo 1012938" transform="translate(8.57 2.296)">
                <path id="Trazado_663900" data-name="Trazado 663900" d="M250.076,173.385a1.116,1.116,0,0,1-.968-.558L248.055,171a1.117,1.117,0,0,1,1.934-1.117l1.053,1.824a1.117,1.117,0,0,1-.966,1.675Z" transform="translate(-247.905 -169.328)" fill="#698ed5"/>
                <path id="Trazado_663901" data-name="Trazado 663901" d="M361.391,366.188a1.116,1.116,0,0,1-.968-.558l-1.053-1.824a1.117,1.117,0,1,1,1.934-1.117l1.053,1.824a1.117,1.117,0,0,1-.966,1.675Z" transform="translate(-343.133 -334.266)" fill="#698ed5"/>
              </g>
              <g id="Grupo_1012939" data-name="Grupo 1012939" transform="translate(2.296 8.57)">
                <path id="Trazado_663902" data-name="Trazado 663902" d="M207.433,216.024a1.112,1.112,0,0,1-.557-.15l-1.824-1.053a1.117,1.117,0,1,1,1.117-1.934l1.824,1.053a1.117,1.117,0,0,1-.559,2.084Z" transform="translate(-204.493 -212.737)" fill="#698ed5"/>
                <path id="Trazado_663903" data-name="Trazado 663903" d="M400.237,327.338a1.112,1.112,0,0,1-.557-.15l-1.824-1.053a1.117,1.117,0,0,1,1.117-1.934l1.824,1.053a1.117,1.117,0,0,1-.559,2.084Z" transform="translate(-369.433 -307.964)" fill="#698ed5"/>
              </g>
            </g>
            <path id="Trazado_663904" data-name="Trazado 663904" d="M203.279,186.974a18.863,18.863,0,1,1,18.863-18.863A18.884,18.884,0,0,1,203.279,186.974Zm0-35.493a16.63,16.63,0,1,0,16.63,16.63A16.648,16.648,0,0,0,203.279,151.481Z" transform="translate(-180.06 -144.891)" fill="#ffd064"/>
          </g>
          <path id="Trazado_663905" data-name="Trazado 663905" d="M21.26,249.671,8.583,253.558l-5.465-20.52L0,221.331l12.675-3.886,3.118,11.706Z" transform="translate(0 -192.476)" fill="#dd636e"/>
          <path id="Trazado_663906" data-name="Trazado 663906" d="M15.794,229.151,3.118,233.038,0,221.331l12.675-3.886Z" transform="translate(0 -192.476)" fill="#cb5769"/>
        </g>
      </g>
    </g>
  </g>
</svg>
