<svg xmlns="http://www.w3.org/2000/svg" xmlns:xlink="http://www.w3.org/1999/xlink" width="103" height="103" viewBox="0 0 103 103">
  <defs>
    <filter id="Elipse_4909" x="0" y="0" width="103" height="103" filterUnits="userSpaceOnUse">
      <feOffset dy="3" input="SourceAlpha"/>
      <feGaussianBlur stdDeviation="3" result="blur"/>
      <feFlood flood-opacity="0.161"/>
      <feComposite operator="in" in2="blur"/>
      <feComposite in="SourceGraphic"/>
    </filter>
  </defs>
  <g id="img-3" transform="translate(9 -11)">
    <g transform="matrix(1, 0, 0, 1, -9, 11)" filter="url(#Elipse_4909)">
      <circle id="Elipse_4909-2" data-name="Elipse 4909" cx="42.5" cy="42.5" r="42.5" transform="translate(9 6)" fill="#99f2ce"/>
    </g>
    <g id="lupa" transform="translate(11 27.669)">
      <path id="Trazado_663907" data-name="Trazado 663907" d="M32.859,64.493q-.222,0-.444.005a32.163,32.163,0,0,1-20.7-7.345c-.279-.23.262-1.172-.009-1.411a32.264,32.264,0,0,1-2.942-2.955c-.2-.234-1.221.238-1.419,0A32.285,32.285,0,0,1,32.25,0q.265,0,.529,0a1.153,1.153,0,0,1,1.14,1.15V63.42a1.076,1.076,0,0,1-1.059,1.073Z" transform="translate(0 0)" fill="#af65ad"/>
      <path id="Trazado_663908" data-name="Trazado 663908" d="M291.746,32.294A32.248,32.248,0,0,1,260,64.537V.051A32.248,32.248,0,0,1,291.746,32.294Z" transform="translate(-227.247 -0.045)" fill="#a6e0ec"/>
      <path id="Trazado_663909" data-name="Trazado 663909" d="M320.582,287.559h10.432a32.332,32.332,0,0,1-2.791,1.89h-7.641a.945.945,0,0,1,0-1.89Zm-.945-11.483a.945.945,0,0,0,.945.945h19.45q.5-.927.933-1.89H320.582a.945.945,0,0,0-.945.945Zm-.044,8.271a.945.945,0,0,0,.945.945H333.7q.962-.907,1.848-1.89H320.538A.945.945,0,0,0,319.593,284.347Zm4.138-4.157a.945.945,0,0,0,.945.945H337.41q.689-.92,1.313-1.89H324.676A.945.945,0,0,0,323.731,280.19Zm-3.178-17.53a.945.945,0,1,0,0,1.89h23.165q.079-.937.1-1.89Zm-.93,5.1a.945.945,0,0,0,.945.945h22.528q.2-.935.352-1.89h-22.88A.945.945,0,0,0,319.622,267.762Zm-.029,4.157a.945.945,0,0,0,.945.945h21.353q.34-.932.623-1.89H320.538A.945.945,0,0,0,319.593,271.919Z" transform="translate(-279.332 -229.571)" fill="#7cd2e3"/>
      <path id="Trazado_663910" data-name="Trazado 663910" d="M181.871,14.169a22.77,22.77,0,1,1-32.2,0A22.77,22.77,0,0,1,181.871,14.169Z" transform="translate(-124.986 -6.555)" fill="#def4f8"/>
      <path id="Trazado_663911" data-name="Trazado 663911" d="M169.384,52.753a22.771,22.771,0,1,1,0-44.966,22.772,22.772,0,0,0,0,44.966Z" transform="translate(-124.985 -6.556)" fill="#a6e0ec"/>
      <path id="Trazado_663912" data-name="Trazado 663912" d="M157.739,61.7a22.78,22.78,0,0,1,0-42.625Z" transform="translate(-124.985 -16.669)" fill="#d2a8d1"/>
      <path id="Trazado_663913" data-name="Trazado 663913" d="M157.739,57.285V61.7a22.78,22.78,0,0,1,0-42.625v4.411q-.428.388-.842.8a22.77,22.77,0,0,0,0,32.2Q157.31,56.9,157.739,57.285Z" transform="translate(-124.985 -16.669)" fill="#c692c5"/>
      <path id="Trazado_663914" data-name="Trazado 663914" d="M325.175,23.75a.945.945,0,0,1-.945.945H311.023a.945.945,0,0,1,0-1.89h13.208A.945.945,0,0,1,325.175,23.75Zm-14.144-3.086h6.735a.945.945,0,1,0,0-1.89h-6.735a.945.945,0,1,0,0,1.89Zm-.008-6.047a.945.945,0,0,0,0,1.89h11.7a22.63,22.63,0,0,0-4.585-1.89Zm1.2,39.561a.945.945,0,1,0,0,1.89h11.216a22.685,22.685,0,0,0,2.7-1.89Zm.029-4.157a.945.945,0,1,0,0,1.89h16.3a22.9,22.9,0,0,0,1.563-1.89Zm-.015-4.157a.945.945,0,1,0,0,1.89H331.6q.528-.926.962-1.89Z" transform="translate(-271.016 -12.776)" fill="#a6e0ec"/>
      <path id="Trazado_663915" data-name="Trazado 663915" d="M152.174,6.946a23.715,23.715,0,0,0-34.821,32.149l-9.094,9.094,2.672,2.672,9.093-9.093A23.716,23.716,0,0,0,152.174,6.946Zm-1.336,32.2A21.825,21.825,0,0,1,119.973,8.282a21.825,21.825,0,0,1,30.865,30.865Z" transform="translate(-94.621 0)" fill="#0a3575"/>
      <path id="Trazado_663916" data-name="Trazado 663916" d="M70.318,353.294a3.086,3.086,0,0,1,0,4.365l-7.471,7.471a32.447,32.447,0,0,1-4.365-4.365l7.471-7.471A3.086,3.086,0,0,1,70.318,353.294Z" transform="translate(-51.116 -307.998)" fill="#ffc14f"/>
      <path id="Trazado_663917" data-name="Trazado 663917" d="M117.3,335.012l-3.964,3.964-4.365-4.365,3.964-3.964a3.086,3.086,0,0,1,4.365,4.365Z" transform="translate(-95.24 -288.204)" fill="#fff36c"/>
      <path id="Trazado_663918" data-name="Trazado 663918" d="M212.753,131.26v2.52a1.26,1.26,0,0,1-1.26,1.26h-6.3a1.26,1.26,0,0,1-1.26-1.26v-2.52a1.26,1.26,0,0,1,1.26-1.26h6.3A1.26,1.26,0,0,1,212.753,131.26Zm-25.195,6.3h-6.3a1.26,1.26,0,0,0-1.26,1.26v2.52a1.26,1.26,0,0,0,1.26,1.26h6.3a1.26,1.26,0,0,0,1.26-1.26v-2.52A1.26,1.26,0,0,0,187.558,137.558Z" transform="translate(-157.325 -113.623)" fill="#ffc14f"/>
      <path id="Trazado_663919" data-name="Trazado 663919" d="M245.117,131.26v2.52a1.26,1.26,0,0,1-1.26,1.26h-12.6a1.26,1.26,0,0,1-1.26-1.26v-2.52a1.26,1.26,0,0,1,1.26-1.26h12.6A1.26,1.26,0,0,1,245.117,131.26Z" transform="translate(-201.026 -113.623)" fill="#fb5858"/>
      <path id="Trazado_663920" data-name="Trazado 663920" d="M281.26,190h15.117a1.26,1.26,0,0,1,1.26,1.26v2.52a1.26,1.26,0,0,1-1.26,1.26H281.26a1.26,1.26,0,0,1-1.26-1.26v-2.52A1.26,1.26,0,0,1,281.26,190Z" transform="translate(-244.727 -166.065)" fill="#0956c6"/>
    </g>
  </g>
</svg>
